<svg viewBox="0 0 153 52" fill="none" xmlns="http://www.w3.org/2000/svg">
    <path d="M21.805 40.4084L20.7964 37.0671H10.6704L9.65741 40.4084H0L10.3759 11.8467H21.0865L31.4624 40.4084H21.805ZM15.7312 20.3109L12.9509 29.5232H18.5204L15.7312 20.3109Z"
          fill="#1D2849"></path>
    <path d="M72.1436 26.14C72.1436 17.3539 78.8377 11.356 87.5401 11.356C96.2424 11.356 102.937 17.3539 102.937 26.14C102.937 34.9261 96.2424 40.9196 87.5401 40.9196C78.8377 40.9196 72.1436 34.9216 72.1436 26.14ZM94.2877 26.14C94.2877 22.155 91.6324 18.9815 87.5401 18.9815C83.4477 18.9815 80.7924 22.155 80.7924 26.14C80.7924 30.125 83.4477 33.294 87.5401 33.294C91.6324 33.294 94.2877 30.1205 94.2877 26.14Z"
          fill="#1D2849"></path>
    <path d="M105.974 40.4089V11.8291H127.315V19.3685H114.494V22.1974H127.02V29.7413H114.494V40.4089H105.974Z"
          fill="#1D2849"></path>
    <path d="M136.97 40.4089V19.3685H129.423V11.8291H153V19.3685H145.494V40.4089H136.97Z" fill="#1D2849"></path>
    <path d="M32.9609 11.9497H42.2479L47.2507 18.7682L42.7969 25.1334L32.9609 11.9497Z" fill="#0FB687"></path>
    <path d="M63.343 27.085L73.9822 11.8022H65.021L54.1989 27.3842L58.9026 33.4321L63.892 40.2325H73.1522L63.343 27.085Z"
          fill="#0FB687"></path>
    <path d="M54.1994 27.3828L37.0758 52.0002H46.037L58.8853 33.3898L54.1994 27.3828Z" fill="#0F9DD9"></path>
    <path d="M47.2395 18.7607L51.8986 24.9038L41.0988 40.4495H32.1152L47.2395 18.7607Z" fill="#3AAAB8"></path>
    <path d="M47.2294 18.7691L60.216 0H69.195L51.8885 24.9167L47.2294 18.7691Z" fill="#0FB687"></path>
</svg>