<svg width="96" height="96" viewBox="0 0 96 96" fill="none" xmlns="http://www.w3.org/2000/svg">
<g id="Frame 2">
<path id="Icon" d="M22.2313 75.9976C20.6581 76.5175 19.8042 78.2143 20.3242 79.7875C20.8441 81.3607 22.5408 82.2145 24.114 81.6946L22.2313 75.9976ZM46.4487 80.3846L46.1789 77.3967H46.1789L46.4487 80.3846ZM60.4144 77.3077L61.721 80.0082L60.4144 77.3077ZM73.7589 65.2722L71.4355 63.3743V63.3743L73.7589 65.2722ZM64.632 57.7415L66.7442 59.872V59.872L64.632 57.7415ZM58.4862 63.8348L60.5983 65.9652L60.5983 65.9652L58.4862 63.8348ZM41.7935 63.5384C40.1367 63.5384 38.7935 64.8816 38.7935 66.5384C38.7935 68.1953 40.1367 69.5384 41.7935 69.5384V63.5384ZM72.3399 56.9848L70.6857 59.4876L72.3399 56.9848ZM27.8961 54.9661L29.2285 57.654L29.2285 57.654L27.8961 54.9661ZM44.6003 53.4512L43.8172 56.3472L44.6003 53.4512ZM51.1235 55.215L51.9066 52.319L51.1235 55.215ZM53.1904 62.9314L51.0782 60.801V60.801L53.1904 62.9314ZM47.44 64.408C46.2634 65.5745 46.2553 67.474 47.4218 68.6506C48.5883 69.8272 50.4878 69.8354 51.6644 68.6688L47.44 64.408ZM24.114 81.6946C24.6976 81.5017 25.7613 81.4077 27.4708 81.5285C29.1193 81.6451 31.0333 81.9304 33.1853 82.2655C37.3145 82.9085 42.3888 83.7635 46.7186 83.3724L46.1789 77.3967C42.75 77.7064 38.5139 77.023 34.1085 76.3369C31.9932 76.0075 29.8339 75.6806 27.894 75.5435C26.0151 75.4106 23.9752 75.4213 22.2313 75.9976L24.114 81.6946ZM46.7186 83.3724C52.7622 82.8265 55.5889 82.975 61.721 80.0082L59.1078 74.6071C54.1321 77.0145 52.4442 76.8308 46.1789 77.3967L46.7186 83.3724ZM61.721 80.0082C67.2191 77.3481 72.7342 71.2686 76.0822 67.1701L71.4355 63.3743C68.0584 67.5084 63.2789 72.5891 59.1078 74.6071L61.721 80.0082ZM62.5198 55.6111L56.374 61.7044L60.5983 65.9652L66.7442 59.872L62.5198 55.6111ZM51.9027 63.5384H41.7935V69.5384H51.9027V63.5384ZM56.374 61.7044C55.1925 62.8758 53.5846 63.5384 51.9027 63.5384V69.5384C55.1593 69.5384 58.2877 68.256 60.5983 65.9652L56.374 61.7044ZM73.9941 54.4821C70.389 52.0992 65.5902 52.567 62.5198 55.6111L66.7442 59.872C67.7918 58.8333 69.4453 58.6677 70.6857 59.4876L73.9941 54.4821ZM76.0822 67.1701C79.4408 63.0588 78.1806 57.2492 73.9941 54.4821L70.6857 59.4876C72.1608 60.4625 72.3595 62.2433 71.4355 63.3743L76.0822 67.1701ZM6.10348 54.1538H18.5174V48.1538H6.10348V54.1538ZM18.6209 54.2307V81.923H24.6209V54.2307H18.6209ZM18.5174 82H6.10348V88H18.5174V82ZM6 81.923V54.2307H0V81.923H6ZM6.10348 82C6.07997 82 6.06568 81.9958 6.05562 81.9916C6.04364 81.9865 6.03158 81.9787 6.02117 81.9683C6.01078 81.958 6.00552 81.9488 6.00327 81.9435C6.00191 81.9403 6 81.9355 6 81.923H0C0 85.3035 2.75699 88 6.10348 88V82ZM18.6209 81.923C18.6209 81.9355 18.619 81.9403 18.6176 81.9435C18.6154 81.9488 18.6101 81.958 18.5997 81.9683C18.5893 81.9787 18.5772 81.9865 18.5653 81.9916C18.5552 81.9958 18.5409 82 18.5174 82V88C21.8639 88 24.6209 85.3035 24.6209 81.923H18.6209ZM18.5174 54.1538C18.5409 54.1538 18.5552 54.158 18.5653 54.1622C18.5772 54.1672 18.5893 54.1751 18.5997 54.1854C18.6101 54.1957 18.6154 54.205 18.6176 54.2103C18.619 54.2134 18.6209 54.2183 18.6209 54.2307H24.6209C24.6209 50.8503 21.8639 48.1538 18.5174 48.1538V54.1538ZM6.10348 48.1538C2.75698 48.1538 0 50.8503 0 54.2307H6C6 54.2183 6.00191 54.2135 6.00327 54.2103C6.00552 54.205 6.01078 54.1957 6.02117 54.1854C6.03158 54.1751 6.04364 54.1672 6.05562 54.1622C6.06568 54.158 6.07997 54.1538 6.10348 54.1538V48.1538ZM24.5051 59.9955L29.2285 57.654L26.5636 52.2783L21.8402 54.6198L24.5051 59.9955ZM37.6115 55.6923H38.8842V49.6923H37.6115V55.6923ZM43.8172 56.3472L50.3405 58.111L51.9066 52.319L45.3834 50.5552L43.8172 56.3472ZM51.0782 60.801L47.44 64.408L51.6644 68.6688L55.3026 65.0618L51.0782 60.801ZM50.3405 58.111C51.5818 58.4467 51.9456 59.941 51.0782 60.801L55.3026 65.0618C59.4902 60.91 57.5622 53.8483 51.9066 52.319L50.3405 58.111ZM38.8842 55.6923C40.5508 55.6923 42.2098 55.9126 43.8172 56.3472L45.3834 50.5552C43.265 49.9824 41.0795 49.6923 38.8842 49.6923V55.6923ZM29.2285 57.654C31.8302 56.3643 34.7003 55.6923 37.6115 55.6923V49.6923C33.7775 49.6923 29.9951 50.5772 26.5636 52.2783L29.2285 57.654Z" fill="#0038FF"/>
<path id="Icon_2" d="M72.7687 20.0024C74.3419 19.4825 75.1958 17.7857 74.6759 16.2125C74.1559 14.6393 72.4592 13.7855 70.886 14.3054L72.7687 20.0024ZM48.5513 15.6154L48.8211 18.6033L48.8211 18.6033L48.5513 15.6154ZM34.5856 18.6923L33.279 15.9918L34.5856 18.6923ZM21.2411 30.7278L23.5645 32.6257L23.5645 32.6257L21.2411 30.7278ZM30.368 38.2584L28.2558 36.128L28.2558 36.128L30.368 38.2584ZM36.5138 32.1652L34.4017 30.0348L34.4017 30.0348L36.5138 32.1652ZM53.2065 32.4616C54.8633 32.4616 56.2065 31.1184 56.2065 29.4616C56.2065 27.8047 54.8633 26.4616 53.2065 26.4616L53.2065 32.4616ZM22.6601 39.0152L24.3143 36.5124L22.6601 39.0152ZM67.1039 41.0338L65.7715 38.346L65.7715 38.346L67.1039 41.0338ZM50.3997 42.5488L51.1828 39.6528L50.3997 42.5488ZM43.8765 40.7849L43.0934 43.681L43.8765 40.7849ZM41.8096 33.0686L43.9218 35.199L43.9218 35.199L41.8096 33.0686ZM47.56 31.592C48.7366 30.4255 48.7447 28.526 47.5782 27.3494C46.4117 26.1728 44.5122 26.1646 43.3356 27.3312L47.56 31.592ZM70.886 14.3054C70.3024 14.4983 69.2387 14.5923 67.5292 14.4715C65.8807 14.3549 63.9667 14.0696 61.8147 13.7345C57.6855 13.0915 52.6112 12.2365 48.2814 12.6276L48.8211 18.6033C52.25 18.2936 56.4861 18.977 60.8915 19.6631C63.0068 19.9925 65.1661 20.3194 67.106 20.4565C68.9849 20.5894 71.0248 20.5787 72.7687 20.0024L70.886 14.3054ZM48.2814 12.6276C42.2378 13.1734 39.4111 13.0249 33.279 15.9918L35.8922 21.3929C40.8679 18.9855 42.5558 19.1691 48.8211 18.6033L48.2814 12.6276ZM33.279 15.9918C27.7809 18.6519 22.2658 24.7314 18.9178 28.8298L23.5645 32.6257C26.9416 28.4916 31.7211 23.4109 35.8922 21.3929L33.279 15.9918ZM32.4802 40.3889L38.626 34.2956L34.4017 30.0348L28.2558 36.128L32.4802 40.3889ZM43.0973 32.4616L53.2065 32.4616L53.2065 26.4616L43.0973 26.4616L43.0973 32.4616ZM38.626 34.2956C39.8075 33.1242 41.4154 32.4616 43.0973 32.4616L43.0973 26.4616C39.8407 26.4616 36.7123 27.744 34.4017 30.0348L38.626 34.2956ZM21.0059 41.5179C24.611 43.9008 29.4098 43.433 32.4802 40.3889L28.2558 36.128C27.2082 37.1667 25.5547 37.3323 24.3143 36.5124L21.0059 41.5179ZM18.9178 28.8298C15.5592 32.9412 16.8194 38.7507 21.0059 41.5179L24.3143 36.5124C22.8392 35.5375 22.6405 33.7567 23.5645 32.6257L18.9178 28.8298ZM88.8965 41.8462L76.4826 41.8462L76.4826 47.8462L88.8965 47.8462L88.8965 41.8462ZM76.3791 41.7693L76.3791 14.077L70.3791 14.077L70.3791 41.7693L76.3791 41.7693ZM76.4826 14L88.8965 14L88.8965 8.00004L76.4826 8.00004L76.4826 14ZM89 14.077L89 41.7693L95 41.7693L95 14.077L89 14.077ZM88.8965 14C88.92 14 88.9343 14.0042 88.9444 14.0084C88.9564 14.0135 88.9684 14.0213 88.9788 14.0317C88.9892 14.042 88.9945 14.0512 88.9967 14.0565C88.9981 14.0597 89 14.0645 89 14.077L95 14.077C95 10.6965 92.243 8.00004 88.8965 8.00004L88.8965 14ZM76.3791 14.077C76.3791 14.0645 76.381 14.0597 76.3824 14.0565C76.3846 14.0512 76.3899 14.042 76.4003 14.0317C76.4107 14.0213 76.4228 14.0135 76.4347 14.0084C76.4448 14.0042 76.4591 14 76.4826 14L76.4826 8.00004C73.1361 8.00004 70.3791 10.6965 70.3791 14.077L76.3791 14.077ZM76.4826 41.8462C76.4591 41.8462 76.4448 41.842 76.4347 41.8378C76.4228 41.8328 76.4107 41.8249 76.4003 41.8146C76.3899 41.8043 76.3846 41.795 76.3824 41.7897C76.381 41.7865 76.3791 41.7817 76.3791 41.7693L70.3791 41.7693C70.3791 45.1497 73.1361 47.8462 76.4826 47.8462L76.4826 41.8462ZM88.8965 47.8462C92.243 47.8462 95 45.1497 95 41.7693L89 41.7693C89 41.7817 88.9981 41.7865 88.9967 41.7897C88.9945 41.795 88.9892 41.8043 88.9788 41.8146C88.9684 41.8249 88.9564 41.8328 88.9444 41.8378C88.9343 41.842 88.92 41.8462 88.8965 41.8462L88.8965 47.8462ZM70.4949 36.0045L65.7715 38.346L68.4364 43.7217L73.1598 41.3802L70.4949 36.0045ZM57.3885 40.3077L56.1158 40.3077L56.1158 46.3077L57.3885 46.3077L57.3885 40.3077ZM51.1828 39.6528L44.6595 37.8889L43.0934 43.681L49.6166 45.4448L51.1828 39.6528ZM43.9218 35.199L47.56 31.592L43.3356 27.3312L39.6974 30.9382L43.9218 35.199ZM44.6595 37.8889C43.4182 37.5533 43.0544 36.059 43.9218 35.199L39.6974 30.9382C35.5098 35.0899 37.4378 42.1517 43.0934 43.681L44.6595 37.8889ZM56.1158 40.3077C54.4492 40.3077 52.7902 40.0874 51.1828 39.6528L49.6166 45.4448C51.735 46.0176 53.9205 46.3077 56.1158 46.3077L56.1158 40.3077ZM65.7715 38.346C63.1698 39.6357 60.2997 40.3077 57.3885 40.3077L57.3885 46.3077C61.2225 46.3077 65.0049 45.4228 68.4364 43.7217L65.7715 38.346Z" fill="#0038FF"/>
</g>
</svg>
