<?xml version="1.0" encoding="utf-8"?>
<svg viewBox="0 0 160 40" xmlns="http://www.w3.org/2000/svg">
  <g fill="none" stroke="black" stroke-width="1" fill-rule="evenodd" stroke-linecap="square" stroke-linejoin="bevel">
    <g fill="#71767D" fill-opacity="1" stroke="#71767D" stroke-opacity="1" stroke-width="1" stroke-linecap="square" stroke-linejoin="miter" stroke-miterlimit="2" transform="matrix(1,0,0,1,0,0)"/>
    <g fill="#71767D" fill-opacity="1" stroke="#71767D" stroke-opacity="1" stroke-width="1" stroke-linecap="square" stroke-linejoin="miter" stroke-miterlimit="2" transform="matrix(1,0,0,1,0,0)"/>
    <g fill="#71767D" fill-opacity="1" stroke="#71767D" stroke-opacity="1" stroke-width="1" stroke-linecap="square" stroke-linejoin="miter" stroke-miterlimit="2" transform="matrix(1,0,0,1,0,0)"/>
    <g fill="#71767D" fill-opacity="1" stroke="#71767D" stroke-opacity="1" stroke-width="1" stroke-linecap="square" stroke-linejoin="miter" stroke-miterlimit="2" transform="matrix(1,0,0,1,0,0)"/>
    <g fill="#ffffff" fill-opacity="1" stroke="none" transform="matrix(1,0,0,1,0,0)">
      <path vector-effect="none" fill-rule="nonzero" d="M57.6322,21.2417 C54.9658,21.2417 52.304,20.2829 49.7269,19.3551 C47.1991,18.445 44.5818,17.5039 42.0182,17.5039 C40.1647,17.5039 38.4899,17.9878 36.8999,18.9866 L36.8999,23.2438 C38.4944,22.316 40.1737,21.8588 42.0182,21.8588 C44.689,21.8588 47.3554,22.8177 49.9324,23.7455 C52.4603,24.6555 55.073,25.5966 57.6322,25.5966 C59.7581,25.5966 61.6652,24.9485 63.4606,23.6212 L63.4606,19.3995 C61.6607,20.638 59.7492,21.2373 57.6322,21.2417 " style="fill: rgb(113, 118, 125);"/>
    </g>
    <g fill="#71767D" fill-opacity="1" stroke="#71767D" stroke-opacity="1" stroke-width="1" stroke-linecap="square" stroke-linejoin="miter" stroke-miterlimit="2" transform="matrix(1,0,0,1,0,0)"/>
    <g fill="#ffffff" fill-opacity="1" stroke="none" transform="matrix(1,0,0,1,0,0)">
      <path vector-effect="none" fill-rule="nonzero" d="M49.7269,10.9519 C47.1991,10.0418 44.5818,9.10071 42.0182,9.10071 C40.1647,9.10071 38.4899,9.58458 36.8999,10.5834 L36.8999,14.8451 C38.4944,13.9128 40.1737,13.46 42.0182,13.46 C44.689,13.46 47.3554,14.4189 49.9324,15.3467 C52.4603,16.2567 55.073,17.1978 57.6322,17.1978 C59.7537,17.1978 61.6652,16.5497 63.4606,15.2224 L63.4606,10.9963 C61.6607,12.2348 59.7492,12.8341 57.6322,12.8341 C54.9658,12.8385 52.304,11.8797 49.7269,10.9519 " style="fill: rgb(113, 118, 125);"/>
    </g>
    <g fill="#71767D" fill-opacity="1" stroke="#71767D" stroke-opacity="1" stroke-width="1" stroke-linecap="square" stroke-linejoin="miter" stroke-miterlimit="2" transform="matrix(1,0,0,1,0,0)"/>
    <g fill="#ffffff" fill-opacity="1" stroke="none" transform="matrix(1,0,0,1,0,0)">
      <path vector-effect="none" fill-rule="nonzero" d="M49.9324,32.1491 C52.4603,33.0591 55.073,34.0002 57.6322,34.0002 C59.7581,34.0002 61.6652,33.3521 63.4606,32.0248 L63.4606,27.8031 C61.6607,29.0416 59.7492,29.6409 57.6322,29.6409 C54.9658,29.6409 52.304,28.682 49.7269,27.7542 C47.1991,26.8442 44.5818,25.9031 42.0182,25.9031 C40.1647,25.9031 38.4899,26.387 36.8999,27.3858 L36.8999,31.643 C38.4944,30.7152 40.1737,30.258 42.0182,30.258 C44.689,30.2624 47.3509,31.2213 49.9324,32.1491 " style="fill: rgb(113, 118, 125);"/>
    </g>
    <g fill="#71767D" fill-opacity="1" stroke="#71767D" stroke-opacity="1" stroke-width="1" stroke-linecap="square" stroke-linejoin="miter" stroke-miterlimit="2" transform="matrix(1,0,0,1,0,0)"/>
    <g fill="#ffffff" fill-opacity="1" stroke="none" transform="matrix(1,0,0,1,0,0)">
      <path vector-effect="none" fill-rule="nonzero" d="M125.859,12.9315 C124.045,11.2712 121.656,10.4632 118.552,10.4632 C115.443,10.4632 113.054,11.2712 111.245,12.9315 C108.396,15.5373 108.07,19.0931 108.07,21.5391 C108.07,23.9851 108.4,27.5409 111.245,30.1468 C113.058,31.807 115.448,32.615 118.552,32.615 C121.656,32.615 124.045,31.807 125.859,30.1468 C128.699,27.5409 129.03,23.9851 129.03,21.5391 C129.03,19.0931 128.699,15.5417 125.859,12.9315 M123.014,23.2482 C123.014,24.3047 123.018,26.076 121.727,27.3101 C120.977,28.0115 119.834,28.4465 118.744,28.4465 C117.65,28.4465 116.506,28.0115 115.756,27.3101 C114.47,26.076 114.47,24.3092 114.474,23.2526 L114.474,19.4394 C114.47,18.3828 114.47,16.616 115.756,15.3819 C116.506,14.6805 117.65,14.2499 118.744,14.2499 C119.838,14.2499 120.982,14.6849 121.727,15.3819 C123.018,16.6204 123.014,18.3917 123.014,19.4482 L123.014,23.2482 M97.7079,31.8958 L97.7079,15.2665 L95.3855,10.8006 L103.568,10.8006 L103.568,31.9002 L97.7079,31.9002 L97.7079,31.8958 M140.919,14.9868 C140.392,15.2665 139.753,15.7282 139.329,16.07 L139.217,16.1588 L139.217,31.8958 L133.357,31.8958 L133.357,14.9913 L131.048,10.7962 L138.114,10.7962 L138.114,13.0691 L138.61,12.6074 C139.387,11.8838 140.11,11.3999 140.963,11.0359 C142.16,10.481 143.192,10.2768 144.769,10.2768 C147.413,10.2768 149.382,10.9249 150.794,12.2611 C152.996,14.3254 152.996,16.9667 152.996,18.5471 L152.996,31.9047 L147.136,31.9047 L147.136,18.0144 C147.136,17.091 147.136,16.0433 146.198,15.1644 C145.559,14.574 144.612,14.2499 143.527,14.2499 C142.451,14.2499 141.571,14.645 140.919,14.9868 M24.1445,14.2055 C22.7108,14.2055 21.5451,15.0401 20.6876,15.7681 L20.5849,15.8569 L20.5849,31.9002 L14.7252,31.9002 L14.7252,17.4817 C14.7252,16.9978 14.7252,15.8702 13.8945,15.0445 C13.3853,14.4941 12.6395,14.2011 11.7328,14.2011 C10.3036,14.2011 9.13346,15.0356 8.27594,15.7637 L8.17322,15.8525 L8.17322,31.8958 L2.31351,31.8958 L2.31351,14.9913 L0,10.7962 L7.06559,10.7962 L7.06559,13.0158 L8.03477,12.2256 C9.62921,10.916 11.505,10.2768 13.765,10.2768 C15.9891,10.2768 17.6416,11.0093 18.9681,12.5852 L19.1914,12.8515 L19.4192,12.5852 C20.7457,11.0315 22.5054,10.2768 24.8055,10.2768 C28.5393,10.2768 32.9921,11.6485 32.9921,18.1919 L32.9921,31.9002 L27.1324,31.9002 L27.1324,17.4817 C27.1324,16.9578 27.1324,15.8613 26.3062,15.0445 C25.7925,14.4941 25.0467,14.2055 24.1445,14.2055 M83.7375,14.4008 L79.3204,16.4384 C78.8247,15.4751 77.8644,14.9113 76.6987,14.9113 C75.7072,14.9113 74.7738,15.3242 74.2602,15.9812 C73.6572,16.7092 73.3535,17.8812 73.3535,19.4615 L73.3535,31.8958 L67.4983,31.8958 L67.4983,10.7962 L72.3844,10.7962 L72.3844,14.0812 L73.4027,12.6917 C73.8046,12.1235 75.3544,10.2724 78.4584,10.2724 C79.0658,10.2724 80.9104,10.2724 82.1654,11.2179 C82.755,11.6752 83.7152,12.6784 83.7375,14.4008 M103.568,4.51469 C103.568,6.46795 102.027,7.99504 100.062,7.99504 C98.0965,7.99504 96.5556,6.46351 96.5556,4.51469 C96.5556,2.56143 98.0965,1.03434 100.062,1.03434 C102.031,1.03434 103.568,2.56143 103.568,4.51469 M91.5133,0 L91.5133,31.8958 L85.6536,31.8958 L85.6536,0 L91.5133,0" style="fill: rgb(113, 118, 125);"/>
    </g>
    <g fill="#71767D" fill-opacity="1" stroke="#71767D" stroke-opacity="1" stroke-width="1" stroke-linecap="square" stroke-linejoin="miter" stroke-miterlimit="2" transform="matrix(1,0,0,1,0,0)"/>
    <g fill="#71767D" fill-opacity="1" stroke="#71767D" stroke-opacity="1" stroke-width="1" stroke-linecap="square" stroke-linejoin="miter" stroke-miterlimit="2" transform="matrix(1,0,0,1,0,0)"/>
    <g fill="#71767D" fill-opacity="1" stroke="#71767D" stroke-opacity="1" stroke-width="1" stroke-linecap="square" stroke-linejoin="miter" stroke-miterlimit="2" transform="matrix(1,0,0,1,0,0)"/>
    <g fill="#71767D" fill-opacity="1" stroke="#71767D" stroke-opacity="1" stroke-width="1" stroke-linecap="square" stroke-linejoin="miter" stroke-miterlimit="2" transform="matrix(1,0,0,1,0,0)"/>
    <g fill="#71767D" fill-opacity="1" stroke="#71767D" stroke-opacity="1" stroke-width="1" stroke-linecap="square" stroke-linejoin="miter" stroke-miterlimit="2" transform="matrix(1,0,0,1,0,0)"/>
    <g fill="#71767D" fill-opacity="1" stroke="#71767D" stroke-opacity="1" stroke-width="1" stroke-linecap="square" stroke-linejoin="miter" stroke-miterlimit="2" transform="matrix(1,0,0,1,0,0)"/>
    <g fill="#71767D" fill-opacity="1" stroke="#71767D" stroke-opacity="1" stroke-width="1" stroke-linecap="square" stroke-linejoin="miter" stroke-miterlimit="2" transform="matrix(1,0,0,1,0,0)"/>
    <g fill="#71767D" fill-opacity="1" stroke="#71767D" stroke-opacity="1" stroke-width="1" stroke-linecap="square" stroke-linejoin="miter" stroke-miterlimit="2" transform="matrix(1,0,0,1,0,0)"/>
    <g fill="#71767D" fill-opacity="1" stroke="#71767D" stroke-opacity="1" stroke-width="1" stroke-linecap="square" stroke-linejoin="miter" stroke-miterlimit="2" transform="matrix(1,0,0,1,0,0)"/>
    <g fill="#71767D" fill-opacity="1" stroke="#71767D" stroke-opacity="1" stroke-width="1" stroke-linecap="square" stroke-linejoin="miter" stroke-miterlimit="2" transform="matrix(1,0,0,1,0,0)"/>
    <g fill="#71767D" fill-opacity="1" stroke="#71767D" stroke-opacity="1" stroke-width="1" stroke-linecap="square" stroke-linejoin="miter" stroke-miterlimit="2" transform="matrix(1,0,0,1,0,0)"/>
    <g fill="#71767D" fill-opacity="1" stroke="#71767D" stroke-opacity="1" stroke-width="1" stroke-linecap="square" stroke-linejoin="miter" stroke-miterlimit="2" transform="matrix(1,0,0,1,0,0)"/>
    <g fill="#71767D" fill-opacity="1" stroke="#71767D" stroke-opacity="1" stroke-width="1" stroke-linecap="square" stroke-linejoin="miter" stroke-miterlimit="2" transform="matrix(1,0,0,1,0,0)"/>
  </g>
</svg>