<svg width="96" height="96" viewBox="0 0 96 96" fill="none" xmlns="http://www.w3.org/2000/svg">
<g id="currency-coin-rubel">
<path id="Icon" d="M37.3087 67.2V28.8H55.636C58.0663 28.8 60.3971 29.6669 62.1156 31.2101C63.8341 32.7532 64.7996 34.8462 64.7996 37.0286C64.7996 39.2109 63.8341 41.3039 62.1156 42.847C60.3971 44.3902 58.0663 45.2571 55.636 45.2571H31.1996M55.636 56.2286H31.1996M86.3996 48C86.3996 69.2077 69.2073 86.4 47.9996 86.4C26.7919 86.4 9.59961 69.2077 9.59961 48C9.59961 26.7922 26.7919 9.59998 47.9996 9.59998C69.2073 9.59998 86.3996 26.7922 86.3996 48Z" stroke="#0038FF" stroke-width="6" stroke-linecap="round" stroke-linejoin="round"/>
</g>
</svg>
