<svg width="22" height="18" viewBox="0 0 22 18" fill="none" xmlns="http://www.w3.org/2000/svg">
<path id="Vector" d="M1.95414 7.83904C1.95414 7.83904 11.2418 3.88771 14.4629 2.49634C15.6977 1.93984 19.8852 0.158893 19.8852 0.158893C19.8852 0.158893 21.8179 -0.620205 21.6568 1.27197C21.6031 2.05114 21.1737 4.77811 20.7442 7.72774C20.0999 11.9018 19.402 16.4653 19.402 16.4653C19.402 16.4653 19.2947 17.7453 18.382 17.9679C17.4694 18.1905 15.9661 17.1888 15.6977 16.9662C15.4829 16.7993 11.6713 14.2948 10.2754 13.0704C9.89963 12.7365 9.47017 12.0687 10.3291 11.2896C12.2618 9.45301 14.5703 7.17125 15.9661 5.72427C16.6104 5.05639 17.2546 3.49812 14.5703 5.39029C10.7586 8.11733 7.00062 10.6774 7.00062 10.6774C7.00062 10.6774 6.14162 11.2339 4.53106 10.733C2.92043 10.2322 1.04143 9.56431 1.04143 9.56431C1.04143 9.56431 -0.24696 8.72952 1.95414 7.83904Z" fill="black"/>
</svg>
