<svg width="25" height="24" viewBox="0 0 25 24" fill="none" xmlns="http://www.w3.org/2000/svg">
<g id="Frame 44">
<g id="Vector">
<path d="M0.666382 24L2.38972 17.6031C0.99989 15.1112 0.558329 12.2033 1.14606 9.41309C1.73379 6.62288 3.31139 4.13748 5.58937 2.41298C7.86734 0.68848 10.6929 -0.159455 13.5475 0.0247736C16.4022 0.209002 19.0944 1.41304 21.1302 3.41594C23.166 5.41883 24.4088 8.08625 24.6306 10.9287C24.8524 13.7712 24.0382 16.598 22.3375 18.8905C20.6369 21.1829 18.1637 22.7873 15.372 23.4091C12.5802 24.0309 9.65714 23.6285 7.13907 22.2757L0.666382 24ZM7.45117 19.8819L7.85147 20.1186C9.67536 21.196 11.8056 21.6419 13.9103 21.3867C16.015 21.1315 17.9759 20.1896 19.4874 18.7077C20.9989 17.2258 21.976 15.2873 22.2667 13.1941C22.5573 11.101 22.145 8.97078 21.094 7.13553C20.0431 5.30028 18.4126 3.86306 16.4565 3.04784C14.5004 2.23262 12.3287 2.0852 10.2798 2.62854C8.23086 3.17188 6.41982 4.37546 5.1289 6.05173C3.83798 7.728 3.13968 9.78279 3.14283 11.8959C3.14111 13.648 3.6273 15.3662 4.54728 16.8593L4.79832 17.2717L3.83488 20.8421L7.45117 19.8819Z" fill="black"/>
<path fill-rule="evenodd" clip-rule="evenodd" d="M17.1004 13.8367C16.8642 13.6481 16.5878 13.5153 16.292 13.4485C15.9962 13.3817 15.6889 13.3827 15.3936 13.4513C14.9498 13.6339 14.6631 14.3236 14.3763 14.6685C14.3159 14.7511 14.227 14.8091 14.1265 14.8315C14.0259 14.8539 13.9206 14.8392 13.8302 14.7902C12.2055 14.1599 10.8437 13.0041 9.966 11.5106C9.89114 11.4174 9.85571 11.299 9.86717 11.1805C9.87863 11.0619 9.93609 10.9524 10.0274 10.8749C10.3473 10.5614 10.5821 10.173 10.7102 9.74567C10.7386 9.27437 10.6296 8.8049 10.3961 8.39326C10.2156 7.81616 9.87211 7.30229 9.40618 6.91237C9.16586 6.80531 8.89941 6.76942 8.63895 6.80901C8.3785 6.84861 8.13518 6.962 7.93834 7.13552C7.59662 7.42753 7.32539 7.79175 7.14461 8.20134C6.96383 8.61094 6.87812 9.05549 6.89379 9.50224C6.89484 9.75312 6.92694 10.0029 6.98937 10.2461C7.1479 10.8302 7.3917 11.3884 7.71304 11.9028C7.94489 12.2968 8.19786 12.6783 8.47086 13.0456C9.35808 14.2519 10.4733 15.2761 11.7547 16.0614C12.3977 16.4605 13.085 16.785 13.8029 17.0284C14.5486 17.3632 15.372 17.4918 16.1855 17.4003C16.6491 17.3308 17.0883 17.1496 17.4645 16.8725C17.8407 16.5954 18.1423 16.2309 18.3429 15.8112C18.4608 15.5577 18.4966 15.2743 18.4453 14.9998C18.3224 14.4385 17.5646 14.1072 17.1004 13.8367Z" fill="black"/>
</g>
</g>
</svg>
