<svg width="620" height="716" viewBox="0 0 620 716" fill="none" xmlns="http://www.w3.org/2000/svg">
<path d="M553.729 308.114C496.216 206.269 340.208 242.539 308.348 193.007C292.028 167.68 273.774 138.241 247.295 122.955C222.054 108.315 192.79 103.179 167.279 105.106C76.1711 111.999 37.5497 196.277 55.0491 288.826C78.4131 412.278 184.259 538.389 310 539.268C375.773 539.78 438.62 515.38 487.826 481.061L488.923 480.293C538.129 445.657 597.648 385.865 553.729 308.114Z" fill="#0038FF"/>
<path d="M553.729 308.114C496.216 206.269 340.208 242.539 308.348 193.007C292.028 167.68 273.774 138.241 247.295 122.955C222.054 108.315 192.79 103.179 167.279 105.106C76.1711 111.999 37.5497 196.277 55.0491 288.826C78.4131 412.278 184.259 538.389 310 539.268C375.773 539.78 438.62 515.38 487.826 481.061L488.923 480.293C538.129 445.657 597.648 385.865 553.729 308.114Z" fill="#034AFF"/>
<path d="M107.265 315.52H100.869C94.006 315.52 87.424 318.338 82.571 323.356C77.7181 328.373 74.9917 335.178 74.9917 342.274V489.089C74.9917 496.185 77.7181 502.99 82.571 508.007C87.424 513.025 94.006 515.844 100.869 515.844H188.614C195.477 515.844 202.059 513.025 206.912 508.007C211.765 502.99 214.491 496.185 214.491 489.089" stroke="#263238" stroke-width="1.34579" stroke-linecap="round" stroke-linejoin="round" stroke-dasharray="5.38 5.38"/>
<path d="M207.34 176.988V147.989C207.34 143.65 209.005 139.488 211.969 136.416C214.934 133.345 218.955 131.614 223.152 131.604H337.258C341.461 131.604 345.492 133.331 348.464 136.403C351.436 139.476 353.106 143.644 353.106 147.989" stroke="#263238" stroke-width="1.34579" stroke-linecap="round" stroke-linejoin="round" stroke-dasharray="5.38 5.38"/>
<path d="M310 629.035C434.813 629.035 535.993 614.419 535.993 596.388C535.993 578.357 434.813 563.741 310 563.741C185.187 563.741 84.0062 578.357 84.0062 596.388C84.0062 614.419 185.187 629.035 310 629.035Z" fill="#0038FF"/>
<path d="M310 629.035C434.813 629.035 535.993 614.419 535.993 596.388C535.993 578.357 434.813 563.741 310 563.741C185.187 563.741 84.0062 578.357 84.0062 596.388C84.0062 614.419 185.187 629.035 310 629.035Z" fill="#0027B2"/>
<path d="M523.037 215.894V435.567C523.037 442.748 520.279 449.636 515.369 454.714C510.459 459.793 503.799 462.648 496.853 462.651H123.147C116.202 462.648 109.542 459.793 104.631 454.714C99.7212 449.636 96.9629 442.748 96.9629 435.567V215.894C96.9629 215.248 96.9629 214.674 97.0455 213.991C97.5055 207.158 100.455 200.759 105.299 196.085C110.143 191.412 116.522 188.812 123.147 188.81H496.853C503.486 188.813 509.871 191.42 514.716 196.103C519.561 200.787 522.506 207.198 522.955 214.04C523.014 214.626 523.037 215.26 523.037 215.894Z" fill="white" stroke="#263238" stroke-width="1.34579" stroke-linecap="round" stroke-linejoin="round"/>
<path d="M109.707 224.142H511.627V427.064C511.627 433.794 509.041 440.249 504.438 445.008C499.835 449.767 493.592 452.44 487.083 452.44H134.263C127.753 452.44 121.51 449.767 116.907 445.008C112.304 440.249 109.719 433.794 109.719 427.064V224.142H109.707Z" fill="#263238"/>
<path opacity="0.2" d="M511.639 224.142V427.064C511.673 433.757 509.136 440.189 504.584 444.948C500.032 449.707 493.839 452.401 487.366 452.44H133.98C127.507 452.401 121.314 449.707 116.762 444.948C112.21 440.189 109.673 433.757 109.707 427.064V224.142H511.639Z" fill="white"/>
<path d="M522.955 214.04H97.0454C97.5054 207.206 100.455 200.808 105.299 196.134C110.143 191.461 116.522 188.861 123.147 188.859H496.853C503.479 188.861 509.857 191.461 514.701 196.134C519.545 200.808 522.495 207.206 522.955 214.04Z" fill="#0038FF" stroke="#263238" stroke-width="1.34579" stroke-miterlimit="10"/>
<path d="M149.379 201.401C149.379 202.349 149.107 203.276 148.597 204.065C148.087 204.853 147.363 205.468 146.516 205.83C145.668 206.193 144.736 206.288 143.836 206.103C142.937 205.918 142.111 205.462 141.462 204.791C140.813 204.121 140.372 203.266 140.193 202.336C140.014 201.406 140.106 200.442 140.457 199.566C140.808 198.69 141.402 197.941 142.165 197.414C142.927 196.887 143.824 196.606 144.741 196.606C145.971 196.606 147.151 197.111 148.02 198.011C148.89 198.91 149.379 200.129 149.379 201.401Z" fill="#263238"/>
<path d="M168.99 201.401C168.99 202.349 168.718 203.276 168.208 204.065C167.699 204.853 166.975 205.468 166.127 205.83C165.28 206.193 164.347 206.288 163.448 206.103C162.548 205.918 161.722 205.462 161.073 204.791C160.425 204.121 159.983 203.266 159.804 202.336C159.625 201.406 159.717 200.442 160.068 199.566C160.419 198.69 161.014 197.941 161.776 197.414C162.539 196.887 163.435 196.606 164.353 196.606C165.583 196.606 166.762 197.111 167.632 198.011C168.501 198.91 168.99 200.129 168.99 201.401Z" fill="#263238"/>
<path d="M183.964 206.195C186.525 206.195 188.601 204.049 188.601 201.401C188.601 198.753 186.525 196.606 183.964 196.606C181.403 196.606 179.327 198.753 179.327 201.401C179.327 204.049 181.403 206.195 183.964 206.195Z" fill="#263238"/>
<path d="M511.627 224.142V427.064C511.627 433.794 509.041 440.249 504.438 445.008C499.835 449.767 493.592 452.44 487.083 452.44H134.263C128.581 452.439 123.076 450.4 118.687 446.672C114.297 442.943 111.294 437.755 110.191 431.993V431.92C109.891 430.312 109.741 428.678 109.742 427.04V224.142H511.627Z" stroke="#263238" stroke-width="1.34579" stroke-miterlimit="10"/>
<path d="M511.249 255.52C509.529 254.521 507.698 253.739 505.798 253.19L503.591 243.003H494.222L492.039 253.19C490.127 253.729 488.288 254.511 486.564 255.52L478.103 249.92L471.483 256.74L476.805 265.487C475.831 267.271 475.074 269.172 474.551 271.148L464.698 273.405V283.092L474.551 285.373C475.068 287.359 475.825 289.269 476.805 291.058L471.389 299.867L478.02 306.711L486.528 301.111C488.249 302.121 490.084 302.908 491.992 303.454L494.186 313.628H503.52L505.715 303.454C507.617 302.903 509.447 302.116 511.167 301.111L511.603 301.404V255.276L511.249 255.52ZM498.93 290.9C496.535 290.9 494.194 290.165 492.203 288.79C490.211 287.414 488.66 285.458 487.744 283.17C486.828 280.882 486.589 278.365 487.057 275.936C487.525 273.508 488.679 271.277 490.373 269.527C492.068 267.777 494.226 266.586 496.575 266.104C498.925 265.623 501.359 265.873 503.571 266.822C505.783 267.771 507.673 269.377 509.002 271.437C510.331 273.497 511.039 275.919 511.037 278.395C511.037 280.038 510.724 281.665 510.115 283.183C509.506 284.701 508.615 286.08 507.49 287.242C506.366 288.403 505.031 289.324 503.562 289.952C502.093 290.579 500.519 290.901 498.93 290.9Z" fill="#263238"/>
<path d="M342.391 265.341V244.918L321.623 240.148C320.503 235.999 318.919 231.999 316.903 228.229L319.417 224.142H221.359L223.778 228.119C221.738 231.873 220.152 235.872 219.058 240.026L198.278 244.808V265.28L219.058 270.075C220.153 274.26 221.738 278.291 223.778 282.079L212.367 300.636L226.35 315.08L244.286 303.271C247.925 305.387 251.795 307.046 255.815 308.212L260.44 329.623H280.146L284.796 308.163C288.802 306.991 292.66 305.333 296.289 303.222L314.237 315.032L328.208 300.587L316.868 282.031C318.878 278.266 320.462 274.275 321.588 270.136L342.391 265.341ZM270.411 281.518C265.363 281.518 260.429 279.971 256.231 277.071C252.034 274.171 248.763 270.05 246.831 265.228C244.899 260.406 244.394 255.1 245.378 249.981C246.363 244.863 248.794 240.161 252.364 236.47C255.933 232.78 260.481 230.266 265.432 229.248C270.383 228.23 275.515 228.752 280.179 230.75C284.843 232.747 288.829 236.129 291.633 240.469C294.438 244.808 295.935 249.91 295.935 255.13C295.936 258.595 295.277 262.028 293.995 265.23C292.713 268.432 290.833 271.342 288.463 273.793C286.092 276.243 283.278 278.187 280.181 279.513C277.083 280.838 273.764 281.52 270.411 281.518Z" fill="#263238"/>
<path d="M211.328 405.58L212.166 389.366L195.918 384.632C195.163 381.3 194.047 378.067 192.59 374.994L202.408 360.745L191.882 348.679L177.179 357.219C174.369 355.391 171.363 353.905 168.223 352.79L165.415 335.564L149.744 334.82L145.213 351.668C141.985 352.417 138.855 353.563 135.891 355.084L122.12 344.946L110.427 355.816L118.757 371.029C116.971 373.922 115.529 377.027 114.462 380.277L109.742 381.082V403.042L113.188 404.043C113.903 407.385 115.008 410.626 116.48 413.693L109.707 423.514L110.155 431.92V431.993L117.153 440.008L131.879 431.407C134.684 433.273 137.7 434.776 140.859 435.885L143.62 452.428L143.75 453.123L159.42 453.977L159.833 452.428L163.951 437.141C167.194 436.39 170.34 435.244 173.321 433.725L187.068 443.851L198.75 432.993L190.49 417.768C192.259 414.878 193.682 411.777 194.726 408.532L211.328 405.58ZM169.71 380.265C167.026 377.178 163.516 374.983 159.625 373.959C155.734 372.935 151.637 373.126 147.852 374.51C144.067 375.894 140.763 378.407 138.36 381.732C135.956 385.057 134.56 389.044 134.349 393.189C134.137 397.335 135.12 401.452 137.172 405.02C139.224 408.587 142.254 411.446 145.877 413.233C149.501 415.021 153.556 415.657 157.529 415.061C161.503 414.465 165.216 412.664 168.199 409.886C172.183 406.166 174.578 400.965 174.861 395.422C175.144 389.88 173.292 384.447 169.71 380.314V380.265Z" fill="#263238"/>
<path d="M336.668 381.412C337.274 378.901 337.595 376.326 337.624 373.738L348.893 367.638L345.778 355.816L333.057 356.426C331.769 354.217 330.236 352.17 328.491 350.326L332.255 337.748L321.989 331.648L313.398 341.335C310.974 340.73 308.493 340.402 306 340.359L300.1 328.708L288.677 331.916L289.279 345.08C287.142 346.412 285.162 347.996 283.379 349.802L271.202 345.91L265.302 356.512L274.742 365.381C274.131 367.882 273.818 370.451 273.809 373.03L262.517 379.13L265.632 390.94L278.376 390.318C279.639 392.538 281.165 394.588 282.919 396.418L279.131 408.935L289.409 415.035L297.952 405.421C300.379 406.053 302.872 406.377 305.374 406.385L311.274 418.048L322.697 414.84L322.189 403.591L322.107 401.664C324.274 400.345 326.279 398.759 328.078 396.942L340.243 400.846L345.27 391.77L346.12 390.232L336.668 381.412ZM309.681 388.585C306.752 389.421 303.649 389.338 300.765 388.347C297.882 387.356 295.348 385.502 293.485 383.021C291.622 380.539 290.514 377.541 290.301 374.407C290.088 371.273 290.78 368.145 292.289 365.418C293.799 362.691 296.057 360.49 298.779 359.092C301.5 357.694 304.561 357.164 307.575 357.568C310.588 357.971 313.418 359.291 315.704 361.36C317.991 363.429 319.632 366.153 320.419 369.187C321.468 373.231 320.928 377.54 318.917 381.174C316.905 384.808 313.585 387.472 309.681 388.585Z" fill="#263238"/>
<path d="M467.318 402.2L469.914 385.974L454.031 379.374C453.67 375.916 452.906 372.516 451.753 369.248L463.188 356.084L453.936 342.664L438.172 349.582C435.554 347.413 432.694 345.578 429.652 344.116L428.732 326.438L413.038 323.754L406.607 340.102C403.276 340.507 400.002 341.305 396.848 342.481L384.08 330.66L371.159 340.224L377.862 356.511C376.017 358.892 374.416 361.464 373.083 364.185C372.906 364.563 372.717 364.942 372.552 365.32L355.465 366.296L352.858 382.497L355.43 383.571L368.74 389.122C369.104 392.564 369.868 395.947 371.018 399.199L359.56 412.448L368.823 425.868L384.576 418.914C387.185 421.103 390.042 422.955 393.084 424.429L393.969 442.021L409.651 444.705L416.07 428.479C419.408 428.102 422.689 427.307 425.841 426.112L438.585 437.934L451.565 428.357L444.862 412.058C446.997 409.349 448.801 406.379 450.231 403.213L467.318 402.2ZM423.304 401.468C420.002 403.918 416.072 405.299 412.011 405.439C407.95 405.579 403.94 404.47 400.488 402.253C397.036 400.037 394.298 396.811 392.619 392.985C390.94 389.159 390.396 384.905 391.057 380.759C391.717 376.614 393.552 372.764 396.328 369.697C399.105 366.629 402.699 364.482 406.656 363.527C410.613 362.572 414.755 362.851 418.559 364.33C422.362 365.808 425.656 368.42 428.024 371.835C431.195 376.415 432.477 382.11 431.588 387.667C430.698 393.225 427.71 398.189 423.28 401.468H423.304Z" fill="#263238"/>
<path d="M254.634 282.079H131.23C122.686 282.079 115.76 289.24 115.76 298.074V474.717C115.76 483.551 122.686 490.712 131.23 490.712H254.634C263.178 490.712 270.104 483.551 270.104 474.717V298.074C270.104 289.24 263.178 282.079 254.634 282.079Z" fill="#0038FF" stroke="#263238" stroke-width="1.34579" stroke-miterlimit="10"/>
<path opacity="0.2" d="M254.634 282.079H131.23C122.686 282.079 115.76 289.24 115.76 298.074V474.717C115.76 483.551 122.686 490.712 131.23 490.712H254.634C263.178 490.712 270.104 483.551 270.104 474.717V298.074C270.104 289.24 263.178 282.079 254.634 282.079Z" fill="black"/>
<path d="M284.464 313.836V490.48C284.466 492.581 284.067 494.662 283.29 496.604C282.514 498.546 281.374 500.311 279.938 501.797C278.501 503.284 276.795 504.463 274.917 505.268C273.04 506.072 271.027 506.486 268.995 506.486H145.59C143.559 506.485 141.547 506.069 139.671 505.264C137.795 504.459 136.09 503.279 134.655 501.793C133.219 500.307 132.081 498.543 131.305 496.601C130.529 494.66 130.131 492.58 130.132 490.48V313.836C130.132 309.596 131.76 305.53 134.659 302.531C137.558 299.532 141.489 297.845 145.59 297.842H268.995C273.097 297.842 277.032 299.527 279.933 302.526C282.835 305.526 284.464 309.594 284.464 313.836Z" fill="white" stroke="#263238" stroke-width="1.34579" stroke-linecap="round" stroke-linejoin="round"/>
<path d="M284.464 313.836V323.291H130.132V313.836C130.132 309.596 131.76 305.53 134.659 302.531C137.558 299.532 141.489 297.845 145.59 297.842H268.995C273.097 297.842 277.032 299.527 279.933 302.526C282.835 305.526 284.464 309.594 284.464 313.836Z" fill="#0038FF" stroke="#263238" stroke-width="1.34579" stroke-miterlimit="10"/>
<path d="M182.619 334.247H144.646V340.835H182.619V334.247Z" fill="#0038FF"/>
<path d="M182.619 393.282H144.646V399.87H182.619V393.282Z" fill="#0038FF"/>
<path d="M182.619 446.816H144.646V453.404H182.619V446.816Z" fill="#0038FF"/>
<path d="M252.486 350.558H144.646V355.389H252.486V350.558Z" fill="#263238"/>
<path d="M233.04 359.793H144.646V364.503H233.04V359.793Z" fill="#263238"/>
<path d="M244.616 368.882H144.646V373.592H244.616V368.882Z" fill="#263238"/>
<path d="M244.616 377.959H144.646V382.668H244.616V377.959Z" fill="#263238"/>
<path d="M252.486 404.092H144.646V408.923H252.486V404.092Z" fill="#263238"/>
<path d="M233.04 413.327H144.646V418.036H233.04V413.327Z" fill="#263238"/>
<path d="M244.616 422.416H144.646V427.125H244.616V422.416Z" fill="#263238"/>
<path d="M252.486 462.871H144.646V467.702H252.486V462.871Z" fill="#263238"/>
<path d="M233.04 472.119H144.646V476.828H233.04V472.119Z" fill="#263238"/>
<path d="M244.616 481.208H144.646V485.917H244.616V481.208Z" fill="#263238"/>
<path d="M458.408 175.354V246.748C458.408 249.253 457.931 251.734 457.003 254.048C456.076 256.363 454.716 258.465 453.002 260.236C451.288 262.007 449.254 263.411 447.015 264.369C444.776 265.326 442.376 265.818 439.953 265.817H280.913C278.49 265.818 276.09 265.326 273.851 264.369C271.612 263.411 269.578 262.007 267.864 260.236C266.15 258.465 264.79 256.363 263.863 254.048C262.935 251.734 262.458 249.253 262.458 246.748V175.354C262.461 170.294 264.406 165.443 267.866 161.865C271.327 158.288 276.019 156.276 280.913 156.273H439.953C444.848 156.273 449.542 158.283 453.003 161.862C456.464 165.44 458.408 170.293 458.408 175.354Z" fill="white" stroke="#222221" stroke-width="1.34579" stroke-miterlimit="10"/>
<path d="M458.408 175.354V176.989H262.458V175.354C262.461 170.294 264.406 165.443 267.866 161.865C271.327 158.288 276.019 156.276 280.913 156.273H439.953C444.848 156.273 449.542 158.283 453.003 161.862C456.464 165.44 458.408 170.293 458.408 175.354Z" fill="#0038FF" stroke="#263238" stroke-width="1.34579" stroke-miterlimit="10"/>
<path d="M291.249 170.047C290.854 170.457 290.349 170.736 289.799 170.85C289.25 170.964 288.68 170.906 288.162 170.685C287.644 170.463 287.202 170.088 286.89 169.606C286.579 169.125 286.412 168.558 286.412 167.979C286.412 167.399 286.579 166.833 286.89 166.351C287.202 165.87 287.644 165.494 288.162 165.273C288.68 165.052 289.25 164.994 289.799 165.108C290.349 165.221 290.854 165.501 291.249 165.911C291.776 166.461 292.072 167.204 292.072 167.979C292.072 168.753 291.776 169.496 291.249 170.047Z" fill="#263238"/>
<path d="M304.371 170.047C303.975 170.457 303.471 170.736 302.921 170.85C302.372 170.964 301.802 170.906 301.284 170.685C300.766 170.463 300.324 170.088 300.012 169.606C299.701 169.125 299.534 168.558 299.534 167.979C299.534 167.399 299.701 166.833 300.012 166.351C300.324 165.87 300.766 165.494 301.284 165.273C301.802 165.052 302.372 164.994 302.921 165.108C303.471 165.221 303.975 165.501 304.371 165.911C304.898 166.461 305.193 167.204 305.193 167.979C305.193 168.753 304.898 169.496 304.371 170.047Z" fill="#263238"/>
<path d="M317.493 170.047C317.097 170.457 316.592 170.736 316.043 170.85C315.493 170.964 314.923 170.906 314.406 170.685C313.888 170.463 313.445 170.088 313.134 169.606C312.822 169.125 312.656 168.558 312.656 167.979C312.656 167.399 312.822 166.833 313.134 166.351C313.445 165.87 313.888 165.494 314.406 165.273C314.923 165.052 315.493 164.994 316.043 165.108C316.592 165.221 317.097 165.501 317.493 165.911C318.019 166.461 318.315 167.204 318.315 167.979C318.315 168.753 318.019 169.496 317.493 170.047Z" fill="#263238"/>
<path d="M339.004 190.116H274.954V247.358H339.004V190.116Z" stroke="#263238" stroke-width="1.34579" stroke-linecap="round" stroke-linejoin="round" stroke-dasharray="5.38 5.38"/>
<path d="M422.607 190.116H348.893V194.142H422.607V190.116Z" fill="#263238"/>
<path d="M405.438 198.448H348.893V202.462H405.438V198.448Z" fill="#263238"/>
<path d="M433.086 206.744H348.893V210.807H433.086V206.744Z" fill="#263238"/>
<path d="M420.589 214.833H348.893V218.896H420.589V214.833Z" fill="#263238"/>
<path d="M463.765 352.547H427.716C423.461 352.547 420.011 356.113 420.011 360.513V382.388C420.011 386.788 423.461 390.354 427.716 390.354H463.765C468.021 390.354 471.471 386.788 471.471 382.388V360.513C471.471 356.113 468.021 352.547 463.765 352.547Z" fill="white" stroke="#263238" stroke-width="1.34579" stroke-linecap="round" stroke-linejoin="round"/>
<path d="M436.614 363.917L426.713 370.334L435.906 378.752" stroke="#263238" stroke-width="1.34579" stroke-linecap="round" stroke-linejoin="round"/>
<path d="M454.644 379.362L463.541 371.53L453.275 364.576" stroke="#263238" stroke-width="1.34579" stroke-linecap="round" stroke-linejoin="round"/>
<path d="M441.428 384.193L448.732 360.501" stroke="#263238" stroke-width="1.34579" stroke-linecap="round" stroke-linejoin="round"/>
<path d="M365.295 590.373C365.295 590.373 331.075 600.511 326.296 602.268C321.953 603.854 310.177 608.124 301.339 606.794C300.485 606.668 299.642 606.48 298.813 606.233C289.857 603.476 285.833 600.902 284.653 595.082C283.473 589.263 287.934 584.969 292.229 582.224C296.524 579.479 319.817 576.612 319.817 576.612L325.446 578.32L365.295 590.373Z" fill="#0038FF"/>
<path d="M301.339 606.794C300.485 606.668 299.642 606.48 298.813 606.233C289.857 603.476 285.833 600.902 284.653 595.082C283.473 589.263 287.934 584.969 292.229 582.224C296.524 579.479 319.817 576.612 319.817 576.612L325.446 578.32C320.348 580.76 301.374 582.09 297.232 584.554C293.09 587.018 291.096 591.654 293.539 597.974C294.849 601.268 298.341 604.501 301.339 606.794Z" fill="white"/>
<path d="M360.15 591.813C360.15 591.813 334.449 598.694 324.254 603.098C314.059 607.502 294.624 609.43 287.674 600.353C280.724 591.276 286.872 583.444 293.799 581.699C300.725 579.954 314.732 577.209 322.378 578.32" stroke="#263238" stroke-width="1.34579" stroke-linecap="round" stroke-linejoin="round"/>
<path d="M301.846 606.319C301.846 606.319 288.772 598.901 293.114 588.507C296.324 580.845 313.764 582.504 322.402 578.32" stroke="#263238" stroke-width="1.34579" stroke-linecap="round" stroke-linejoin="round"/>
<path d="M469.524 608.441C469.17 612.101 467.931 615.53 464.391 617.689C462.031 619.129 458.68 619.983 453.877 619.934C441.876 619.775 419.315 610.906 419.315 610.906L398.193 598.828L409.179 580.857L412.188 575.977L419.952 577.783C419.952 577.783 426.383 581.553 432.849 584.554C439.316 587.555 455.022 588.214 460.556 592.813C466.09 597.413 470.126 602.415 469.524 608.441Z" fill="#0038FF"/>
<path d="M469.524 608.441C469.17 612.101 467.931 615.53 464.391 617.689C465.411 614.091 465.203 610.24 463.801 606.782C461.441 601.304 453.759 596.473 443.659 595.668C433.558 594.863 425.829 589.983 421.781 587.799C418.619 586.103 411.952 582.394 409.179 580.857L412.188 575.977L419.952 577.783C419.952 577.783 426.383 581.553 432.85 584.554C439.316 587.555 455.022 588.214 460.556 592.813C466.09 597.413 470.126 602.415 469.524 608.441Z" fill="white"/>
<path d="M402.878 602.219C418.082 611.357 434.886 617.29 452.32 619.678C456.166 620.153 460.639 620.227 463.211 617.238C463.895 616.374 464.405 615.378 464.709 614.307C465.013 613.236 465.106 612.112 464.981 611.003C464.521 605.391 459.954 600.951 454.951 598.718C449.948 596.485 444.437 595.973 439.115 594.741C433.823 593.507 428.706 591.572 423.893 588.982C420.07 586.921 416.377 584.42 412.164 583.492C407.952 582.565 402.937 583.688 400.683 587.494" stroke="#263238" stroke-width="1.34579" stroke-linecap="round" stroke-linejoin="round"/>
<path d="M461.795 618.763C463.772 617.784 465.5 616.341 466.842 614.549C468.184 612.757 469.102 610.666 469.524 608.441C470.291 603.159 467.376 597.84 463.282 594.594C459.187 591.349 454.054 589.812 448.992 588.726C443.93 587.64 438.749 586.908 433.9 584.92C426.501 581.919 419.197 576.014 411.48 578.124" stroke="#263238" stroke-width="1.34579" stroke-linecap="round" stroke-linejoin="round"/>
<path d="M426.713 413.217L390.971 399.163L390.523 398.98C390.523 398.98 390.653 398.004 390.759 396.54C390.983 393.587 391.101 388.78 389.756 387.158C387.762 384.718 382.121 386.767 376.611 384.157C371.1 381.546 360.917 386.218 360.917 386.218C360.917 386.218 353.553 384.816 350.297 390.306C348.645 394.734 349.211 401.286 349.211 401.286L348.538 401.529C344.279 403.176 321.103 412.192 316.206 415.816C310.79 419.781 304.796 460.492 302.872 472.448C300.949 484.404 297.527 495.177 299.262 499.288C300.996 503.399 325.894 523.224 340.219 528.336C354.545 533.448 405.344 531.996 405.344 531.996C405.344 531.996 406.17 531.764 407.645 531.276C416.235 528.422 446.714 516.637 462.892 488.967C462.916 489.016 447.245 435.909 426.713 413.217ZM330.142 481.696C327.511 483.623 328.962 491.09 328.962 491.09L324.49 487.015L335.724 458.455L340.514 480.415C340.514 480.415 332.774 479.78 330.142 481.696ZM420.011 499.837C418.772 500.496 423.551 486.771 421.285 483.66C419.02 480.549 412.188 480.842 412.188 480.842L412.766 477.096L416.813 455.624L418.158 453.977C418.158 453.977 432.059 478.609 434.549 487.296C434.549 487.32 419.397 499.837 420.011 499.837Z" fill="#0038FF"/>
<path d="M359.229 324.145L340.774 344.397C340.774 344.397 338.237 346.727 339.24 352.595C340.243 358.463 342.603 363.575 344.385 363.917C345.795 364.172 347.224 364.303 348.656 364.307C348.656 364.307 352.609 373.164 355.418 376.641C355.418 376.641 356.385 390.318 355.866 394.112C355.866 394.112 362.498 400.102 368.74 400.858C374.982 401.615 384.623 391.733 384.623 391.733L386.983 379.63C386.983 379.63 392.647 370.749 393.024 368.382C393.402 366.015 395.998 366.625 397.272 365.454C398.547 364.283 401.485 359.073 401.992 354.145C402.5 349.216 402.511 343.555 396.977 345.214C392.175 343.884 395.184 333.392 395.184 333.392L386.747 325.706L359.229 324.145Z" fill="white"/>
<path opacity="0.5" d="M390.971 399.163C390.693 399.917 390.374 400.654 390.015 401.371C386.971 407.3 373.708 418.61 373.708 418.61L369.696 405.861L367.501 418.61C363.076 416.609 349.577 404.519 349.577 404.519C349.577 404.519 349.117 403.384 348.562 401.615L349.235 401.371C349.235 401.371 348.668 394.771 350.32 390.391C353.553 384.901 360.94 386.304 360.94 386.304C360.94 386.304 371.124 381.631 376.634 384.242C382.145 386.853 387.785 384.828 389.779 387.243C391.774 389.659 390.546 399.029 390.546 399.029L390.971 399.163Z" fill="white"/>
<path opacity="0.2" d="M426.714 413.217L390.971 399.163L390.523 398.98C390.523 398.98 390.653 398.004 390.759 396.54L390.016 401.334L384.729 408.752C390.38 410.903 395.897 413.413 401.249 416.267C403.811 417.686 405.902 419.869 407.248 422.532C408.595 425.195 409.136 428.215 408.801 431.2L402.217 489.455L399.515 522.529L407.668 531.277C416.259 528.422 446.738 516.637 462.916 488.967C462.916 489.016 447.246 435.909 426.714 413.217ZM420.011 499.837C418.772 500.496 423.551 486.771 421.286 483.66C419.02 480.549 412.188 480.842 412.188 480.842L412.766 477.096L416.813 455.624L418.159 453.977C418.159 453.977 432.059 478.609 434.549 487.296C434.549 487.32 419.398 499.837 420.011 499.837Z" fill="black"/>
<path opacity="0.2" d="M342.886 483.66L337.328 464.457C337.328 464.457 327.357 429.309 320.525 420.647L322.319 445.364C322.319 445.364 316.419 474.888 311.026 483.66C305.634 492.432 304.43 494.64 311.026 494.64C317.622 494.64 333.682 507.865 333.682 507.865L332.443 496.885L342.886 483.66ZM328.88 491.09L324.407 487.015L335.641 458.455L340.432 480.415C340.432 480.415 332.738 479.817 330.107 481.732C327.475 483.648 328.88 491.09 328.88 491.09Z" fill="black"/>
<path d="M355.418 376.642C355.418 376.642 356.433 386.999 355.418 391.733" stroke="#263238" stroke-width="1.34579" stroke-linecap="round" stroke-linejoin="round"/>
<path d="M385.65 390.342C385.661 387.012 386.033 383.693 386.759 380.448" stroke="#263238" stroke-width="1.34579" stroke-linecap="round" stroke-linejoin="round"/>
<path d="M388.328 331.867C388.328 331.867 394.393 339.736 394.075 345.69C393.756 351.644 393.308 358.695 393.461 365.6C393.615 372.506 382.735 386.975 377.142 388.256C371.549 389.537 366.734 389.866 363.159 386.17C359.583 382.473 356.008 377.337 351.359 370.749C346.71 364.161 347.819 349.704 347.819 349.704" stroke="#263238" stroke-width="1.34579" stroke-linecap="round" stroke-linejoin="round"/>
<path d="M373.72 355.206C373.35 357.368 373.192 359.563 373.248 361.757C373.126 363.607 373.682 365.436 374.805 366.881C375.478 367.589 376.445 368.162 376.575 369.138C376.572 369.578 376.454 370.008 376.234 370.384C376.014 370.76 375.699 371.067 375.324 371.273C374.568 371.668 373.838 372.117 373.141 372.615" stroke="#263238" stroke-width="1.34579" stroke-linecap="round" stroke-linejoin="round"/>
<path d="M364.126 373.372C364.126 373.372 364.823 378.044 370.876 379.02" stroke="#263238" stroke-width="1.34579" stroke-linecap="round" stroke-linejoin="round"/>
<path d="M364.752 358.768C364.752 360.123 364.185 361.208 363.489 361.208C362.793 361.208 362.227 360.123 362.227 358.768C362.227 357.414 362.793 356.328 363.489 356.328C364.185 356.328 364.752 357.426 364.752 358.768Z" fill="#263238"/>
<path d="M382.818 359.354C382.818 360.708 382.251 361.794 381.555 361.794C380.859 361.794 380.292 360.696 380.292 359.354C380.292 358.012 380.859 356.914 381.555 356.914C382.251 356.914 382.818 358 382.818 359.354Z" fill="#263238"/>
<path d="M379.171 353.437C379.171 353.437 385.071 347.337 390.015 354.145" stroke="#263238" stroke-width="2.69158" stroke-linecap="round" stroke-linejoin="round"/>
<path d="M366.746 353.559C366.746 353.559 363.017 349.24 357.141 353.559" stroke="#263238" stroke-width="2.69158" stroke-linecap="round" stroke-linejoin="round"/>
<path d="M355.866 382.4C355.866 382.4 359.466 392.648 367.501 395.564C375.537 398.479 386.204 383.364 386.204 383.364L385.65 381.399C385.65 381.399 378.652 390.793 370.876 389.195C363.1 387.597 355.418 376.69 355.418 376.69L355.866 382.4Z" fill="#263238"/>
<path d="M348.657 363.917C348.657 363.917 343.866 365.661 342.591 361.806C341.317 357.951 336.951 347.788 340.774 344.397C344.597 341.005 347.665 348.874 347.665 348.874" stroke="#263238" stroke-width="1.34579" stroke-linecap="round" stroke-linejoin="round"/>
<path d="M393.449 366.015C393.449 366.015 397.898 366.942 399.172 363.087C400.447 359.232 404.813 349.069 400.99 345.678C397.166 342.286 394.098 350.155 394.098 350.155" stroke="#263238" stroke-width="1.34579" stroke-linecap="round" stroke-linejoin="round"/>
<path d="M347.665 358.768C349.329 358.497 350.831 357.581 351.866 356.206C352.498 355 352.898 353.678 353.046 352.315C353.484 349.72 353.705 347.092 353.707 344.458C353.655 343.429 353.746 342.398 353.978 341.396C354.332 340.387 354.878 339.462 355.583 338.675C357.247 336.65 359.264 334.942 360.857 332.843C361.711 331.853 362.361 330.693 362.767 329.435C363.173 328.176 363.326 326.845 363.217 325.523C366.868 328.635 371.134 330.883 375.715 332.107C380.295 333.332 385.08 333.504 389.732 332.612C398.169 330.904 406.252 323.254 405.273 313.641C405.088 312.029 404.419 310.517 403.361 309.318C402.303 308.119 400.908 307.293 399.373 306.955C395.207 305.881 391.467 308.175 387.691 309.651C380.811 312.335 374.073 307.724 367.123 306.955C361.223 306.284 353.872 307.053 350.78 313.165C350.78 313.165 340.16 314.458 335.44 323.535C330.72 332.612 339.653 345.165 339.653 345.165C339.653 345.165 343.193 340.676 347.83 349.753L347.665 358.768Z" fill="#263238"/>
<path d="M389.06 329.549C389.06 329.549 386.299 344.433 393.508 351.644C393.508 351.644 395.09 347.166 396.683 346.068C397.831 343.427 398.318 340.529 398.097 337.642C397.876 334.755 396.956 331.972 395.42 329.549C390.086 320.887 389.06 329.549 389.06 329.549Z" fill="#263238"/>
<path opacity="0.2" d="M402.205 312.616C401.572 314.647 400.498 316.501 399.067 318.038C397.635 319.576 395.884 320.754 393.945 321.485C383.938 325.707 374.227 321.034 364.197 320.119C356.019 319.363 346.992 327 346.414 335.686" stroke="white" stroke-width="1.34579" stroke-linecap="round" stroke-linejoin="round"/>
<path opacity="0.2" d="M340.243 333.392C340.366 329.965 341.429 326.644 343.31 323.818C345.191 320.992 347.81 318.778 350.863 317.435" stroke="white" stroke-width="1.34579" stroke-linecap="round" stroke-linejoin="round"/>
<path d="M353.105 390.342C357.505 395.083 362.815 398.823 368.693 401.322C368.693 401.322 380.67 397.723 386.759 389.122" stroke="#263238" stroke-width="1.34579" stroke-linecap="round" stroke-linejoin="round"/>
<path d="M365.345 368.702C370.664 366.18 372.998 359.676 370.558 354.177C368.119 348.677 361.828 346.264 356.509 348.786C351.19 351.309 348.855 357.812 351.295 363.312C353.735 368.811 360.025 371.225 365.345 368.702Z" stroke="#263238" stroke-width="1.34579" stroke-linecap="round" stroke-linejoin="round"/>
<path d="M385.878 369.667C391.687 368.929 395.818 363.463 395.104 357.458C394.391 351.452 389.104 347.181 383.296 347.919C377.487 348.656 373.356 354.122 374.069 360.128C374.783 366.133 380.07 370.404 385.878 369.667Z" stroke="#263238" stroke-width="1.34579" stroke-linecap="round" stroke-linejoin="round"/>
<path d="M355.418 386.255C354.345 386.546 353.339 387.059 352.461 387.761C351.583 388.463 350.851 389.341 350.309 390.342C348.432 393.758 349.565 404.506 349.565 404.506C349.565 404.506 359.253 414.413 367.501 418.597L369.932 404.458L373.708 418.597C373.708 418.597 386.476 409.264 390.016 401.371C390.016 401.371 391.196 392.16 390.016 389.171C389.747 388.341 389.237 387.617 388.554 387.099C387.872 386.581 387.051 386.295 386.204 386.28" stroke="#263238" stroke-width="1.34579" stroke-linecap="round" stroke-linejoin="round"/>
<path d="M340.243 480.854C340.243 480.854 336.455 454.624 331.417 443.925" stroke="#263238" stroke-width="1.34579" stroke-linecap="round" stroke-linejoin="round"/>
<path d="M320.525 420.647C323.459 424.958 326.078 429.488 328.36 434.201" stroke="#263238" stroke-width="1.34579" stroke-linecap="round" stroke-linejoin="round"/>
<path d="M420.011 440.228C421.028 435.842 422.422 431.559 424.176 427.43" stroke="#263238" stroke-width="1.34579" stroke-linecap="round" stroke-linejoin="round"/>
<path d="M412.188 480.854C412.188 480.854 414.914 462.871 418.17 448.06" stroke="#263238" stroke-width="1.34579" stroke-linecap="round" stroke-linejoin="round"/>
<path d="M416.813 455.6C419.448 451.988 423.153 449.366 427.362 448.134" stroke="#263238" stroke-width="1.34579" stroke-linecap="round" stroke-linejoin="round"/>
<path d="M390.535 398.98C390.535 398.98 412.518 408.069 426.713 413.229C426.713 413.229 444.177 430.2 462.904 489.016C462.904 489.016 445.747 518.857 413.108 528.422" stroke="#263238" stroke-width="1.34579" stroke-linecap="round" stroke-linejoin="round"/>
<path d="M418.772 500.899L434.549 487.32C434.549 487.32 442.891 480.769 451.564 485.246" stroke="#263238" stroke-width="1.34579" stroke-linecap="round" stroke-linejoin="round"/>
<path d="M418.17 453.977C418.17 453.977 431.209 473.9 434.549 487.32" stroke="#263238" stroke-width="1.34579" stroke-linecap="round" stroke-linejoin="round"/>
<path d="M329.057 491.846L324.443 487.32C324.443 487.32 317.599 486.1 309.834 491.456" stroke="#263238" stroke-width="1.34579" stroke-linecap="round" stroke-linejoin="round"/>
<path d="M324.443 487.32C324.443 487.32 330.178 467.8 335.83 457.808" stroke="#263238" stroke-width="1.34579" stroke-linecap="round" stroke-linejoin="round"/>
<path d="M349.235 401.371C349.235 401.371 317.599 413.644 314.495 417.231C311.392 420.818 299.604 489.443 299.285 497.299C299.014 504.327 323.652 520.101 335.865 526.75" stroke="#263238" stroke-width="1.34579" stroke-linecap="round" stroke-linejoin="round"/>
<path d="M372.894 424.563C372.894 424.99 372.771 425.408 372.542 425.763C372.312 426.118 371.986 426.395 371.604 426.558C371.223 426.721 370.803 426.764 370.398 426.681C369.992 426.598 369.62 426.392 369.328 426.09C369.036 425.788 368.837 425.403 368.757 424.984C368.676 424.565 368.717 424.131 368.875 423.737C369.034 423.342 369.301 423.005 369.645 422.767C369.988 422.53 370.392 422.404 370.805 422.404C371.08 422.402 371.352 422.457 371.606 422.565C371.86 422.673 372.091 422.832 372.285 423.032C372.48 423.233 372.633 423.472 372.738 423.735C372.842 423.997 372.895 424.279 372.894 424.563Z" fill="#263238"/>
<path d="M409.497 539.512H337.517C337.07 539.512 336.64 539.328 336.324 539.001C336.008 538.673 335.83 538.23 335.83 537.767C335.83 537.304 336.008 536.86 336.324 536.533C336.64 536.206 337.07 536.022 337.517 536.022H409.497C409.945 536.022 410.374 536.206 410.69 536.533C411.007 536.86 411.185 537.304 411.185 537.767C411.185 538.23 411.007 538.673 410.69 539.001C410.374 539.328 409.945 539.512 409.497 539.512Z" fill="#263238"/>
<path d="M412.022 533.68L421.663 486.832C421.813 486.106 421.803 485.354 421.635 484.632C421.467 483.91 421.145 483.236 420.693 482.659C420.24 482.082 419.669 481.617 419.02 481.299C418.371 480.98 417.661 480.816 416.943 480.817H332.809C332.097 480.818 331.393 480.981 330.75 481.296C330.106 481.611 329.538 482.07 329.086 482.64C328.635 483.209 328.311 483.875 328.139 484.589C327.966 485.304 327.949 486.049 328.089 486.771L336.738 532.057C336.95 533.17 337.523 534.174 338.362 534.904C339.201 535.633 340.256 536.045 341.352 536.071L407.184 537.633C408.31 537.659 409.408 537.278 410.291 536.557C411.174 535.835 411.787 534.818 412.022 533.68Z" fill="white" stroke="#263238" stroke-width="1.34579" stroke-linecap="round" stroke-linejoin="round"/>
<path d="M381.319 507.852C381.317 509.225 380.921 510.566 380.182 511.706C379.443 512.846 378.393 513.734 377.166 514.257C375.939 514.781 374.589 514.916 373.288 514.647C371.986 514.378 370.791 513.716 369.853 512.745C368.915 511.773 368.277 510.536 368.019 509.19C367.761 507.844 367.894 506.449 368.403 505.181C368.911 503.913 369.772 502.83 370.876 502.068C371.98 501.305 373.277 500.898 374.605 500.898C375.488 500.898 376.362 501.078 377.177 501.428C377.992 501.778 378.733 502.29 379.357 502.936C379.98 503.582 380.475 504.349 380.811 505.192C381.148 506.036 381.321 506.94 381.319 507.852Z" fill="#263238"/>
<path d="M394.523 485.295H404.518" stroke="#263238" stroke-width="1.34579" stroke-linecap="round" stroke-linejoin="round"/>
<path d="M346.792 485.295H384.729" stroke="#263238" stroke-width="1.34579" stroke-linecap="round" stroke-linejoin="round"/>
<path d="M412.188 583.419L404.518 604.233C404.518 604.233 384.953 599.133 359.902 593.826C333.694 588.275 306.33 581.089 292.135 555.335C290.412 552.2 289.255 548.491 290.07 544.977C292.111 536.083 303.309 533.668 310.684 532.777C315.321 532.259 319.98 531.99 324.644 531.972C327.004 531.972 334.851 530.642 336.75 532.094C339.605 534.247 342.651 536.114 345.848 537.669C350.037 539.512 411.185 536.022 411.185 536.022C412.249 533.624 412.9 531.052 413.108 528.422C422.725 523.371 444.968 519.101 454.408 520.992C469.194 523.957 477.819 532.875 476.179 542.22C474.539 551.565 441.877 576.624 412.188 583.419Z" fill="#263238"/>
<path d="M412.188 583.419C412.188 583.419 393.579 578.32 378.381 567.706C363.182 557.092 351.312 544.77 330.131 547.319" stroke="white" stroke-width="1.34579" stroke-linecap="round" stroke-linejoin="round"/>
<path d="M374.9 565.205C384.505 562.35 391.55 555.92 399.255 549.759C407.382 543.016 416.11 537.084 425.321 532.045" stroke="white" stroke-width="1.34579" stroke-linecap="round" stroke-linejoin="round"/>
<path d="M371.513 360.501H374.333" stroke="#263238" stroke-width="1.34579" stroke-linecap="round" stroke-linejoin="round"/>
</svg>
