<svg width="797" height="843" viewBox="0 0 797 843" fill="none" xmlns="http://www.w3.org/2000/svg">
<path d="M389.007 12.5C462.007 75 665.507 144.5 779.007 144.5C792.007 144.5 767.507 655.5 396.507 828.5M408.007 12C334.86 74.4611 130.969 144.923 17.2408 144.923C4.21467 144.923 37.2599 655.608 409.007 828.5" stroke="black" stroke-width="30"/>
<path d="M246.225 428.347L305.146 284H362L262.635 482.849H229.944L132 284H188.854L246.225 428.347ZM177.096 284V643L132 572.5V284H177.096ZM317.292 482.849V284H362V482.849H317.292Z" fill="black"/>
<path d="M364.192 419.517L443.829 284H492V483H446.678V347.354L367.3 483H319V284H364.192V419.517Z" fill="black"/>
<path d="M451 481V482H452H528.651C544.439 482 558.036 479.293 569.409 473.836C580.834 468.387 589.625 460.832 595.741 451.161L595.743 451.159C601.858 441.422 604.902 430.179 604.902 417.465C604.902 404.817 601.857 393.767 595.734 384.356C589.613 374.948 580.816 367.693 569.39 362.579C558.023 357.395 544.433 354.823 528.651 354.823H490.125V317.846H747.5H748.289L748.473 317.079L755.973 285.733L756.267 284.5H755H452H451V285.5V481ZM561.812 433.191L561.807 433.199C558.974 438.134 554.781 442.126 549.188 445.167C543.631 448.189 536.8 449.726 528.651 449.726H490.125V386.897H528.651C540.904 386.897 550.132 389.912 556.492 395.793L556.499 395.8C562.971 401.661 566.177 408.732 566.177 417.067C566.177 422.865 564.723 428.234 561.812 433.191Z" fill="black" stroke="black" stroke-width="2"/>
</svg>
