<svg width="157" height="35" viewBox="0 0 157 35" fill="none" xmlns="http://www.w3.org/2000/svg">
<path id="Vector 1" d="M0.678654 33.9669C0.467094 34.1444 0.439463 34.4598 0.616938 34.6713C0.794413 34.8829 1.10979 34.9105 1.32135 34.733L0.678654 33.9669ZM155.461 34.8484C155.736 34.8701 155.977 34.6644 155.998 34.3891L156.351 29.903C156.373 29.6277 156.167 29.387 155.892 29.3653C155.616 29.3437 155.376 29.5493 155.354 29.8246L155.041 33.8123L151.053 33.499C150.778 33.4774 150.537 33.683 150.515 33.9583C150.494 34.2336 150.699 34.4743 150.975 34.4959L155.461 34.8484ZM1.32135 34.733C16.2715 22.1915 41.9146 7.14322 70.2266 2.75657C98.5089 -1.62549 129.45 4.62715 155.12 34.6747L155.88 34.0252C129.95 3.67278 98.6411 -2.65791 70.0734 1.76836C41.5354 6.19004 15.7285 21.3418 0.678654 33.9669L1.32135 34.733Z" fill="#0038FF"/>
</svg>
