<svg width="103" height="25" viewBox="0 0 103 25" fill="none" xmlns="http://www.w3.org/2000/svg">
<path id="Vector 2" d="M0.178654 23.5506C-0.0329057 23.728 -0.0605367 24.0434 0.116938 24.255C0.294413 24.4665 0.609787 24.4942 0.821346 24.3167L0.178654 23.5506ZM99.7296 24.3542C99.9618 24.5035 100.271 24.4363 100.421 24.2041L102.854 20.419C103.004 20.1867 102.937 19.8774 102.704 19.728C102.472 19.5787 102.163 19.6459 102.013 19.8782L99.8499 23.2427L96.4854 21.0793C96.2531 20.9299 95.9437 20.9971 95.7944 21.2294C95.645 21.4617 95.7123 21.771 95.9445 21.9204L99.7296 24.3542ZM0.821346 24.3167C15.732 11.8083 38.627 3.21444 58.7164 2.05128C68.7588 1.46984 78.0555 2.74801 85.2883 6.2818C92.5033 9.80686 97.6726 15.5771 99.5114 24.0398L100.489 23.8275C98.5774 15.0315 93.1842 9.02654 85.7273 5.38331C78.2883 1.7488 68.8037 0.465563 58.6586 1.05296C38.373 2.22747 15.268 10.8923 0.178654 23.5506L0.821346 24.3167Z" fill="#0038FF"/>
</svg>
