<svg width="109" height="30" viewBox="0 0 109 30" fill="none" xmlns="http://www.w3.org/2000/svg">
<path id="Vector 1" d="M103.738 3.00618C103.901 2.78303 104.214 2.734 104.437 2.89666L108.073 5.54743C108.296 5.71009 108.345 6.02286 108.183 6.24601C108.02 6.46915 107.707 6.51818 107.484 6.35552L104.252 3.99928L101.896 7.23164C101.733 7.45479 101.42 7.50382 101.197 7.34116C100.974 7.17849 100.925 6.86573 101.088 6.64258L103.738 3.00618ZM5.26999 0.973211C1.82588 5.05527 0.93508 8.64029 1.82021 11.7358C2.71421 14.8623 5.46045 17.6446 9.64037 20.0059C17.9941 24.7251 31.7435 27.5737 46.2465 28.1997C60.7402 28.8253 75.8924 27.2271 87.0277 23.1263C92.5964 21.0754 97.1205 18.4132 100.064 15.1276C102.993 11.8588 104.368 7.96592 103.648 3.37815L104.636 3.22327C105.406 8.1355 103.919 12.3243 100.809 15.795C97.7144 19.2489 93.0229 21.984 87.3733 24.0647C76.0718 28.2267 60.7759 29.8278 46.2033 29.1988C31.64 28.5701 17.7047 25.7102 9.14851 20.8766C4.87342 18.4615 1.85832 15.5064 0.858746 12.0107C-0.149693 8.48398 0.933712 4.56195 4.50569 0.328352L5.26999 0.973211Z" fill="#0038FF"/>
</svg>
