<svg width="163" height="39" viewBox="0 0 163 39" fill="none" xmlns="http://www.w3.org/2000/svg">
<path id="Vector 1" d="M0.517815 14.5844C0.444759 14.3181 0.601417 14.043 0.86772 13.9699C1.13402 13.8969 1.40913 14.0535 1.48218 14.3198L0.517815 14.5844ZM161.961 0.851635C162.236 0.830002 162.477 1.03564 162.498 1.31093L162.851 5.79711C162.873 6.0724 162.667 6.3131 162.392 6.33474C162.116 6.35637 161.876 6.15073 161.854 5.87543L161.541 1.88773L157.553 2.20105C157.278 2.22268 157.037 2.01704 157.015 1.74175C156.994 1.46645 157.199 1.22575 157.475 1.20412L161.961 0.851635ZM84.5 14.452L84.6767 13.9843L84.5 14.452ZM1.48218 14.3198C5.33603 28.3678 11.2978 34.81 18.221 36.8614C25.1929 38.9273 33.325 36.6062 41.6634 32.6615C50.0061 28.7149 58.3642 23.2454 65.871 19.1174C69.6047 17.0642 73.1228 15.3476 76.2799 14.3582C79.4288 13.3714 82.2934 13.0837 84.6767 13.9843L84.3233 14.9197C82.2498 14.1362 79.6468 14.3511 76.579 15.3125C73.5195 16.2712 70.072 17.9485 66.3528 19.9936C58.954 24.0623 50.4575 29.6076 42.0911 33.5655C33.7204 37.5254 25.2889 39.9987 17.9369 37.8202C10.5363 35.6273 4.41397 28.7866 0.517815 14.5844L1.48218 14.3198ZM84.6767 13.9843C93.1788 17.1969 100.244 20.4968 106.404 22.9475C112.608 25.4155 117.983 27.063 123.327 27.0983C133.966 27.1685 144.692 20.8403 161.62 1.02533L162.38 1.67487C145.433 21.5119 134.444 28.1717 123.32 28.0983C117.782 28.0617 112.263 26.3546 106.034 23.8767C99.7621 21.3814 92.8563 18.144 84.3233 14.9197L84.6767 13.9843Z" fill="#0038FF"/>
</svg>
