<svg width="200" height="200" viewBox="0 0 200 200" fill="none" xmlns="http://www.w3.org/2000/svg">
<g id="Businessman-pana">
<g id="freepik--background-complete--inject-18">
<path id="Vector" d="M180.492 34.824V61.096H142.752L141.392 35.008L180.492 34.824Z" fill="#E0E0E0"/>
<path id="Vector_2" d="M141.392 35.004V61.04H179.132V35.004H141.392Z" fill="white"/>
<path id="Vector_3" d="M179.308 61.22H141.2V34.82H179.296L179.308 61.22ZM141.572 60.864H178.952V35.2H141.572V60.864Z" fill="#E0E0E0"/>
<path id="Vector_4" d="M175.044 38.24H145.48V57.808H175.044V38.24Z" fill="white"/>
<path id="Vector_5" d="M175.044 38.24H174.896H174.476H172.852L166.76 38.264L145.48 38.308L145.564 38.22C145.564 44.22 145.564 50.824 145.564 57.784L145.472 57.692H175.036L174.96 57.768C174.96 51.812 174.992 46.932 175 43.532C175 41.832 175 40.504 175.02 39.596C175.02 39.144 175.02 38.796 175.02 38.56C175.02 38.324 175.02 38.2 175.02 38.2C175.02 38.2 175.02 38.316 175.02 38.544C175.02 38.772 175.02 39.12 175.02 39.564C175.02 40.472 175.02 41.792 175.04 43.484C175.04 46.896 175.06 51.792 175.076 57.768V57.84H175.004L145.44 57.86H145.348V57.768C145.348 50.808 145.348 44.168 145.348 38.204V38.12H145.436L166.772 38.16L172.844 38.184H174.444H174.992L175.044 38.24Z" fill="#E0E0E0"/>
<path id="Vector_6" d="M141.392 34.932C141.623 35.0397 141.84 35.1739 142.04 35.332C142.44 35.612 142.952 36.008 143.52 36.46C144.088 36.912 144.588 37.344 144.94 37.66C145.143 37.8197 145.325 38.0052 145.48 38.212C144.762 37.7138 144.069 37.1798 143.404 36.612C142.698 36.0963 142.026 35.5351 141.392 34.932Z" fill="#E0E0E0"/>
<path id="Vector_7" d="M179.132 35.008C178.506 35.617 177.837 36.181 177.132 36.696C176.469 37.2594 175.767 37.7753 175.032 38.24C175.657 37.6303 176.326 37.0661 177.032 36.552C177.692 35.985 178.394 35.4689 179.132 35.008Z" fill="#E0E0E0"/>
<path id="Vector_8" d="M179.1 61.044L174.892 57.636L179.1 61.044Z" fill="white"/>
<path id="Vector_9" d="M174.892 57.636C175.649 58.1308 176.372 58.6761 177.056 59.268C177.776 59.8141 178.459 60.4074 179.1 61.044C178.342 60.5508 177.619 60.0054 176.936 59.412C176.215 58.8673 175.532 58.2739 174.892 57.636Z" fill="#E0E0E0"/>
<path id="Vector_10" d="M141.392 61.044C142.004 60.4374 142.661 59.8772 143.356 59.368C144.012 58.8109 144.707 58.3015 145.436 57.844C144.822 58.4472 144.166 59.006 143.472 59.516C142.816 60.0746 142.121 60.5853 141.392 61.044Z" fill="#E0E0E0"/>
<path id="Vector_11" d="M151.484 44.336V50.888H170.084V44.336H151.484Z" fill="#E0E0E0"/>
<path id="Vector_12" d="M76.164 20.096C76.164 20.096 76.132 20.096 76.072 20.068L75.804 19.964L74.796 19.564L71.1 17.964L58.936 12.664L58.516 12.48H58.604L46.684 17.576L43.084 19.088L42.1 19.488C41.9878 19.5395 41.8714 19.581 41.752 19.612C41.8586 19.5496 41.9696 19.4948 42.084 19.448L43.048 19.008L46.648 17.408L58.54 12.252L58.584 12.232L58.628 12.252L59.048 12.436L71.184 17.796L74.856 19.444L75.848 19.9L76.104 20.024C76.1256 20.0466 76.1456 20.0707 76.164 20.096Z" fill="#E0E0E0"/>
<path id="Vector_13" d="M95.136 18.352H17.02V76.844H95.136V18.352Z" fill="#E0E0E0"/>
<path id="Vector_14" d="M92.7 21.072H19.752V74.44H92.7V21.072Z" fill="#FAFAFA"/>
<path id="Vector_15" d="M35.864 44.4C35.864 44.4 35.94 53.36 36.396 56.092L47.632 55.56C47.632 55.56 46.644 46.76 47.024 44.4H35.864Z" fill="#E0E0E0"/>
<path id="Vector_16" d="M41.3961 45.656C41.3961 45.656 41.3961 45.656 41.4401 45.656H41.5601C41.7165 45.6501 41.8731 45.6582 42.0281 45.68C42.2755 45.717 42.5165 45.7884 42.7441 45.892C43.0428 46.0411 43.3071 46.2509 43.5201 46.508C43.7788 46.8245 43.9633 47.1949 44.0601 47.592C44.1463 48.057 44.1048 48.5367 43.9401 48.98C43.8556 49.2196 43.7498 49.4512 43.6241 49.672C43.5001 49.9 43.3721 50.124 43.2641 50.372C43.0396 50.8816 42.8874 51.4202 42.8121 51.972V52.008H42.7761L41.6681 52.028H40.5041H40.4641V52C40.4156 51.4515 40.2314 50.9236 39.9281 50.464C39.7921 50.236 39.6441 50.02 39.5041 49.8C39.3641 49.58 39.2201 49.4 39.1041 49.156C38.8966 48.7317 38.8348 48.2509 38.9281 47.788C38.9921 47.3885 39.1392 47.0069 39.3601 46.668C39.5522 46.3965 39.8022 46.171 40.0921 46.008C40.3085 45.8894 40.5399 45.8006 40.7801 45.744C40.9312 45.7066 41.085 45.6812 41.2401 45.668H41.3601C41.3881 45.668 41.4001 45.668 41.4001 45.668H41.3601H41.2401C41.0875 45.6864 40.9365 45.7158 40.7881 45.756C40.5516 45.8177 40.3242 45.9105 40.1121 46.032C39.8313 46.1935 39.5906 46.4164 39.4081 46.684C39.1999 47.019 39.0637 47.3936 39.0081 47.784C38.9208 48.2327 38.9826 48.6977 39.1841 49.108C39.3067 49.3266 39.4402 49.5388 39.5841 49.744C39.7201 49.956 39.8721 50.176 40.0081 50.408C40.3209 50.879 40.5106 51.4208 40.5601 51.984L40.5201 51.94H41.6841H42.7921L42.7521 51.98C42.8307 51.4211 42.9869 50.8758 43.2161 50.36C43.3241 50.112 43.4561 49.876 43.5801 49.652C43.7074 49.4368 43.812 49.2089 43.8921 48.972C44.0551 48.5336 44.0925 48.0585 44.0001 47.6C43.9097 47.2125 43.7333 46.8502 43.4841 46.54C43.2782 46.2864 43.0222 46.078 42.7321 45.928C42.5103 45.822 42.2746 45.748 42.0321 45.708C41.8785 45.6845 41.7235 45.6711 41.5681 45.668H41.4041L41.3961 45.656Z" fill="white"/>
<path id="Vector_17" d="M41.9761 51.896C41.9752 51.884 41.9752 51.872 41.9761 51.86V51.756C41.9761 51.664 41.9401 51.528 41.9121 51.356C41.8641 51.008 41.7881 50.5 41.7361 49.872C41.7361 49.716 41.7361 49.552 41.7081 49.38C41.6801 49.208 41.7081 49.028 41.7081 48.84C41.7137 48.6468 41.7572 48.4565 41.8361 48.28C41.9196 48.0884 42.0725 47.9355 42.2641 47.852C42.3662 47.8091 42.4787 47.7972 42.5875 47.8178C42.6964 47.8385 42.7967 47.8907 42.8761 47.968C42.9173 48.0081 42.9502 48.0559 42.9728 48.1088C42.9955 48.1617 43.0075 48.2185 43.0081 48.276C43.0043 48.3923 42.9637 48.5043 42.8921 48.596C42.8215 48.6912 42.7279 48.7669 42.6201 48.816C42.5146 48.8663 42.403 48.9026 42.2881 48.924C42.0552 48.9741 41.8182 49.0022 41.5801 49.008C41.3408 49.0162 41.1013 49.0041 40.8641 48.972C40.748 48.9566 40.6348 48.9242 40.5281 48.876C40.4212 48.8286 40.3247 48.7606 40.2441 48.676C40.1637 48.5924 40.1071 48.4888 40.0801 48.376C40.0568 48.2626 40.0708 48.1447 40.1201 48.04C40.1674 47.9371 40.2516 47.8557 40.3561 47.812C40.4585 47.7698 40.5736 47.7698 40.6761 47.812C40.773 47.8571 40.856 47.9276 40.9161 48.016C40.9722 48.1011 41.0116 48.1961 41.0321 48.296C41.0694 48.4844 41.0895 48.6759 41.0921 48.868C41.0921 49.236 41.1281 49.58 41.1441 49.896C41.1761 50.524 41.2001 51.032 41.2201 51.388C41.2201 51.56 41.2201 51.696 41.2201 51.788V51.892C41.2209 51.904 41.2209 51.916 41.2201 51.928C41.2183 51.9161 41.2183 51.9039 41.2201 51.892C41.2201 51.868 41.2201 51.832 41.2201 51.788C41.2201 51.744 41.2201 51.56 41.1921 51.388C41.1921 51.036 41.1441 50.524 41.1081 49.896C41.1081 49.584 41.0721 49.24 41.0481 48.868C41.0449 48.6774 41.0262 48.4875 40.9921 48.3C40.9693 48.2046 40.9301 48.1139 40.8761 48.032C40.8182 47.9507 40.7413 47.8848 40.6521 47.84C40.557 47.8021 40.4511 47.8021 40.3561 47.84C40.2591 47.8796 40.1815 47.9558 40.1401 48.052C40.0908 48.1482 40.0767 48.2585 40.1001 48.364C40.1261 48.4707 40.18 48.5687 40.2561 48.648C40.42 48.8082 40.6324 48.9094 40.8601 48.936C41.329 48.9947 41.8042 48.9785 42.2681 48.888C42.3815 48.8659 42.4917 48.8297 42.5961 48.78C42.6963 48.7313 42.7839 48.6601 42.8521 48.572C42.9198 48.4865 42.9578 48.3811 42.9601 48.272C42.9613 48.2189 42.9512 48.1661 42.9305 48.1171C42.9098 48.0682 42.879 48.0242 42.8401 47.988C42.7651 47.9158 42.6708 47.8668 42.5686 47.8469C42.4664 47.8271 42.3607 47.8371 42.2641 47.876C42.0879 47.9582 41.9463 48.0998 41.8641 48.276C41.7867 48.4502 41.7433 48.6375 41.7361 48.828C41.7361 49.012 41.7361 49.192 41.7361 49.36C41.7361 49.528 41.7361 49.696 41.7601 49.856C41.8081 50.484 41.8801 50.988 41.9281 51.336C41.9281 51.512 41.9681 51.644 41.9801 51.736V51.84C41.9745 51.8581 41.9731 51.8773 41.9761 51.896Z" fill="white"/>
<path id="Vector_18" d="M40.4961 51.956C40.4961 51.956 40.4961 52.096 40.5241 52.328C40.5521 52.56 40.5561 52.924 40.5761 53.3V53.276L41.3321 54.148H41.2961L42.1681 54.1H42.1321L42.5681 53.568L42.7841 53.3V53.336C42.7841 52.824 42.7601 52.336 42.7481 51.896L42.7961 51.94H41.1641H40.5161C40.568 51.9349 40.6202 51.9349 40.6721 51.94L41.1321 51.916L42.7961 51.852H42.8401V51.9C42.8401 52.344 42.8681 52.828 42.8801 53.34L42.6641 53.604L42.2281 54.136L41.3521 54.18H41.3281L40.5881 53.296C40.5881 52.896 40.5881 52.576 40.5881 52.296C40.5484 52.1853 40.5176 52.0716 40.4961 51.956Z" fill="white"/>
<path id="Vector_19" d="M42.7519 53.22L42.6679 53.184C42.5938 53.15 42.5176 53.1206 42.4399 53.096C42.1832 53.006 41.9118 52.9653 41.6399 52.976C41.3718 52.9839 41.1075 53.0408 40.8599 53.144C40.7845 53.1742 40.7111 53.2089 40.6399 53.248L40.5559 53.288C40.5776 53.2658 40.6034 53.2482 40.6319 53.236C40.7014 53.1928 40.7735 53.154 40.8479 53.12C41.1005 53.0091 41.3721 52.948 41.6479 52.94C41.9204 52.9342 42.1917 52.979 42.4479 53.072C42.5247 53.1003 42.5995 53.1337 42.6719 53.172C42.7 53.1855 42.7268 53.2015 42.7519 53.22Z" fill="white"/>
<path id="Vector_20" d="M42.7521 52.872L42.6681 52.836C42.6161 52.812 42.5401 52.78 42.4401 52.744C41.9292 52.5675 41.3713 52.5846 40.8721 52.792C40.7761 52.832 40.7001 52.868 40.6481 52.896C40.5961 52.924 40.5721 52.94 40.5681 52.936L40.6441 52.884C40.7133 52.8415 40.7855 52.8041 40.8601 52.772C41.1121 52.6592 41.3841 52.598 41.6601 52.592C41.933 52.5809 42.2053 52.6258 42.4601 52.724C42.5385 52.7517 42.6147 52.7851 42.6881 52.824C42.711 52.8378 42.7324 52.8539 42.7521 52.872Z" fill="white"/>
<path id="Vector_21" d="M42.7321 52.536C42.7321 52.536 42.7001 52.536 42.6481 52.504C42.5961 52.472 42.5201 52.448 42.4201 52.412C42.1628 52.3244 41.8918 52.2837 41.6201 52.292C41.3452 52.2969 41.0738 52.354 40.8201 52.46C40.7241 52.5 40.6481 52.536 40.5961 52.564C40.5717 52.5814 40.5447 52.5949 40.5161 52.604L40.5921 52.552C40.6604 52.5079 40.7327 52.4704 40.8081 52.44C41.0602 52.3271 41.332 52.2646 41.6081 52.256C41.8807 52.2497 42.152 52.2944 42.4081 52.388C42.4851 52.4175 42.5599 52.4522 42.6321 52.492L42.7321 52.536Z" fill="white"/>
<path id="Vector_22" d="M23.3479 29.74C23.3479 29.74 23.4239 38.7 23.8799 41.432L35.1159 40.904C35.1159 40.904 34.1279 32.104 34.5079 29.74H23.3479Z" fill="#EBEBEB"/>
<path id="Vector_23" d="M32.8 33.504C31.5529 33.6891 30.2961 33.8013 29.036 33.84C27.7807 33.9534 26.5199 33.9935 25.26 33.96C26.5068 33.7722 27.7637 33.6587 29.024 33.62C30.2794 33.5089 31.5402 33.4702 32.8 33.504Z" fill="white"/>
<path id="Vector_24" d="M32.82 35.404C31.5727 35.5865 30.316 35.6987 29.056 35.74C27.8006 35.851 26.5399 35.8897 25.28 35.856C26.5271 35.6709 27.7839 35.5587 29.044 35.52C30.2993 35.4065 31.5602 35.3678 32.82 35.404Z" fill="white"/>
<path id="Vector_25" d="M30.9081 37.264C30.205 37.4182 29.4878 37.4986 28.7681 37.504C28.0512 37.5769 27.3289 37.5769 26.6121 37.504C27.3168 37.352 28.0351 37.2716 28.7561 37.264C29.4715 37.1912 30.1926 37.1912 30.9081 37.264Z" fill="white"/>
<path id="Vector_26" d="M22.8 56.1C22.8 56.1 22.876 65.056 23.332 67.792L34.568 67.26C34.568 67.26 33.58 58.46 33.96 56.1H22.8Z" fill="#EBEBEB"/>
<path id="Vector_27" d="M32.2839 59.864C31.0366 60.0468 29.7799 60.1589 28.5199 60.2C27.2645 60.311 26.0037 60.3498 24.7439 60.316C25.991 60.1308 27.2478 60.0187 28.5079 59.98C29.763 59.8641 31.024 59.8254 32.2839 59.864Z" fill="white"/>
<path id="Vector_28" d="M32.288 61.76C31.041 61.9449 29.7842 62.0571 28.524 62.096C27.2688 62.2094 26.0079 62.2482 24.748 62.212C25.9951 62.0269 27.2519 61.9147 28.512 61.876C29.7674 61.765 31.0282 61.7262 32.288 61.76Z" fill="white"/>
<path id="Vector_29" d="M30.3761 63.624C29.6726 63.7758 28.9557 63.8562 28.2361 63.864C27.5192 63.9358 26.797 63.9358 26.0801 63.864C26.7848 63.7122 27.5032 63.6332 28.2241 63.628C28.9394 63.5539 29.6605 63.5525 30.3761 63.624Z" fill="white"/>
<path id="Vector_30" d="M53.5239 32.116L54.6359 57.956L86.8959 58.344L85.4479 32.456L53.5239 32.116Z" fill="#EBEBEB"/>
<path id="Vector_31" d="M85.1961 31.932H53.1521V56.128H85.1961V31.932Z" fill="#F5F5F5"/>
<path id="Vector_32" d="M85.2001 56.128C85.2001 56.128 85.2001 55.972 85.2001 55.676C85.2001 55.38 85.2001 54.948 85.2001 54.388C85.2001 53.252 85.2001 51.588 85.1801 49.492C85.1801 45.272 85.1521 39.236 85.1321 31.932L85.2201 32.02H53.1801L53.2881 31.912C53.2881 40.612 53.2881 48.852 53.2881 56.108L53.1881 56.008L76.3001 56.056L82.8721 56.084H84.6201H85.0721H85.2281H85.0841H84.6441H82.9161L76.3641 56.108L53.1881 56.156H53.0881V56.056C53.0881 48.8 53.0881 40.56 53.0881 31.86V31.748H53.2001H85.2401H85.3321V31.84C85.3121 39.168 85.2961 45.224 85.2841 49.44C85.2841 51.54 85.2841 53.184 85.2601 54.316C85.2601 54.868 85.2601 55.292 85.2601 55.588C85.2601 55.884 85.2001 56.128 85.2001 56.128Z" fill="#E0E0E0"/>
<path id="Vector_33" d="M70.0041 37.056H57.0161V53.404H70.0041V37.056Z" fill="#F5F5F5"/>
<path id="Vector_34" d="M70 53.404C69.9982 53.376 69.9982 53.348 70 53.32V53.088C70 52.872 70 52.576 70 52.196C70 51.396 70 50.272 69.972 48.84C69.972 45.964 69.944 41.892 69.924 37.056L70.02 37.156H57.032C57.008 37.18 57.24 36.948 57.144 37.048V38.168C57.144 38.544 57.144 38.916 57.144 39.288V41.492C57.144 42.944 57.144 44.36 57.144 45.732C57.144 48.48 57.144 51.052 57.144 53.388L57.052 53.296L66.456 53.344L69.096 53.368H69.796C69.956 53.368 70.04 53.368 70.04 53.368C69.9654 53.3737 69.8905 53.3737 69.816 53.368H69.132L66.516 53.392L57.052 53.44H56.96V53.348C56.96 51.012 56.96 48.44 56.96 45.692C56.96 44.32 56.96 42.892 56.96 41.452V37.064L57.072 36.952H70.06H70.16V37.048C70.16 41.912 70.124 46.004 70.112 48.896C70.112 50.32 70.112 51.444 70.084 52.228C70.084 52.6013 70.084 52.8933 70.084 53.104C70.084 53.192 70.084 53.268 70.084 53.324C70.084 53.38 70 53.408 70 53.404Z" fill="#E0E0E0"/>
<path id="Vector_35" d="M82.404 33.316H57.512V35.672H82.404V33.316Z" fill="#F5F5F5"/>
<path id="Vector_36" d="M82.4001 35.672C82.3943 35.6188 82.3943 35.5652 82.4001 35.512C82.4001 35.396 82.4001 35.244 82.4001 35.052C82.4001 34.652 82.4001 34.064 82.3761 33.316L82.4201 33.36C78.2201 33.4 68.6521 33.428 57.5281 33.428L57.6401 33.316V35.664L57.5281 35.552L75.1601 35.6L80.4561 35.632H81.8961H82.2721H82.4081H82.2881H81.9241H80.5081L75.2401 35.664L57.5121 35.708H57.4041V33.324L57.5121 33.216C68.6361 33.216 78.2041 33.24 82.4041 33.28H82.4481V33.324C82.4481 34.084 82.4401 34.672 82.4241 35.088C82.4241 35.276 82.4241 35.42 82.4241 35.536C82.4241 35.652 82.4001 35.676 82.4001 35.672Z" fill="#E0E0E0"/>
<path id="Vector_37" d="M82.4079 37.056H71.5959V46.908H82.4079V37.056Z" fill="#F5F5F5"/>
<path id="Vector_38" d="M82.3999 46.908C82.3952 46.8454 82.3952 46.7826 82.3999 46.72V46.184C82.3999 45.704 82.3999 45.028 82.3759 44.184C82.3759 42.452 82.3479 40.004 82.3279 37.064L82.4239 37.16H71.6239L71.7319 37.052V42.252C71.7319 43.904 71.7319 45.452 71.7319 46.916L71.5999 46.8L79.3999 46.848L81.6119 46.876H82.1999H82.4119C82.3494 46.8818 82.2864 46.8818 82.2239 46.876H81.6519L79.4599 46.9L71.5999 46.952H71.5039V46.852C71.5039 45.408 71.5039 43.84 71.5039 42.188V39.704C71.5039 39.272 71.5039 38.832 71.5039 38.392V37.06L71.6159 36.948H82.4159H82.5079V37.04C82.4879 40.004 82.4719 42.472 82.4599 44.24C82.4599 45.08 82.4599 45.748 82.4359 46.24C82.4359 46.4533 82.4359 46.6253 82.4359 46.756C82.4296 46.8078 82.4175 46.8588 82.3999 46.908Z" fill="#E0E0E0"/>
<path id="Vector_39" d="M82.4079 48.452H71.5959V53.404H82.4079V48.452Z" fill="#F5F5F5"/>
<path id="Vector_40" d="M82.3999 53.404C82.3909 53.2842 82.3909 53.1638 82.3999 53.044V52.052C82.3999 51.176 82.3719 49.956 82.3559 48.452L82.4359 48.532L71.6359 48.564C71.5359 48.664 71.7679 48.428 71.7439 48.456V50.996C71.7439 51.824 71.7439 52.628 71.7439 53.396L71.6399 53.292L79.3719 53.34L81.6239 53.372H82.2319H82.4519C82.3867 53.3777 82.3211 53.3777 82.2559 53.372H81.6719L79.4399 53.4L71.6399 53.448H71.5359V53.344C71.5359 52.576 71.5359 51.772 71.5359 50.944C71.5359 50.544 71.5359 50.112 71.5359 49.684V48.404C71.5119 48.404 71.7479 48.192 71.6479 48.292L82.4479 48.32H82.5279V48.396C82.5079 49.92 82.4959 51.16 82.4839 52.044C82.4839 52.444 82.4839 52.776 82.4639 53.02C82.4529 53.1495 82.4314 53.2779 82.3999 53.404Z" fill="#E0E0E0"/>
<path id="Vector_41" d="M69.6841 37.084C65.6641 42.64 61.0361 47.852 57.0161 53.404L69.6841 37.084Z" fill="white"/>
<path id="Vector_42" d="M57.0161 53.404C57.0427 53.3388 57.0791 53.2781 57.1241 53.224L57.4601 52.724C57.7601 52.292 58.2041 51.68 58.7601 50.932C59.8801 49.428 61.4761 47.396 63.2641 45.176C65.0521 42.956 66.6681 40.94 67.8161 39.464L69.1681 37.716L69.5401 37.24C69.6281 37.136 69.6761 37.08 69.6841 37.084C69.6572 37.1503 69.6209 37.2122 69.5761 37.268C69.4841 37.404 69.3761 37.568 69.2401 37.764C68.9401 38.196 68.4961 38.808 67.9401 39.56C66.8241 41.06 65.2241 43.092 63.4361 45.316C61.6481 47.54 60.0321 49.548 58.8841 51.024L57.5321 52.776C57.3801 52.964 57.2601 53.12 57.1601 53.248C57.0601 53.376 57.0241 53.408 57.0161 53.404Z" fill="#E0E0E0"/>
<path id="Vector_43" d="M70.0001 53.404C69.9521 53.444 67.0081 49.804 63.4201 45.3C59.8321 40.796 56.9641 37.096 57.0201 37.056C57.0761 37.016 60.0121 40.656 63.6001 45.164C67.1881 49.672 70.0521 53.368 70.0001 53.404Z" fill="#E0E0E0"/>
<path id="Vector_44" d="M54.636 37.092C54.636 37.4939 54.5169 37.8868 54.2936 38.2209C54.0703 38.5551 53.7529 38.8155 53.3816 38.9693C53.0103 39.1231 52.6018 39.1634 52.2076 39.085C51.8134 39.0065 51.4514 38.813 51.1672 38.5288C50.883 38.2447 50.6895 37.8826 50.6111 37.4884C50.5327 37.0943 50.5729 36.6857 50.7267 36.3144C50.8805 35.9431 51.1409 35.6257 51.4751 35.4025C51.8093 35.1792 52.2021 35.06 52.604 35.06C53.1429 35.06 53.6598 35.2741 54.0409 35.6552C54.4219 36.0362 54.636 36.5531 54.636 37.092Z" fill="#E0E0E0"/>
<path id="Vector_45" d="M87.8721 32.16C87.8721 32.5619 87.7529 32.9547 87.5297 33.2889C87.3064 33.6231 86.989 33.8835 86.6177 34.0373C86.2464 34.1911 85.8379 34.2314 85.4437 34.1529C85.0495 34.0745 84.6874 33.881 84.4033 33.5968C84.1191 33.3127 83.9256 32.9506 83.8472 32.5564C83.7687 32.1622 83.809 31.7537 83.9628 31.3824C84.1166 31.0111 84.377 30.6937 84.7112 30.4704C85.0453 30.2472 85.4382 30.128 85.8401 30.128C86.379 30.128 86.8959 30.3421 87.2769 30.7232C87.658 31.1042 87.8721 31.6211 87.8721 32.16Z" fill="#E0E0E0"/>
<path id="Vector_46" d="M146.84 173.064V182.172H145.32V183.164H146.84V189.26H175.268V183.712H173.164V182.512H175.268V180.7H176.204V179.876H175.092V173.076L146.84 173.064Z" fill="#F5F5F5"/>
<path id="Vector_47" d="M167.72 173.092V189.156H175.268V183.608H173.164V182.504L175.268 182.54V180.728H176.224L176.204 179.792L175.092 179.764V173.064L167.72 173.092Z" fill="#E0E0E0"/>
<path id="Vector_48" d="M168.256 183.032C168.256 183.088 163.112 183.132 156.768 183.132C150.424 183.132 145.28 183.088 145.28 183.032C145.28 182.976 150.424 182.932 156.768 182.932C163.112 182.932 168.256 182.976 168.256 183.032Z" fill="#E0E0E0"/>
<path id="Vector_49" d="M168.256 182.108C168.256 182.164 163.112 182.208 156.768 182.208C150.424 182.208 145.28 182.164 145.28 182.108C145.28 182.052 150.424 182.004 156.768 182.004C163.112 182.004 168.256 182.052 168.256 182.108Z" fill="#E0E0E0"/>
<path id="Vector_50" d="M169.732 179.6C169.732 179.656 164.588 179.7 158.244 179.7C151.9 179.7 146.756 179.656 146.756 179.6C146.756 179.544 151.9 179.5 158.244 179.5C164.588 179.5 169.732 179.56 169.732 179.6Z" fill="#E0E0E0"/>
<path id="Vector_51" d="M169.876 186.4C169.876 186.456 164.732 186.504 158.388 186.504C152.044 186.504 146.896 186.456 146.896 186.4C146.896 186.344 152.04 186.3 158.388 186.3C164.736 186.3 169.876 186.348 169.876 186.4Z" fill="#E0E0E0"/>
<path id="Vector_52" d="M61.008 144.164H82.696C83.428 144.164 84.13 143.873 84.6476 143.356C85.1652 142.838 85.456 142.136 85.456 141.404V134.72C85.456 134.109 85.3356 133.503 85.1016 132.938C84.8676 132.373 84.5246 131.86 84.0923 131.428C83.6599 130.995 83.1467 130.652 82.5818 130.418C82.0169 130.184 81.4114 130.064 80.8 130.064H60.844L61.008 144.164Z" fill="#EBEBEB"/>
<path id="Vector_53" d="M82.3321 148.368H39.6881C39.1336 148.364 38.6031 148.141 38.2121 147.748C37.8211 147.354 37.6011 146.823 37.6001 146.268C37.6012 145.71 37.8232 145.176 38.2175 144.781C38.6119 144.387 39.1464 144.165 39.7041 144.164H82.3321C82.8894 144.165 83.4236 144.387 83.8173 144.782C84.211 145.176 84.4321 145.711 84.4321 146.268C84.4321 146.825 84.2108 147.359 83.817 147.753C83.4232 148.147 82.8891 148.368 82.3321 148.368Z" fill="#EBEBEB"/>
<path id="Vector_54" d="M30.9961 88.176L54.4561 87.776L69.3481 144.06L37.6001 144.36L25.6001 95.024C25.401 94.2078 25.3903 93.357 25.5687 92.5361C25.7472 91.7151 26.1101 90.9455 26.6301 90.2857C27.1501 89.6258 27.8134 89.0929 28.5698 88.7274C29.3263 88.3619 30.156 88.1733 30.9961 88.176Z" fill="#E0E0E0"/>
<path id="Vector_55" d="M42.6841 148.368L35.6641 189.16H37.5881L46.8161 148.368H42.6841Z" fill="#EBEBEB"/>
<path id="Vector_56" d="M59.232 148.368L51.772 189.16H53.696L63.364 148.368H59.232Z" fill="#E0E0E0"/>
<path id="Vector_57" d="M77.5359 148.368L85.8559 189.16H83.9319L73.3999 148.368H77.5359Z" fill="#EBEBEB"/>
<path id="Vector_58" d="M51.772 87.76L63.372 144.104H72.276L62.976 94.32C62.6349 92.4779 61.6598 90.8133 60.2197 89.615C58.7796 88.4167 56.9654 87.7604 55.092 87.76H51.772Z" fill="#EBEBEB"/>
</g>
<g id="freepik--Floor--inject-18">
<path id="Vector_59" d="M182.648 189.384C182.648 189.44 145.644 189.488 100.004 189.488C54.364 189.488 17.3521 189.44 17.3521 189.384C17.3521 189.328 54.348 189.28 100.004 189.28C145.66 189.28 182.648 189.324 182.648 189.384Z" fill="#263238"/>
</g>
<g id="freepik--Briefcase--inject-18">
<path id="Vector_60" d="M77.812 189.5H47.228L49.54 167.236L77.812 167.052V189.5Z" fill="#0038FF"/>
<g id="Group" opacity="0.4">
<path id="Vector_61" d="M77.812 189.5H47.228L49.54 167.236L77.812 167.052V189.5Z" fill="black"/>
</g>
<path id="Vector_62" d="M82.272 167.052H51.688V189.496H82.272V167.052Z" fill="#0038FF"/>
<g id="Group_2" opacity="0.2">
<path id="Vector_63" d="M82.272 167.052H51.688V189.496H82.272V167.052Z" fill="black"/>
</g>
<path id="Vector_64" d="M82.528 177.92C82.528 177.976 75.648 178.024 67.164 178.024C58.68 178.024 51.792 177.976 51.792 177.92C51.792 177.864 58.672 177.812 67.164 177.812C75.656 177.812 82.528 177.86 82.528 177.92Z" fill="#263238"/>
<path id="Vector_65" d="M57.136 180.08C56.9973 178.963 56.9973 177.833 57.136 176.716C57.2747 177.833 57.2747 178.963 57.136 180.08Z" fill="#263238"/>
<path id="Vector_66" d="M78.4001 179.96C78.2615 178.963 78.2615 177.953 78.4001 176.956C78.5388 177.953 78.5388 178.963 78.4001 179.96Z" fill="#263238"/>
<path id="Vector_67" d="M71.664 167.168C71.664 167.168 71.664 166.924 71.592 166.504C71.4854 165.909 71.2536 165.343 70.912 164.844C70.4079 164.103 69.7088 163.516 68.892 163.148C67.8855 162.705 66.7908 162.498 65.692 162.544C64.5866 162.553 63.4958 162.797 62.492 163.26C61.6794 163.64 60.9763 164.219 60.448 164.944C60.0939 165.434 59.8397 165.988 59.7 166.576C59.604 166.996 59.6 167.236 59.58 167.236C59.5739 167.177 59.5739 167.119 59.58 167.06C59.5806 166.892 59.5966 166.725 59.628 166.56C59.7402 165.949 59.9816 165.37 60.336 164.86C60.8632 164.098 61.5802 163.488 62.416 163.088C63.4355 162.605 64.5478 162.348 65.676 162.336C66.8057 162.289 67.9306 162.508 68.96 162.976C69.8009 163.367 70.5148 163.986 71.02 164.764C71.3622 165.283 71.5799 165.875 71.656 166.492C71.6707 166.658 71.6707 166.826 71.656 166.992C71.6688 167.05 71.6715 167.109 71.664 167.168Z" fill="#263238"/>
</g>
<g id="freepik--Plant--inject-18">
<path id="Vector_68" d="M60.1919 80.48C61.6534 79.7936 63.2967 79.5945 64.8799 79.912C65.7319 80.052 66.6199 80.312 67.1959 80.944C67.7719 81.576 67.8839 82.708 67.2199 83.256C66.7913 83.5461 66.275 83.6777 65.7599 83.628C64.5199 83.628 63.1479 83.396 62.1599 84.14C61.5959 84.564 61.2199 85.272 60.5599 85.48C60.2222 85.5577 59.8684 85.5236 59.5518 85.383C59.2351 85.2423 58.9726 85.0026 58.8039 84.7C58.4835 84.0836 58.4119 83.3677 58.6039 82.7C58.6799 82.2327 58.8627 81.7893 59.1382 81.4042C59.4136 81.0192 59.7742 80.7029 60.1919 80.48Z" fill="#0038FF"/>
<path id="Vector_69" d="M56.928 74.172C57.8 75.42 59.492 75.008 60.28 74.248C61.068 73.488 61.396 72.384 61.7 71.336C62.388 68.936 63.084 66.416 62.572 63.972C62.4476 63.2319 62.1225 62.5401 61.632 61.972C61.3831 61.6925 61.0651 61.4833 60.7099 61.3653C60.3547 61.2474 59.9747 61.2249 59.608 61.3C58.752 61.524 58.22 62.36 57.836 63.16C56.7056 65.5106 56.1139 68.0838 56.104 70.692C56.104 71.892 56.24 73.176 56.928 74.176" fill="#0038FF"/>
<path id="Vector_70" d="M54.532 75.96C54.9804 75.3754 55.279 74.69 55.4017 73.9635C55.5245 73.237 55.4676 72.4915 55.236 71.792C54.7618 70.387 53.9075 69.1409 52.768 68.192C51.4763 67.048 49.9735 66.1675 48.344 65.6C47.7103 65.3414 47.0275 65.2253 46.344 65.26C46.0044 65.2794 45.6748 65.3819 45.384 65.5583C45.0932 65.7347 44.8501 65.9798 44.676 66.272C44.208 67.16 44.676 68.236 45.136 69.112C45.9879 70.6606 46.9603 72.1398 48.044 73.536C48.912 74.66 49.912 75.768 51.244 76.272C52.576 76.776 53.952 76.72 54.656 75.8" fill="#0038FF"/>
<path id="Vector_71" d="M56.868 92.96C56.9123 92.7736 56.9391 92.5834 56.948 92.392C56.988 91.992 57.036 91.464 57.096 90.848C57.1737 90.0879 57.2898 89.3323 57.444 88.584C57.6453 87.6724 57.9209 86.7787 58.268 85.912C58.6056 85.0447 59.0648 84.2299 59.632 83.492C60.0942 82.8909 60.6844 82.4004 61.36 82.056C61.8131 81.8296 62.2991 81.6757 62.8 81.6C62.9902 81.593 63.1793 81.5662 63.364 81.52C63.1725 81.4993 62.9794 81.4993 62.788 81.52C62.2645 81.5643 61.7528 81.6997 61.276 81.92C60.5644 82.2555 59.9402 82.7511 59.452 83.368C58.8608 84.1156 58.3849 84.9475 58.04 85.836C57.6957 86.7166 57.428 87.6253 57.24 88.552C57.0937 89.3106 56.9935 90.0773 56.94 90.848C56.892 91.504 56.872 92.048 56.864 92.4C56.8455 92.5863 56.8469 92.774 56.868 92.96Z" fill="#263238"/>
<path id="Vector_72" d="M56.9721 91.772C56.984 91.6844 56.984 91.5956 56.9721 91.508V90.756C56.9721 90.108 56.9721 89.156 57.0041 88C57.0601 85.668 57.2641 83.164 57.6481 79.628C58.0161 76.308 58.5081 72.428 59.0281 69.924C59.1401 69.352 59.2521 68.84 59.3561 68.388C59.4601 67.936 59.5441 67.548 59.6281 67.232C59.7121 66.916 59.7561 66.696 59.8041 66.504C59.829 66.4194 59.8437 66.3321 59.8481 66.244C59.8069 66.3224 59.776 66.4057 59.7561 66.492L59.5401 67.208C59.4441 67.52 59.3441 67.908 59.2321 68.36C59.1201 68.812 58.9881 69.32 58.8681 69.892C58.2227 72.8651 57.738 75.8708 57.4161 78.896C57.0161 82.436 56.8561 85.66 56.8401 87.996C56.8401 89.164 56.8401 90.108 56.8801 90.76C56.8801 91.064 56.9121 91.312 56.9241 91.512C56.9319 91.6 56.9479 91.687 56.9721 91.772Z" fill="#263238"/>
<path id="Vector_73" d="M56.988 85.552C57.0107 85.2858 57.0107 85.0182 56.988 84.752C56.96 84.248 56.888 83.52 56.748 82.628C56.5763 81.5837 56.3452 80.55 56.056 79.532C55.7186 78.2792 55.2853 77.0543 54.76 75.868C53.8633 73.6803 52.5756 71.6742 50.96 69.948C50.6803 69.651 50.3809 69.373 50.064 69.116C49.928 69 49.808 68.884 49.664 68.792L49.316 68.552C49.1076 68.4004 48.8868 68.2666 48.656 68.152C49.4177 68.7479 50.1405 69.3918 50.82 70.08C52.3827 71.8214 53.6367 73.8167 54.528 75.98C55.0417 77.1604 55.476 78.3738 55.828 79.612C56.1257 80.6201 56.3713 81.6427 56.564 82.676C56.728 83.56 56.82 84.276 56.876 84.78C56.8943 85.0397 56.9318 85.2978 56.988 85.552Z" fill="#263238"/>
<path id="Vector_74" d="M50.98 96.524L51.6 105.06H62.568L63.192 96.524H50.98Z" fill="#263238"/>
<path id="Vector_75" d="M64.4999 93.156H49.9199V96.52H64.4999V93.156Z" fill="#263238"/>
<path id="Vector_76" d="M49.9199 104.732V105.664H50.6039H64.2599V104.732H49.9199Z" fill="#455A64"/>
<path id="Vector_77" d="M51.276 107.308L50.604 105.664H63.736L62.952 107.308H51.276Z" fill="#455A64"/>
<path id="Vector_78" d="M62.9881 99.312C62.9881 99.312 62.9881 99.34 62.9361 99.392L62.7721 99.608L62.1361 100.408L62.1041 100.448L62.0801 100.408L60.5081 98.236H60.6001L59.0521 100.424L59.0041 100.496L58.9521 100.428C58.3801 99.752 57.7521 99.016 57.1201 98.248H57.2241L57.1241 98.376L55.4841 100.428L55.4281 100.496L55.3801 100.424L53.8321 98.24H53.9241L52.0201 100.408L51.9841 100.448L51.9601 100.404L51.3641 99.4L51.2121 99.136C51.1918 99.1063 51.1757 99.074 51.1641 99.04C51.1881 99.0659 51.2095 99.094 51.2281 99.124L51.3961 99.38L52.0241 100.364H51.9641L53.8361 98.168L53.8841 98.112L53.9281 98.172C54.4001 98.832 54.9241 99.568 55.4881 100.348H55.3801L57.0161 98.288L57.1161 98.164L57.1681 98.096L57.2241 98.16C57.8641 98.928 58.4801 99.668 59.0521 100.348H58.9481L60.5081 98.168L60.5561 98.104L60.6001 98.168L62.1361 100.364H62.0801C62.3601 100.032 62.5841 99.764 62.7441 99.564L62.9241 99.36C62.9434 99.3415 62.9649 99.3254 62.9881 99.312Z" fill="#E0E0E0"/>
<path id="Vector_79" d="M63.3439 96.468C63.3439 96.504 60.5959 96.536 57.2079 96.536C53.8199 96.536 51.0679 96.504 51.0679 96.468C51.0679 96.432 53.8159 96.4 57.1999 96.4C60.5839 96.4 63.3439 96.428 63.3439 96.468Z" fill="#455A64"/>
<path id="Vector_80" d="M63.9001 105.756C63.9001 105.796 60.9121 105.824 57.2281 105.824C53.5441 105.824 50.5601 105.796 50.5601 105.756C50.5601 105.716 53.5441 105.688 57.2281 105.688C60.9121 105.688 63.9001 105.72 63.9001 105.756Z" fill="#263238"/>
</g>
<g id="freepik--Desk--inject-18">
<path id="Vector_81" d="M120.64 107.496H152.752V105.936H120.64V107.496Z" fill="#263238"/>
<path id="Vector_82" d="M157.728 107.496L163.752 84.928H138.676L133.224 107.496H157.728Z" fill="#263238"/>
<path id="Vector_83" d="M134.728 105.788H157.124L162.34 85.972H139.824L134.728 105.788Z" fill="#455A64"/>
<path id="Vector_84" d="M157.28 106H134.48L139.68 85.78H162.608L157.28 106ZM134.984 105.6H156.984L162.092 86.18H140L134.984 105.6Z" fill="#263238"/>
<path id="Vector_85" d="M56.08 111.88H54.46V189.304H56.08V111.88Z" fill="#455A64"/>
<path id="Vector_86" d="M57.704 112.1H56.084V189.3H57.704V112.1Z" fill="#263238"/>
<path id="Vector_87" d="M155.988 111.88H154.368V189.304H155.988V111.88Z" fill="#455A64"/>
<path id="Vector_88" d="M157.608 112.1H155.988V189.3H157.608V112.1Z" fill="#263238"/>
<path id="Vector_89" d="M180.236 107.38H35.6641V113.732H180.236V107.38Z" fill="#455A64"/>
<path id="Vector_90" d="M155.18 113.732H100.952V124.244H155.18V113.732Z" fill="#455A64"/>
<path id="Vector_91" d="M130.484 118.26C130.484 118.497 130.414 118.729 130.282 118.927C130.15 119.124 129.962 119.278 129.743 119.369C129.524 119.459 129.283 119.483 129.05 119.437C128.817 119.391 128.603 119.276 128.435 119.109C128.268 118.941 128.153 118.727 128.107 118.494C128.061 118.261 128.085 118.02 128.175 117.801C128.266 117.582 128.42 117.394 128.617 117.262C128.815 117.13 129.047 117.06 129.284 117.06C129.602 117.06 129.907 117.186 130.133 117.411C130.358 117.637 130.484 117.942 130.484 118.26Z" fill="#263238"/>
<path id="Vector_92" d="M166.992 113.732C166.992 113.788 148.192 113.836 125.032 113.836C101.872 113.836 83.072 113.788 83.072 113.732C83.072 113.676 101.872 113.628 125.032 113.628C148.192 113.628 166.992 113.676 166.992 113.732Z" fill="#263238"/>
</g>
<g id="freepik--Character--inject-18">
<path id="Vector_93" d="M116.952 39.008C117.168 39.008 120.092 39.496 120.092 39.496L124.048 44.48L124.644 45.424L119.308 48.836L116.952 45.348L114.952 44.048C115.25 43.8206 115.605 43.6797 115.977 43.6409C116.35 43.602 116.726 43.6668 117.064 43.828C117.853 44.1595 118.701 44.3256 119.556 44.316L118.852 42.316L116.684 41.884L116.952 39.008Z" fill="#EB996E"/>
<path id="Vector_94" d="M117.2 35.52C117.283 35.4983 117.37 35.4943 117.454 35.5082C117.539 35.5221 117.62 35.5536 117.691 35.6008C117.763 35.6479 117.824 35.7096 117.87 35.7818C117.917 35.8541 117.947 35.9352 117.96 36.02C118.284 38.064 119.264 44.216 119.56 46.02C119.585 46.1636 119.555 46.3114 119.477 46.4343C119.398 46.5571 119.277 46.6462 119.136 46.684L114.428 48C114.347 48.0232 114.262 48.0284 114.178 48.0154C114.095 48.0024 114.015 47.9715 113.945 47.9247C113.874 47.8779 113.815 47.8165 113.771 47.7445C113.726 47.6726 113.698 47.5919 113.688 47.508L112.4 37.296C112.381 37.1466 112.417 36.9952 112.502 36.8707C112.587 36.7461 112.714 36.6569 112.86 36.62L117.2 35.52Z" fill="#263238"/>
<path id="Vector_95" d="M114.04 46.74L118.84 45.4L117.568 36.904C117.551 36.7896 117.51 36.68 117.448 36.5825C117.386 36.485 117.303 36.4018 117.207 36.3383C117.11 36.2749 117.001 36.2326 116.887 36.2143C116.772 36.1959 116.656 36.202 116.544 36.232L112.7 37.252L114.04 46.74Z" fill="#EBEBEB"/>
<path id="Vector_96" d="M118.74 40.524L116.584 42.124C116.584 42.124 116.764 42.692 117.092 42.732C117.791 42.6407 118.481 42.4935 119.156 42.292L118.74 40.524Z" fill="#EB996E"/>
<path id="Vector_97" d="M118.48 39.232L116.22 40.224C116.22 40.224 116.076 40.96 116.92 40.856L116.164 41.4C116.164 41.4 116.352 41.728 117.296 41.768C118.24 41.808 119.156 40.496 119.156 40.496L118.48 39.232Z" fill="#EB996E"/>
<path id="Vector_98" d="M120.724 41.748C120.724 41.776 120.448 41.724 120.148 41.444C119.983 41.2893 119.809 41.1437 119.628 41.008C119.526 40.9331 119.407 40.8857 119.282 40.8703C119.156 40.8548 119.029 40.872 118.912 40.92C118.285 41.2813 117.629 41.5916 116.952 41.848C117.537 41.4036 118.171 41.0266 118.84 40.724C118.993 40.6616 119.161 40.6422 119.324 40.668C119.468 40.702 119.604 40.7645 119.724 40.852C119.911 40.9964 120.083 41.1599 120.236 41.34C120.389 41.4872 120.552 41.6235 120.724 41.748Z" fill="#D1734A"/>
<path id="Vector_99" d="M120.28 47.38C119.893 46.9121 119.652 46.3403 119.588 45.7363C119.524 45.1322 119.639 44.5227 119.92 43.984C119.81 44.5531 119.769 45.1331 119.796 45.712C119.89 46.2853 120.052 46.8454 120.28 47.38Z" fill="#D1734A"/>
<path id="Vector_100" d="M120 40.228C119.972 40.252 119.852 40.08 119.564 39.988C119.179 39.8805 118.767 39.9278 118.416 40.12C117.992 40.324 117.616 40.584 117.316 40.708C117.016 40.832 116.804 40.86 116.8 40.836C116.796 40.812 116.976 40.74 117.248 40.576C117.52 40.412 117.872 40.148 118.332 39.932C118.549 39.8233 118.786 39.7594 119.028 39.744C119.23 39.7321 119.432 39.7692 119.616 39.852C119.916 40 120 40.22 120 40.228Z" fill="#D1734A"/>
<path id="Vector_101" d="M119.812 54.4L131.568 61.948L128.452 70.86C128.452 70.86 120.408 68.376 120.556 68.116C120.704 67.856 119.812 54.4 119.812 54.4Z" fill="#0038FF"/>
<path id="Vector_102" d="M116.772 175.032L114.92 183.548C114.92 183.548 122.956 188.288 122.768 189.892L106.128 186.9L108.464 173.512L116.772 175.032Z" fill="#263238"/>
<path id="Vector_103" d="M106.128 186.9L106.416 185.56L122.264 188.932C122.264 188.932 122.944 189.388 122.768 189.892L106.128 186.9Z" fill="#455A64"/>
<path id="Vector_104" d="M97.8441 175.968L97.5681 184.676C97.5681 184.676 106.332 187.876 106.436 189.496L89.5281 189.572L89.4001 175.972L97.8441 175.968Z" fill="#263238"/>
<g id="Group_3" opacity="0.6">
<path id="Vector_105" d="M89.5281 189.572L89.5681 188.2L105.764 188.644C105.764 188.644 106.52 188.968 106.436 189.496L89.5281 189.572Z" fill="#455A64"/>
</g>
<path id="Vector_106" d="M100.296 33.144L102.02 53.144L112.02 52.344C112.08 51.176 111.996 46.656 111.996 46.656C111.996 46.656 116.16 46.008 116.212 41.856C116.236 39.832 115.948 35.656 115.644 31.892C115.487 29.8827 114.549 28.0148 113.031 26.689C111.513 25.3632 109.536 24.6851 107.524 24.8C106.497 24.8599 105.492 25.1249 104.569 25.5795C103.646 26.0341 102.823 26.669 102.149 27.4467C101.476 28.2245 100.964 29.1293 100.646 30.1078C100.328 31.0864 100.209 32.1187 100.296 33.144Z" fill="#EB996E"/>
<path id="Vector_107" d="M112 46.58C110.078 46.6149 108.188 46.0775 106.572 45.036C106.572 45.036 107.856 48.032 112.008 47.656L112 46.58Z" fill="#D1734A"/>
<path id="Vector_108" d="M114.04 34.8C114.041 34.9554 113.982 35.105 113.874 35.2171C113.766 35.3292 113.619 35.3948 113.464 35.4C113.388 35.406 113.312 35.3968 113.24 35.3729C113.169 35.349 113.102 35.311 113.045 35.2611C112.988 35.2111 112.942 35.1502 112.908 35.082C112.875 35.0138 112.856 34.9397 112.852 34.864C112.851 34.7093 112.91 34.5602 113.017 34.4483C113.123 34.3363 113.269 34.2702 113.424 34.264C113.5 34.258 113.576 34.2672 113.648 34.291C113.72 34.3148 113.787 34.3528 113.845 34.4027C113.902 34.4526 113.949 34.5135 113.982 34.5817C114.016 34.6499 114.036 34.7241 114.04 34.8Z" fill="#263238"/>
<path id="Vector_109" d="M114.76 33.96C114.688 34.04 114.236 33.704 113.596 33.708C112.956 33.712 112.488 34.028 112.42 33.952C112.352 33.876 112.46 33.776 112.664 33.628C112.941 33.4366 113.271 33.3347 113.608 33.336C113.941 33.3348 114.266 33.4399 114.536 33.636C114.732 33.784 114.8 33.928 114.76 33.96Z" fill="#263238"/>
<path id="Vector_110" d="M107.896 34.8C107.898 34.955 107.84 35.1046 107.733 35.2168C107.626 35.329 107.479 35.3948 107.324 35.4C107.248 35.406 107.172 35.3968 107.1 35.373C107.028 35.3492 106.961 35.3112 106.904 35.2613C106.846 35.2114 106.799 35.1505 106.766 35.0823C106.732 35.0141 106.713 34.9399 106.708 34.864C106.708 34.7089 106.768 34.5599 106.875 34.448C106.983 34.3361 107.129 34.2702 107.284 34.264C107.359 34.2586 107.435 34.2682 107.507 34.2922C107.579 34.3163 107.645 34.3544 107.702 34.4042C107.759 34.4541 107.805 34.5147 107.839 34.5827C107.872 34.6506 107.891 34.7245 107.896 34.8Z" fill="#263238"/>
<path id="Vector_111" d="M108.472 34.08C108.4 34.156 107.948 33.824 107.308 33.828C106.668 33.832 106.2 34.148 106.132 34.068C106.064 33.988 106.172 33.896 106.376 33.748C106.652 33.5535 106.983 33.4513 107.32 33.456C107.654 33.4534 107.979 33.5586 108.248 33.756C108.444 33.904 108.508 34.044 108.472 34.08Z" fill="#263238"/>
<path id="Vector_112" d="M110.8 38.824C111.138 38.7186 111.487 38.6555 111.84 38.636C112 38.636 112.156 38.588 112.184 38.476C112.197 38.3075 112.16 38.139 112.076 37.992C111.92 37.592 111.76 37.192 111.592 36.748C110.92 34.976 110.436 33.52 110.508 33.496C110.58 33.472 111.18 34.884 111.852 36.652C112.012 37.092 112.168 37.508 112.312 37.904C112.415 38.1019 112.447 38.3296 112.4 38.548C112.376 38.6059 112.339 38.6574 112.292 38.6983C112.245 38.7393 112.189 38.7687 112.128 38.784C112.038 38.8093 111.945 38.8228 111.852 38.824C111.503 38.8697 111.149 38.8697 110.8 38.824Z" fill="#263238"/>
<path id="Vector_113" d="M108.912 39.268C109.016 39.268 109.016 39.956 109.612 40.468C110.208 40.98 110.944 40.868 110.952 40.984C110.96 41.1 110.788 41.116 110.472 41.124C110.065 41.1264 109.669 40.9848 109.356 40.724C109.046 40.4775 108.846 40.1178 108.8 39.724C108.8 39.436 108.864 39.264 108.912 39.268Z" fill="#263238"/>
<path id="Vector_114" d="M108.64 31.572C108.576 31.748 107.936 31.664 107.184 31.756C106.432 31.848 105.828 32.052 105.728 31.896C105.684 31.82 105.788 31.656 106.036 31.496C106.362 31.2884 106.731 31.1584 107.116 31.1161C107.5 31.0738 107.889 31.1203 108.252 31.252C108.528 31.352 108.664 31.492 108.64 31.572Z" fill="#263238"/>
<path id="Vector_115" d="M114.528 32.108C114.416 32.256 113.972 32.108 113.444 32.108C112.916 32.108 112.464 32.208 112.36 32.056C112.316 31.98 112.388 31.836 112.584 31.696C112.848 31.532 113.154 31.4498 113.465 31.4598C113.775 31.4698 114.075 31.5714 114.328 31.752C114.516 31.888 114.576 32.04 114.528 32.108Z" fill="#263238"/>
<path id="Vector_116" d="M104.8 28.58H104.776C104.119 29.1061 103.689 29.8654 103.576 30.7V30.784C103.412 31.984 103.444 33.184 103.268 34.384C103.092 35.584 102.684 36.784 101.804 37.584C101.444 37.92 100.808 38.152 100.512 37.76C100.411 37.597 100.359 37.4079 100.364 37.216C100.14 34.348 99.3562 31.804 99.3642 28.816C99.3598 28.4143 99.4516 28.0174 99.6318 27.6583C99.812 27.2993 100.075 26.9885 100.4 26.752C101.028 26.304 101.792 25.836 102.492 26.168C103.192 26.5 104.092 27.804 104.632 28.356" fill="#263238"/>
<path id="Vector_117" d="M101.7 35.028C101.628 34.996 98.8401 34.18 98.9281 37.028C99.0161 39.876 101.86 39.196 101.86 39.116C101.86 39.036 101.7 35.028 101.7 35.028Z" fill="#EB996E"/>
<path id="Vector_118" d="M100.956 38.064C100.956 38.064 100.908 38.1 100.828 38.14C100.711 38.1947 100.578 38.2019 100.456 38.16C100.269 38.0496 100.114 37.8914 100.008 37.7016C99.9019 37.5119 99.848 37.2974 99.852 37.08C99.8372 36.8357 99.8769 36.5912 99.968 36.364C99.9909 36.2731 100.036 36.1891 100.098 36.1194C100.161 36.0497 100.24 35.9963 100.328 35.964C100.385 35.9476 100.445 35.9509 100.5 35.9734C100.554 35.996 100.599 36.0364 100.628 36.088C100.668 36.168 100.652 36.224 100.668 36.228C100.684 36.232 100.724 36.18 100.7 36.064C100.682 35.9932 100.639 35.931 100.58 35.888C100.499 35.8337 100.401 35.8109 100.304 35.824C100.188 35.8523 100.081 35.9093 99.9933 35.9897C99.9052 36.0701 99.8387 36.1713 99.8 36.284C99.6867 36.5347 99.6373 36.8095 99.656 37.084C99.692 37.66 100.004 38.184 100.416 38.284C100.493 38.3036 100.574 38.3055 100.652 38.2895C100.731 38.2736 100.804 38.2403 100.868 38.192C100.956 38.132 100.968 38.068 100.956 38.064Z" fill="#D1734A"/>
<path id="Vector_119" d="M102.4 26.608C101.7 25.468 103.62 23.832 105.024 23.408C106.428 22.984 108.28 23.648 109.676 24.112C110.56 24.404 111.436 24.812 112.368 24.776C112.988 24.7099 113.596 24.555 114.172 24.316C114.748 24.0726 115.367 23.95 115.992 23.956C116.304 23.9626 116.608 24.0544 116.872 24.2215C117.136 24.3886 117.349 24.6246 117.488 24.904C117.724 25.48 117.388 26.272 116.768 26.356C116.966 26.2486 117.186 26.1905 117.411 26.1868C117.636 26.183 117.859 26.2337 118.06 26.3345C118.261 26.4352 118.435 26.5831 118.567 26.7656C118.698 26.948 118.784 27.1595 118.816 27.3822C118.848 27.6048 118.826 27.832 118.752 28.0443C118.678 28.2566 118.553 28.4478 118.389 28.6016C118.225 28.7553 118.026 28.8671 117.809 28.9275C117.592 28.9878 117.364 28.9948 117.144 28.948C117.544 28.64 118.168 29.148 118.116 29.652C118.062 29.9009 117.943 30.1313 117.773 30.3207C117.603 30.51 117.386 30.6518 117.144 30.732C115.944 31.252 114.572 31.084 113.344 30.672C112.116 30.26 110.976 29.616 109.744 29.172C108.512 28.728 106.484 27.928 105.264 28.372C104.364 28.692 103.736 29.776 103.228 29.536C102.988 29.408 102.782 29.2255 102.626 29.0031C102.469 28.7808 102.367 28.5249 102.328 28.256C102.261 27.7231 102.28 27.1829 102.384 26.656" fill="#263238"/>
<path id="Vector_120" d="M117.108 26.264C117.084 26.264 116.964 26.472 116.656 26.804C116.22 27.2678 115.678 27.618 115.076 27.824C114.191 28.1422 113.217 28.1034 112.36 27.716C111.392 27.28 110.564 26.4 109.6 25.6C108.716 24.7719 107.599 24.2356 106.4 24.064C105.905 24.0033 105.403 24.0564 104.931 24.2193C104.46 24.3822 104.032 24.6506 103.68 25.004C103.453 25.2508 103.279 25.5412 103.167 25.8575C103.056 26.1738 103.01 26.5094 103.032 26.844C103.048 27.0238 103.09 27.2003 103.156 27.368C103.208 27.48 103.24 27.536 103.248 27.532C103.194 27.3045 103.158 27.0731 103.14 26.84C103.141 26.2064 103.386 25.5974 103.824 25.14C104.164 24.8184 104.572 24.5774 105.018 24.4348C105.464 24.2922 105.936 24.2516 106.4 24.316C107.54 24.4972 108.599 25.0171 109.44 25.808C110.376 26.608 111.232 27.5 112.268 27.952C113.032 28.2784 113.88 28.35 114.688 28.1562C115.496 27.9624 116.22 27.5135 116.752 26.876C116.866 26.7401 116.965 26.5926 117.048 26.436C117.092 26.328 117.116 26.268 117.108 26.264Z" fill="#455A64"/>
<path id="Vector_121" d="M100.972 34.904C100.972 34.904 101.096 34.824 101.204 34.6C101.344 34.2753 101.394 33.9187 101.348 33.568C101.284 32.652 100.472 31.668 100.368 30.4C100.296 29.8143 100.406 29.2206 100.684 28.7C100.927 28.2887 101.298 27.9683 101.74 27.788C102.04 27.6614 102.369 27.6158 102.692 27.656C102.92 27.696 103.044 27.748 103.056 27.724C102.961 27.6363 102.843 27.5768 102.716 27.552C102.371 27.4622 102.007 27.4789 101.672 27.6C101.173 27.7759 100.749 28.1175 100.472 28.568C100.153 29.1324 100.022 29.7842 100.1 30.428C100.174 31.0533 100.359 31.6603 100.648 32.22C100.876 32.6552 101.045 33.1194 101.148 33.6C101.227 34.0424 101.165 34.4983 100.972 34.904Z" fill="#455A64"/>
<path id="Vector_122" d="M117.68 182.336C117.68 182.336 126.348 139.816 126.356 138.968L110.872 130.8L104.872 180.7L117.68 182.336Z" fill="#263238"/>
<path id="Vector_123" d="M98.184 183.76L110.156 110.068V94.172L92.82 95.412C92.612 96.032 88.24 183.856 88.24 183.856L89.928 183.76H98.184Z" fill="#263238"/>
<path id="Vector_124" d="M119.568 93.048L126.356 138.968L111.18 135.288L104.996 94.544L119.568 93.048Z" fill="#263238"/>
<path id="Vector_125" d="M122.184 112.828C122.184 112.828 124.824 110.56 125.084 108.852C125.344 107.144 121.92 79.652 121.92 79.652L120.172 56.924C120.172 57.324 120.22 54.06 119.692 53.864C118.092 53.26 114.804 52.164 114.804 52.164L112.924 50.476C112.924 50.476 116.3 64.908 116.956 68.852L122.184 112.828Z" fill="#0038FF"/>
<path id="Vector_126" d="M100.508 48.908L97.6681 50.8L87.0161 54.988L91.7481 72.832L91.1121 83.2L90.5081 89.78C90.5081 89.78 87.3361 106.072 84.5361 115.972C84.5361 115.972 87.6601 121.892 90.2281 122.716L91.2961 123.352L95.1041 95.468L98.3721 91.068C98.6881 90.644 98.9801 90.208 99.2561 89.76C100.056 88.452 101.888 85.48 103.348 83.188C105.276 80.16 107.748 73.28 107.016 70.344C106.284 67.408 100.508 48.908 100.508 48.908Z" fill="#0038FF"/>
<path id="Vector_127" d="M93.272 110.424C95.766 108.406 97.8375 105.916 99.368 103.096L93.272 110.424Z" fill="#263238"/>
<path id="Vector_128" d="M100.508 48.908L103.072 65.36C103.002 67.4634 102.654 69.5482 102.036 71.56L97.4599 86.36C97.4599 86.36 93.8599 94.428 95.1039 95.46C96.3479 96.492 106.024 95.46 106.024 95.46L119.12 93.56C119.412 93.5172 119.677 93.3639 119.859 93.1316C120.041 92.8994 120.128 92.606 120.1 92.312L118.156 72.224C117.5 70.836 117.232 67.996 116.956 66.988L112.924 50.48L112.1 50.372L110.308 51.6L109.364 51.676L101.44 47.84L100.508 48.908Z" fill="#EBEBEB"/>
<path id="Vector_129" d="M98.1201 84.212C100.236 77.616 102.976 66.892 102.976 66.892C103.828 72.492 102.896 78.232 100.812 83.512C99.1081 87.816 97.0481 91.072 95.6321 95.484L95.5881 95.664C95.5881 95.664 94.7881 95.708 94.8441 94.528C94.9001 93.348 96.0441 89.836 96.8081 87.892C97.5721 85.948 98.1201 84.212 98.1201 84.212Z" fill="#E0E0E0"/>
<path id="Vector_130" d="M110.764 52.996H108.984L108.452 55.432L110.008 57.316L111.576 57.16L112.088 55.412L111.668 54.436L110.764 52.996Z" fill="#0038FF"/>
<path id="Vector_131" d="M121.144 67.22C121.704 67.332 127.888 71.492 130.136 71.044C132.384 70.596 134.204 68.476 134.444 68.192C135.72 66.68 134.92 63.54 134.552 62.356C134.462 62.0671 134.34 61.7894 134.188 61.528L124.64 45.128L119.012 48.548L124.852 59.2L121.144 67.22Z" fill="#0038FF"/>
<path id="Vector_132" d="M75.092 87.048C74.722 86.0804 74.5614 85.0454 74.6207 84.0111C74.68 82.9769 74.9579 81.967 75.436 81.048C76.732 78.484 78.788 74.344 79.22 72.984C79.86 70.964 85.844 55.464 87.016 54.984L92.216 72.54L86.176 85.26L93.256 98.6L87.356 104.96C87.356 104.96 76.192 89.392 75.272 87.468C75.208 87.3293 75.148 87.1893 75.092 87.048Z" fill="#0038FF"/>
<path id="Vector_133" d="M93.5361 109.008C94.6526 107.963 95.6446 106.793 96.4921 105.52C96.4842 105.503 96.4802 105.485 96.4802 105.466C96.4802 105.447 96.4842 105.429 96.4921 105.412C96.5058 105.392 96.5235 105.375 96.5443 105.363C96.565 105.35 96.5881 105.343 96.6121 105.34C96.951 104.815 97.2608 104.271 97.5401 103.712C96.5521 103.068 95.2601 102.112 96.6641 101.896C98.3961 101.648 99.6321 100.808 99.8081 100.348C99.9841 99.888 99.4081 99.476 98.9521 99.768C98.4273 100.037 97.8671 100.231 97.2881 100.344C96.8258 100.453 96.3484 100.483 95.8761 100.432C95.3281 100.372 93.0761 99.396 92.6761 99.324L88.4641 103.756C88.4641 103.756 91.7001 107.2 93.5361 109.008Z" fill="#EB996E"/>
<path id="Vector_134" d="M121.104 67.708C121.035 67.5506 120.985 67.3854 120.956 67.216C120.872 66.896 120.768 66.416 120.652 65.844C120.356 64.3296 120.138 62.8009 120 61.264C119.862 59.7267 119.806 58.1832 119.832 56.64C119.832 56.048 119.864 55.572 119.888 55.24C119.891 55.068 119.91 54.8967 119.944 54.728C119.972 54.8984 119.98 55.0716 119.968 55.244C119.968 55.616 119.968 56.084 119.968 56.64C119.968 57.84 120.036 59.44 120.196 61.248C120.356 63.056 120.596 64.656 120.788 65.82C120.88 66.368 120.96 66.832 121.024 67.2C121.067 67.3664 121.093 67.5365 121.104 67.708Z" fill="#263238"/>
<path id="Vector_135" d="M126 68.656C126 68.656 125.952 68.656 125.864 68.624C125.741 68.5789 125.621 68.5227 125.508 68.456C125.092 68.1982 124.743 67.8443 124.492 67.424C124.141 66.8021 123.895 66.1263 123.764 65.424C123.559 64.5758 123.4 63.7173 123.288 62.852C123.12 61.004 122.98 59.344 122.888 58.136C122.848 57.564 122.816 57.084 122.788 56.704C122.769 56.5285 122.769 56.3515 122.788 56.176C122.833 56.3463 122.862 56.5204 122.876 56.696C122.916 57.096 122.972 57.552 123.036 58.12C123.168 59.32 123.332 60.996 123.496 62.828C123.612 63.74 123.784 64.604 123.956 65.38C124.072 66.0772 124.296 66.752 124.62 67.38C124.853 67.7903 125.172 68.1452 125.556 68.42C125.844 68.576 126.02 68.64 126 68.656Z" fill="#263238"/>
<g id="Group_4" opacity="0.3">
<path id="Vector_136" d="M122.776 56.192C122.289 58.035 121.952 59.9145 121.768 61.812C121.599 62.9444 121.659 64.0991 121.944 65.208C122.288 66.296 123.092 67.3 124.196 67.608C123.692 63.896 123.248 60.1773 122.864 56.452" fill="black"/>
</g>
<g id="Group_5" opacity="0.3">
<path id="Vector_137" d="M90.0239 92.156C90.0239 92.156 91.8959 95.992 92.9319 98C95.0919 89.076 92.3519 79.684 93.2439 70.548L91.6839 73.696L91.2439 80.98L90.9079 85.252C90.9079 85.252 90.5879 89.848 90.0239 92.156Z" fill="black"/>
</g>
<path id="Vector_138" d="M91.5361 55.152C91.657 55.3069 91.7629 55.473 91.8521 55.648C91.9521 55.812 92.0641 56.016 92.1841 56.256C92.3041 56.496 92.4521 56.772 92.5841 57.084C92.9103 57.813 93.1921 58.561 93.4281 59.324C93.9973 61.199 94.2831 63.1485 94.2761 65.108C94.274 65.9107 94.2192 66.7125 94.1121 67.508C94.0801 67.848 94.0161 68.152 93.9681 68.416C93.9201 68.68 93.8721 68.912 93.8281 69.096C93.7924 69.2903 93.7375 69.4806 93.6641 69.664C93.6749 69.4672 93.703 69.2718 93.7481 69.08C93.7801 68.892 93.8201 68.68 93.8561 68.396C93.8921 68.112 93.9401 67.828 93.9681 67.492C94.0504 66.7041 94.0891 65.9122 94.0841 65.12C94.0717 64.1523 93.9982 63.1864 93.8641 62.228C93.7164 61.2707 93.5094 60.3236 93.2441 59.392C93.0205 58.632 92.7534 57.8854 92.4441 57.156C92.3241 56.84 92.1841 56.568 92.0761 56.32C91.9681 56.072 91.8641 55.868 91.7761 55.7C91.6779 55.5259 91.5975 55.3423 91.5361 55.152Z" fill="#263238"/>
<path id="Vector_139" d="M86.12 85.368C86.092 85.388 85.824 84.968 85.32 84.308C84.6477 83.4764 83.8502 82.7544 82.956 82.168C82.4771 81.8443 81.8983 81.7025 81.324 81.768C80.8577 81.854 80.4164 82.0426 80.032 82.32C79.356 82.784 78.988 83.148 78.96 83.12C79.025 83.016 79.106 82.9228 79.2 82.844C79.4337 82.6106 79.6837 82.3941 79.948 82.196C80.3409 81.8987 80.7965 81.6949 81.28 81.6C81.8984 81.5117 82.5277 81.6541 83.048 82C83.9647 82.5958 84.768 83.3503 85.42 84.228C85.6176 84.4916 85.7992 84.7667 85.964 85.052C86.032 85.1486 86.0847 85.2552 86.12 85.368Z" fill="#263238"/>
<path id="Vector_140" d="M84.8001 81.164C85.5941 82.3755 86.0498 83.7772 86.1201 85.224C86.0561 85.224 85.9001 84.288 85.5321 83.172C85.1641 82.056 84.7561 81.2 84.8001 81.164Z" fill="#263238"/>
<path id="Vector_141" d="M89.9 91.908C90.0149 92.0695 90.1153 92.2408 90.2 92.42L90.96 93.856C91.596 95.076 92.4641 96.776 93.4281 98.684L93.4641 98.752L93.412 98.804L93.012 99.204C91.44 100.84 90.012 102.316 88.968 103.372L87.724 104.62C87.5777 104.779 87.4185 104.927 87.248 105.06C87.3674 104.884 87.5012 104.718 87.648 104.564L88.848 103.272C89.864 102.184 91.28 100.696 92.848 99.06L93.248 98.66V98.78C92.288 96.868 91.44 95.18 90.848 93.92L90.148 92.456C90.0477 92.2819 89.9646 92.0983 89.9 91.908Z" fill="#263238"/>
<path id="Vector_142" d="M97.6921 83.86C97.6817 83.7442 97.6817 83.6278 97.6921 83.512C97.6921 83.268 97.6921 82.94 97.6921 82.524C97.7121 81.648 97.7401 80.408 97.7761 78.888C97.8121 77.368 97.8521 75.528 97.9361 73.5C97.9871 71.2892 98.2877 69.0913 98.8321 66.948C99.1345 65.8496 99.5585 64.7884 100.096 63.784L100.172 63.936C99.6742 63.8508 99.2216 63.5948 98.8921 63.212C98.578 62.8533 98.3496 62.4279 98.2241 61.968C98.0409 61.1169 97.971 60.2454 98.0161 59.376C98.0161 57.748 98.0161 56.292 98.0161 55.076C98.0161 53.86 98.0161 52.912 98.0161 52.224C98.0161 51.904 98.0161 51.648 98.0161 51.456C98.0067 51.3683 98.0067 51.2798 98.0161 51.192C98.0313 51.2792 98.038 51.3676 98.0361 51.456C98.0361 51.648 98.0361 51.904 98.0561 52.224C98.0561 52.912 98.0801 53.876 98.1001 55.072C98.1201 56.268 98.1281 57.744 98.1441 59.376C98.1041 60.2285 98.1767 61.0825 98.3601 61.916C98.4797 62.3449 98.6943 62.7414 98.9881 63.076C99.2863 63.4234 99.6967 63.6555 100.148 63.732L100.292 63.756L100.224 63.884C99.6942 64.8742 99.2769 65.9208 98.9801 67.004C98.4417 69.1324 98.1386 71.3135 98.0761 73.508C97.9841 75.532 97.9321 77.36 97.8681 78.896C97.8041 80.432 97.7561 81.648 97.7201 82.528L97.6721 83.516C97.6845 83.6303 97.6912 83.7451 97.6921 83.86Z" fill="#263238"/>
<path id="Vector_143" d="M114.832 52.4C114.872 52.4696 114.904 52.5434 114.928 52.62C114.984 52.788 115.064 53.02 115.156 53.264L115.984 55.664C116.328 56.692 116.74 57.912 117.184 59.264C117.404 59.956 117.676 60.66 117.88 61.44C117.99 61.8456 118.007 62.2706 117.932 62.684C117.893 62.9046 117.81 63.115 117.687 63.3026C117.565 63.4903 117.406 63.6513 117.22 63.776L117.252 63.628C117.588 64.128 117.944 64.66 118.276 65.228C118.775 66.0321 119.152 66.9055 119.396 67.82C119.583 68.6813 119.644 69.5652 119.576 70.444C119.48 72.104 119.372 73.596 119.284 74.844C119.196 76.092 119.12 77.092 119.064 77.816C119.036 78.148 119.012 78.416 118.996 78.616C118.992 78.7104 118.979 78.8042 118.956 78.896C118.946 78.8016 118.946 78.7064 118.956 78.612C118.956 78.408 118.976 78.136 118.988 77.812C119.024 77.084 119.076 76.072 119.14 74.836C119.204 73.6 119.296 72.08 119.392 70.436C119.447 69.5767 119.384 68.714 119.204 67.872C118.961 66.9788 118.589 66.1258 118.1 65.34C117.772 64.788 117.42 64.26 117.084 63.74L117.024 63.652L117.116 63.596C117.279 63.4867 117.417 63.3456 117.524 63.1814C117.63 63.0171 117.702 62.8329 117.736 62.64C117.807 62.2548 117.792 61.8586 117.692 61.48C117.5 60.728 117.228 60.004 117.012 59.32C116.572 57.948 116.176 56.724 115.84 55.692C115.504 54.66 115.26 53.864 115.076 53.292C114.992 53.024 114.928 52.804 114.876 52.636C114.856 52.5585 114.841 52.4796 114.832 52.4Z" fill="#263238"/>
<path id="Vector_144" d="M99.264 102.104C99.2198 102.222 99.1578 102.333 99.08 102.432C98.952 102.636 98.76 102.924 98.516 103.276C98.024 103.98 97.316 104.936 96.516 105.968C95.716 107 94.94 107.904 94.372 108.544C94.088 108.864 93.852 109.12 93.684 109.292C93.516 109.464 93.42 109.556 93.408 109.548C93.6674 109.163 93.952 108.796 94.26 108.448C94.8 107.784 95.544 106.848 96.352 105.84C97.16 104.832 97.876 103.872 98.396 103.188C98.6613 102.808 98.9512 102.446 99.264 102.104Z" fill="#455A64"/>
<path id="Vector_145" d="M105.532 96.944C105.532 96.944 105.532 97.02 105.532 97.168C105.532 97.316 105.492 97.544 105.46 97.828C105.396 98.412 105.296 99.264 105.172 100.356C104.912 102.552 104.524 105.732 104.012 109.652C103 117.496 101.464 128.316 99.8119 140.268C98.9879 146.248 98.2119 151.944 97.5879 157.136C97.4239 158.432 97.2919 159.7 97.1079 160.928C96.9239 162.156 96.7359 163.328 96.5599 164.488L95.5919 170.888C95.0039 174.8 94.5399 177.964 94.2359 180.156C94.0839 181.248 93.9719 182.1 93.9039 182.68C93.8719 182.968 93.8479 183.188 93.8399 183.336C93.8363 183.392 93.8363 183.448 93.8399 183.504C93.8399 183.552 93.8679 183.504 93.8679 183.504C93.8679 183.504 93.8359 183.504 93.8399 183.484C93.8323 183.428 93.8323 183.372 93.8399 183.316C93.8399 183.168 93.8599 182.944 93.8879 182.656C93.9399 182.076 94.0399 181.22 94.1799 180.124C94.4599 177.928 94.8999 174.76 95.4679 170.848C95.7599 168.888 96.0759 166.748 96.4119 164.448C96.5879 163.296 96.7639 162.108 96.9479 160.884C97.1319 159.66 97.2599 158.392 97.4239 157.096C98.0559 151.896 98.8079 146.204 99.6279 140.224C101.28 128.268 102.828 117.456 103.892 109.616C104.408 105.704 104.824 102.532 105.116 100.332C105.256 99.24 105.368 98.392 105.444 97.804C105.484 97.524 105.512 97.304 105.532 97.148C105.552 96.992 105.532 96.944 105.532 96.944Z" fill="#455A64"/>
<path id="Vector_146" d="M114.66 181.94C114.666 181.868 114.675 181.795 114.688 181.724C114.712 181.572 114.744 181.36 114.788 181.084C114.888 180.516 115.028 179.696 115.188 178.64C115.56 176.508 116.1 173.44 116.764 169.652L122.06 140C122.214 139.296 122.257 138.573 122.188 137.856C122.096 137.144 121.976 136.424 121.872 135.72C121.656 134.304 121.441 132.911 121.228 131.54C120.796 128.804 120.368 126.164 119.952 123.652C119.116 118.628 118.308 114.112 117.588 110.328C116.868 106.544 116.232 103.492 115.752 101.392C115.524 100.34 115.316 99.528 115.188 98.992C115.128 98.724 115.08 98.512 115.044 98.364C115.008 98.216 115 98.148 115 98.148C115.025 98.2175 115.047 98.2882 115.064 98.36L115.232 98.984C115.372 99.532 115.592 100.34 115.832 101.384C116.336 103.476 116.992 106.528 117.732 110.308C118.472 114.088 119.292 118.604 120.132 123.628C120.556 126.14 120.984 128.78 121.42 131.516C121.633 132.889 121.849 134.283 122.068 135.696C122.176 136.408 122.292 137.112 122.388 137.84C122.459 138.58 122.414 139.326 122.256 140.052C120.172 151.616 118.288 162.088 116.92 169.676C116.228 173.46 115.668 176.524 115.28 178.652C115.084 179.708 114.928 180.528 114.824 181.092C114.772 181.364 114.728 181.576 114.7 181.724C114.672 181.872 114.66 181.94 114.66 181.94Z" fill="#455A64"/>
<path id="Vector_147" d="M110.156 109.548C110.216 109.548 109.508 114.316 108.576 120.18C107.644 126.044 106.848 130.8 106.8 130.8C106.752 130.8 107.452 126.032 108.38 120.168C109.308 114.304 110.1 109.54 110.156 109.548Z" fill="#455A64"/>
<path id="Vector_148" d="M98.3281 183.628C98.1978 183.666 98.0636 183.689 97.9281 183.696C97.6761 183.724 97.3081 183.76 96.8521 183.796C95.9441 183.868 94.684 183.936 93.292 183.956C91.9 183.976 90.636 183.956 89.724 183.912C89.268 183.912 88.9 183.872 88.648 183.848C88.5126 183.85 88.3777 183.831 88.248 183.792C88.7391 183.754 89.232 183.746 89.724 183.768C90.636 183.768 91.8921 183.768 93.2841 183.748C94.6761 183.728 95.9281 183.684 96.8401 183.648C97.335 183.608 97.8322 183.601 98.3281 183.628Z" fill="#455A64"/>
<path id="Vector_149" d="M117.68 182.336C117.51 182.344 117.34 182.334 117.172 182.308L115.796 182.164C114.636 182.032 113.036 181.832 111.268 181.604C109.5 181.376 107.9 181.156 106.744 180.988L105.376 180.78C105.207 180.76 105.04 180.726 104.876 180.68C105.047 180.664 105.219 180.671 105.388 180.7C105.712 180.728 106.188 180.776 106.764 180.84C107.924 180.972 109.528 181.168 111.296 181.396C113.064 181.624 114.66 181.848 115.816 182.016L117.184 182.228C117.353 182.244 117.519 182.281 117.68 182.336Z" fill="#455A64"/>
<path id="Vector_150" d="M100.8 51.568C100.956 51.6482 101.103 51.7433 101.24 51.852L102.416 52.652C103.416 53.336 104.816 54.252 106.416 55.164C107.016 55.508 107.616 55.828 108.144 56.116L108 56.18C108.336 54.852 108.632 53.712 108.848 52.908C108.952 52.532 109.04 52.22 109.112 51.964C109.138 51.8492 109.176 51.7377 109.228 51.632C109.225 51.7497 109.208 51.8666 109.176 51.98C109.12 52.24 109.052 52.556 108.972 52.936C108.784 53.736 108.516 54.896 108.172 56.228L108.144 56.348L108.032 56.292C107.484 56.008 106.892 55.688 106.292 55.344C104.92 54.5608 103.593 53.7021 102.316 52.772C101.828 52.416 101.44 52.112 101.176 51.9C101.039 51.8035 100.913 51.6922 100.8 51.568Z" fill="#263238"/>
<path id="Vector_151" d="M114 54.512C113.443 54.9577 112.852 55.359 112.232 55.712L112.144 55.768L112.096 55.672L111.556 54.62C111.156 53.82 110.776 53.06 110.524 52.516C110.367 52.2302 110.241 51.9285 110.148 51.616C110.346 51.8755 110.515 52.1558 110.652 52.452C110.94 52.976 111.328 53.708 111.74 54.524L112.28 55.6L112.144 55.56C112.736 55.1662 113.357 54.816 114 54.512Z" fill="#263238"/>
<path id="Vector_152" d="M111.392 54.12C111.285 54.2249 111.167 54.3174 111.04 54.396C110.82 54.56 110.508 54.796 110.16 55.016C109.812 55.236 109.496 55.464 109.264 55.616C109.138 55.7034 109.004 55.7797 108.864 55.844C108.971 55.7383 109.089 55.6444 109.216 55.564C109.44 55.404 109.752 55.184 110.096 54.948L110.992 54.348C111.119 54.2606 111.252 54.1843 111.392 54.12Z" fill="#263238"/>
<path id="Vector_153" d="M110.192 54.948C109.907 54.7238 109.639 54.4777 109.392 54.212C109.134 53.9638 108.894 53.6963 108.676 53.412C108.954 53.6365 109.213 53.8826 109.452 54.148C109.719 54.3952 109.966 54.6627 110.192 54.948Z" fill="#263238"/>
<path id="Vector_154" d="M102.656 90.432C102.774 91.4318 103.054 92.4058 103.484 93.316C103.973 94.1953 104.602 94.9885 105.348 95.664C105.074 95.5359 104.826 95.3582 104.616 95.14C103.53 94.1449 102.835 92.7944 102.656 91.332C102.603 91.0344 102.603 90.7296 102.656 90.432Z" fill="#263238"/>
<path id="Vector_155" d="M104.984 95.704C103.652 95.5905 102.405 95.0046 101.468 94.052C101.508 94.004 102.196 94.552 103.164 95.004C104.132 95.456 104.996 95.64 104.984 95.704Z" fill="#263238"/>
<path id="Vector_156" d="M112.8 82.9C112.869 83.0351 112.919 83.1792 112.948 83.328C113.032 83.608 113.14 84.016 113.26 84.528C113.508 85.54 113.8 86.952 114.032 88.528C114.264 90.104 114.396 91.536 114.456 92.58C114.484 93.1 114.5 93.52 114.5 93.812C114.52 93.962 114.52 94.114 114.5 94.264C114.463 94.1174 114.441 93.9672 114.436 93.816C114.404 93.48 114.368 93.072 114.324 92.588C114.228 91.556 114.076 90.128 113.844 88.56C113.612 86.992 113.34 85.58 113.132 84.56C113.036 84.084 112.952 83.68 112.884 83.36C112.839 83.2102 112.811 83.056 112.8 82.9Z" fill="#263238"/>
<path id="Vector_157" d="M110.136 57.724C109.616 61.88 109.232 70.924 109.088 75.12C108.968 78.624 108.98 82.132 108.992 85.64C108.992 86.772 108.992 87.94 109.476 88.968C110.312 90.82 112.356 91.768 114.232 92.52L110.136 57.724Z" fill="#E0E0E0"/>
<path id="Vector_158" d="M114.8 91.92L116.948 86.656L111.576 57.16L110.008 57.316C110.008 57.316 110.228 87.972 110.156 88.248L114.8 91.92Z" fill="#0038FF"/>
<path id="Vector_159" d="M111.52 57.16C111.278 57.2367 111.026 57.2784 110.772 57.284C110.522 57.3169 110.27 57.3169 110.02 57.284C110.267 57.2412 110.517 57.2171 110.768 57.212C111.017 57.1789 111.269 57.1616 111.52 57.16Z" fill="#263238"/>
</g>
</g>
</svg>
