<svg width="200" height="201" viewBox="0 0 200 201" fill="none" xmlns="http://www.w3.org/2000/svg">
<g id="Developer activity-rafiki 1" clip-path="url(#clip0_350_1219)">
<g id="freepik--background-complete--inject-3">
<g id="freepik--background-complete--inject-1--inject-3">
<path id="Vector" d="M200 153.46H0V153.56H200V153.46Z" fill="#EBEBEB"/>
<path id="Vector_2" d="M69.288 156.012H60.016V156.112H69.288V156.012Z" fill="#EBEBEB"/>
<path id="Vector_3" d="M183.508 158.156H160.84V158.256H183.508V158.156Z" fill="#EBEBEB"/>
<path id="Vector_4" d="M39.756 158.156H17.088V158.256H39.756V158.156Z" fill="#EBEBEB"/>
<path id="Vector_5" d="M94.7999 135.62H17.5639C16.9589 135.619 16.379 135.378 15.9515 134.95C15.524 134.521 15.2839 133.941 15.2839 133.336V24.764C15.2892 24.1624 15.5316 23.5872 15.9585 23.1633C16.3854 22.7394 16.9623 22.501 17.5639 22.5H94.7999C95.4057 22.5 95.9866 22.7406 96.415 23.169C96.8433 23.5973 97.0839 24.1782 97.0839 24.784V133.336C97.0839 133.942 96.8433 134.523 96.415 134.951C95.9866 135.379 95.4057 135.62 94.7999 135.62ZM17.5639 22.58C16.9854 22.5811 16.4309 22.8116 16.0222 23.2211C15.6135 23.6306 15.3839 24.1855 15.3839 24.764V133.336C15.3839 133.915 15.6135 134.469 16.0222 134.879C16.4309 135.288 16.9854 135.519 17.5639 135.52H94.7999C95.3785 135.518 95.9328 135.287 96.3419 134.878C96.7511 134.469 96.9818 133.915 96.9839 133.336V24.764C96.9818 24.1854 96.7511 23.6311 96.3419 23.222C95.9328 22.8129 95.3785 22.5821 94.7999 22.58H17.5639Z" fill="#EBEBEB"/>
<path id="Vector_6" d="M181.324 135.62H104.084C103.479 135.618 102.899 135.377 102.471 134.949C102.043 134.521 101.802 133.941 101.8 133.336V24.764C101.806 24.162 102.05 23.5868 102.477 23.163C102.905 22.7392 103.482 22.501 104.084 22.5H181.324C181.925 22.5021 182.501 22.7409 182.927 23.1647C183.353 23.5885 183.595 24.1631 183.6 24.764V133.336C183.601 133.635 183.542 133.932 183.428 134.209C183.314 134.486 183.146 134.737 182.935 134.949C182.724 135.161 182.473 135.33 182.196 135.445C181.92 135.56 181.623 135.619 181.324 135.62ZM104.084 22.58C103.505 22.5821 102.951 22.8129 102.542 23.222C102.133 23.6311 101.902 24.1854 101.9 24.764V133.336C101.902 133.915 102.133 134.469 102.542 134.878C102.951 135.287 103.505 135.518 104.084 135.52H181.324C181.903 135.518 182.457 135.287 182.866 134.878C183.275 134.469 183.506 133.915 183.508 133.336V24.764C183.506 24.1854 183.275 23.6311 182.866 23.222C182.457 22.8129 181.903 22.5821 181.324 22.58H104.084Z" fill="#EBEBEB"/>
<path id="Vector_7" d="M180.256 165.824H171.616V165.924H180.256V165.824Z" fill="#EBEBEB"/>
<path id="Vector_8" d="M187.256 117.816C186.42 115.416 179.824 118.68 177.164 122.652C175.384 125.296 174.296 128.124 173.792 131.916C173.852 127.58 173.92 122.936 173.988 118.548C174.528 117.456 175.76 114.928 176.652 112.948C179.612 106.276 186.652 103.796 189.084 99.58C192.284 94.06 192.252 85.784 189.54 82.8C187.2 80.188 179.372 97.74 178.492 99.7C176.097 104.949 174.587 110.558 174.024 116.3C174.084 112.176 174.148 108.392 174.2 105.456C174.364 95.932 174.572 92.868 174.664 91.928C174.992 91.464 175.376 90.928 175.596 90.64C177.484 88.208 181.676 85.312 183.772 81.776C186.832 76.612 186.336 70.432 184.192 68.148C181.948 65.748 177.98 71.428 175.876 77.06C173.772 82.692 174.676 88.088 174.08 92.768C173.956 93.7 173.828 97.168 173.708 102.008C173.068 96.808 171.796 93.32 169.44 90.072C166.536 86.072 164.032 81.212 161.644 81.84C159.256 82.468 160.54 88.908 162.444 93.44C164.128 97.464 172.444 101.476 173.644 104.712C173.504 111.264 173.372 119.58 173.28 127.3C172.628 123.3 173.076 122.964 170.392 116.86C168.792 113.224 162.256 108.74 161.48 111.24C160.704 113.74 161.88 118.44 164.352 121.772C166.352 124.44 170.752 124.436 171.788 126.092C172.024 126.492 172.812 127.948 173.264 128.808C173.156 138.244 173.108 146.576 173.164 149.42L173.592 149.448C173.572 148.716 173.624 143.912 173.708 137.556C174.78 134.18 182.008 132.204 184.24 128.688C186.58 124.988 188.256 120.696 187.256 117.816Z" fill="#E6E6E6"/>
<path id="Vector_9" d="M180.46 153.676H166.596C166.231 153.672 165.879 153.543 165.597 153.311C165.316 153.079 165.122 152.757 165.048 152.4L164.06 147.544H183.02L182.036 152.4C181.961 152.762 181.763 153.087 181.476 153.319C181.189 153.552 180.83 153.678 180.46 153.676Z" fill="#E6E6E6"/>
<path id="Vector_10" d="M183.404 149.424H163.652C163.423 149.425 163.201 149.342 163.03 149.19C162.859 149.038 162.75 148.828 162.724 148.6L162.324 145C162.297 144.758 162.365 144.515 162.515 144.323C162.664 144.131 162.883 144.005 163.124 143.972H183.796C183.918 143.971 184.039 143.994 184.153 144.04C184.266 144.086 184.369 144.154 184.456 144.24C184.543 144.325 184.612 144.428 184.659 144.54C184.707 144.653 184.731 144.774 184.732 144.896C184.734 144.932 184.734 144.968 184.732 145.004L184.332 148.604C184.307 148.832 184.198 149.042 184.027 149.194C183.855 149.345 183.633 149.427 183.404 149.424Z" fill="#F0F0F0"/>
<path id="Vector_11" d="M49.0839 36.104H21.1639V66.76H49.0839V36.104Z" fill="#E6E6E6"/>
<path id="Vector_12" d="M51.472 36.104H21.536V66.76H51.472V36.104Z" fill="#F5F5F5"/>
<path id="Vector_13" d="M49.564 38.012H23.444V64.848H49.564V38.012Z" fill="white"/>
<path id="Vector_14" d="M32.592 60.976C31.0991 59.4819 30.2604 57.4561 30.2604 55.344C30.2604 53.2318 31.0991 51.2061 32.592 49.712L40.4 41.888C41.8929 43.3821 42.7315 45.4078 42.7315 47.52C42.7315 49.6321 41.8929 51.6579 40.4 53.152L32.592 60.976Z" fill="#F5F5F5"/>
<path id="Vector_15" d="M40.5799 82.924H21.5759V104.372H40.5799V82.924Z" fill="#E6E6E6"/>
<path id="Vector_16" d="M43.328 82.924H22.04V104.372H43.328V82.924Z" fill="#F5F5F5"/>
<path id="Vector_17" d="M41.136 85.12H24.24V102.18H41.136V85.12Z" fill="white"/>
<path id="Vector_18" d="M31.1533 90.1845L29.2158 92.122C28.3723 92.9655 28.3723 94.3331 29.2158 95.1767L31.1533 97.1141C31.9968 97.9577 33.3645 97.9577 34.208 97.1141L36.1455 95.1767C36.989 94.3331 36.989 92.9655 36.1455 92.122L34.208 90.1845C33.3645 89.341 31.9968 89.341 31.1533 90.1845Z" fill="#F5F5F5"/>
</g>
<path id="Vector_19" d="M82.344 109.716H73.684V153.4H82.344V109.716Z" fill="#E6E6E6"/>
<path id="Vector_20" d="M73.684 109.72H36.32V153.404H73.684V109.72Z" fill="#F0F0F0"/>
<path id="Vector_21" d="M70.28 126.524H39.724V136.592H70.28V126.524Z" fill="#E6E6E6"/>
<path id="Vector_22" d="M70.28 138.84H39.724V148.908H70.28V138.84Z" fill="#E6E6E6"/>
<path id="Vector_23" d="M51.568 127.876H58.432C58.6552 127.874 58.8687 127.784 59.0265 127.626C59.1843 127.469 59.2739 127.255 59.276 127.032C59.275 126.808 59.1857 126.594 59.0277 126.436C58.8696 126.278 58.6555 126.189 58.432 126.188H51.568C51.3449 126.189 51.1312 126.278 50.9738 126.437C50.8164 126.595 50.728 126.809 50.728 127.032C50.728 127.255 50.8164 127.469 50.9738 127.627C51.1312 127.786 51.3449 127.875 51.568 127.876Z" fill="#F0F0F0"/>
<path id="Vector_24" d="M70.28 114.212H39.724V124.28H70.28V114.212Z" fill="#E6E6E6"/>
<path id="Vector_25" d="M51.568 115.56H58.432C58.6555 115.559 58.8696 115.47 59.0277 115.312C59.1857 115.154 59.275 114.94 59.276 114.716C59.2739 114.493 59.1843 114.279 59.0265 114.121C58.8687 113.964 58.6552 113.874 58.432 113.872H51.568C51.3449 113.873 51.1312 113.962 50.9738 114.121C50.8164 114.279 50.728 114.493 50.728 114.716C50.728 114.939 50.8164 115.153 50.9738 115.311C51.1312 115.47 51.3449 115.559 51.568 115.56Z" fill="#F0F0F0"/>
<path id="Vector_26" d="M51.568 140.192H58.432C58.6562 140.191 58.8709 140.101 59.0291 139.942C59.1872 139.783 59.276 139.568 59.276 139.344C59.275 139.121 59.1856 138.907 59.0274 138.75C58.8693 138.592 58.6552 138.504 58.432 138.504H51.568C51.4577 138.504 51.3485 138.526 51.2466 138.568C51.1447 138.61 51.0521 138.672 50.9741 138.75C50.8961 138.828 50.8342 138.921 50.792 139.023C50.7498 139.124 50.728 139.234 50.728 139.344C50.7275 139.455 50.7488 139.565 50.7908 139.667C50.8327 139.77 50.8944 139.863 50.9724 139.942C51.0504 140.021 51.1432 140.083 51.2454 140.126C51.3476 140.169 51.4572 140.191 51.568 140.192Z" fill="#F0F0F0"/>
<path id="Vector_27" d="M73.6839 107.42H35.1639V109.716H73.6839V107.42Z" fill="#E6E6E6"/>
<path id="Vector_28" d="M83.552 107.424H73.684V109.72H83.552V107.424Z" fill="#E0E0E0"/>
</g>
<g id="freepik--Shadow--inject-3">
<path id="Vector_29" d="M102.4 179.156C141.098 179.156 172.468 176.681 172.468 173.628C172.468 170.575 141.098 168.1 102.4 168.1C63.7025 168.1 32.332 170.575 32.332 173.628C32.332 176.681 63.7025 179.156 102.4 179.156Z" fill="#F5F5F5"/>
</g>
<g id="freepik--Mechanisms--inject-3">
<path id="Vector_30" d="M159.056 52.032C158.479 50.1228 157.716 48.2752 156.776 46.516L158.196 41.868L149.02 32.668L144.364 34.1C142.611 33.149 140.763 32.3822 138.852 31.812L136.572 27.52H123.6L121.316 31.812C119.398 32.3827 117.545 33.1494 115.784 34.1L111.132 32.672L101.932 41.872L103.356 46.524C102.412 48.2809 101.648 50.129 101.076 52.04L96.8 54.324V67.3L101.092 69.584C101.663 71.4945 102.429 73.3414 103.376 75.096L101.952 79.74L111.152 88.94L115.804 87.52C117.56 88.4649 119.408 89.2275 121.32 89.796L123.6 94.1H136.592L138.872 89.808C140.782 89.235 142.629 88.4697 144.384 87.524L149.04 88.944L158.24 79.744L156.8 75.104C157.739 73.3468 158.5 71.5003 159.072 69.592L163.348 67.3V54.312L159.056 52.032ZM130.072 84.364C125.413 84.3632 120.859 82.981 116.986 80.3922C113.113 77.8033 110.094 74.1241 108.312 69.8197C106.53 65.5154 106.064 60.7792 106.973 56.21C107.882 51.6409 110.126 47.444 113.421 44.15C116.715 40.856 120.913 38.6129 125.482 37.7043C130.051 36.7958 134.787 37.2625 139.091 39.0455C143.395 40.8285 147.074 43.8477 149.662 47.7214C152.251 51.5951 153.632 56.1493 153.632 60.808C153.631 67.0558 151.148 73.0474 146.73 77.4649C142.312 81.8824 136.32 84.364 130.072 84.364Z" fill="#0038FF"/>
<path id="Vector_31" d="M130.072 40.5561C126.066 40.5576 122.151 41.747 118.821 43.9737C115.491 46.2004 112.895 49.3645 111.364 53.066C109.832 56.7674 109.432 60.84 110.214 64.7687C110.997 68.6975 112.926 72.306 115.76 75.138C118.593 77.9701 122.202 79.8985 126.131 80.6794C130.06 81.4604 134.133 81.0588 137.833 79.5254C141.534 77.992 144.697 75.3958 146.923 72.0649C149.148 68.7339 150.336 64.818 150.336 60.8121C150.336 58.1513 149.812 55.5167 148.793 53.0586C147.775 50.6005 146.282 48.3671 144.4 46.4861C142.519 44.605 140.285 43.1131 137.826 42.0957C135.368 41.0782 132.733 40.555 130.072 40.5561ZM130.072 78.3721C126.599 78.3728 123.204 77.3438 120.316 75.4149C117.427 73.486 115.176 70.744 113.846 67.5357C112.516 64.3273 112.168 60.7967 112.845 57.3902C113.521 53.9837 115.193 50.8545 117.648 48.3981C120.104 45.9417 123.232 44.2686 126.638 43.5902C130.044 42.9119 133.575 43.2589 136.784 44.5872C139.993 45.9155 142.736 48.1656 144.666 51.0529C146.597 53.9402 147.627 57.335 147.628 60.8081C147.618 65.462 145.766 69.9228 142.476 73.2144C139.186 76.506 134.726 78.3604 130.072 78.3721Z" fill="#0038FF"/>
<path id="Vector_32" opacity="0.4" d="M159.056 52.032C158.479 50.1228 157.716 48.2752 156.776 46.516L158.196 41.868L149.02 32.668L144.364 34.1C142.611 33.149 140.763 32.3822 138.852 31.812L136.572 27.52H123.6L121.316 31.812C119.398 32.3827 117.545 33.1494 115.784 34.1L111.132 32.672L101.932 41.872L103.356 46.524C102.412 48.2809 101.648 50.129 101.076 52.04L96.8 54.324V67.3L101.092 69.584C101.663 71.4945 102.429 73.3414 103.376 75.096L101.952 79.74L111.152 88.94L115.804 87.52C117.56 88.4649 119.408 89.2275 121.32 89.796L123.6 94.1H136.592L138.872 89.808C140.782 89.235 142.629 88.4697 144.384 87.524L149.04 88.944L158.24 79.744L156.8 75.104C157.739 73.3468 158.5 71.5003 159.072 69.592L163.348 67.3V54.312L159.056 52.032ZM130.072 84.364C125.413 84.3632 120.859 82.981 116.986 80.3922C113.113 77.8033 110.094 74.1241 108.312 69.8197C106.53 65.5154 106.064 60.7792 106.973 56.21C107.882 51.6409 110.126 47.444 113.421 44.15C116.715 40.856 120.913 38.6129 125.482 37.7043C130.051 36.7958 134.787 37.2625 139.091 39.0455C143.395 40.8285 147.074 43.8477 149.662 47.7214C152.251 51.5951 153.632 56.1493 153.632 60.808C153.631 67.0558 151.148 73.0474 146.73 77.4649C142.312 81.8824 136.32 84.364 130.072 84.364Z" fill="white"/>
<path id="Vector_33" opacity="0.4" d="M130.072 40.5561C126.066 40.5576 122.151 41.747 118.821 43.9737C115.491 46.2004 112.895 49.3645 111.364 53.066C109.832 56.7674 109.432 60.84 110.214 64.7687C110.997 68.6975 112.926 72.306 115.76 75.138C118.593 77.9701 122.202 79.8985 126.131 80.6794C130.06 81.4604 134.133 81.0588 137.833 79.5254C141.534 77.992 144.697 75.3958 146.923 72.0649C149.148 68.7339 150.336 64.818 150.336 60.8121C150.336 58.1513 149.812 55.5167 148.793 53.0586C147.775 50.6005 146.282 48.3671 144.4 46.4861C142.519 44.605 140.285 43.1131 137.826 42.0957C135.368 41.0782 132.733 40.555 130.072 40.5561ZM130.072 78.3721C126.599 78.3728 123.204 77.3438 120.316 75.4149C117.427 73.486 115.176 70.744 113.846 67.5357C112.516 64.3273 112.168 60.7967 112.845 57.3902C113.521 53.9837 115.193 50.8545 117.648 48.3981C120.104 45.9417 123.232 44.2686 126.638 43.5902C130.044 42.9119 133.575 43.2589 136.784 44.5872C139.993 45.9155 142.736 48.1656 144.666 51.0529C146.597 53.9402 147.627 57.335 147.628 60.8081C147.618 65.462 145.766 69.9228 142.476 73.2144C139.186 76.506 134.726 78.3604 130.072 78.3721Z" fill="white"/>
<path id="Vector_34" d="M77.328 77.748C77.0265 76.7357 76.6245 75.7562 76.128 74.824L76.884 72.356L72 67.48L69.532 68.236C68.5998 67.7393 67.6202 67.3373 66.608 67.036L65.408 64.772H58.496L57.296 67.036C56.2837 67.3373 55.3041 67.7393 54.372 68.236L51.904 67.48L47.032 72.356L47.784 74.824C47.2889 75.7569 46.887 76.7363 46.584 77.748L44.304 78.948V85.844L46.584 87.044C46.8852 88.0563 47.2872 89.0359 47.784 89.968L47.032 92.436L51.904 97.312L54.372 96.556C55.3049 97.0509 56.2843 97.4529 57.296 97.756L58.496 100.016H65.392L66.592 97.756C67.6036 97.4529 68.583 97.0509 69.516 96.556L71.984 97.312L76.86 92.436L76.104 89.968C76.6005 89.0358 77.0025 88.0562 77.304 87.044L79.58 85.844V78.96L77.328 77.748ZM61.944 92.2C60.0065 92.2 58.1125 91.6255 56.5016 90.5491C54.8906 89.4727 53.6351 87.9427 52.8936 86.1527C52.1522 84.3628 51.9582 82.3931 52.3362 80.4929C52.7142 78.5926 53.6471 76.8471 55.0171 75.4772C56.3871 74.1072 58.1326 73.1742 60.0329 72.7962C61.9331 72.4182 63.9027 72.6122 65.6927 73.3537C67.4827 74.0951 69.0126 75.3507 70.089 76.9616C71.1654 78.5726 71.74 80.4665 71.74 82.404C71.7389 85.0017 70.7065 87.4927 68.8696 89.3296C67.0327 91.1665 64.5417 92.1989 61.944 92.2Z" fill="#263238"/>
<path id="Vector_35" d="M77.328 77.748C77.0265 76.7357 76.6245 75.7562 76.128 74.824L76.884 72.356L72 67.48L69.532 68.236C68.5998 67.7393 67.6202 67.3373 66.608 67.036L65.408 64.772H58.496L57.296 67.036C56.2837 67.3373 55.3041 67.7393 54.372 68.236L51.904 67.48L47.032 72.356L47.784 74.824C47.2889 75.7569 46.887 76.7363 46.584 77.748L44.304 78.948V85.844L46.584 87.044C46.8852 88.0563 47.2872 89.0359 47.784 89.968L47.032 92.436L51.904 97.312L54.372 96.556C55.3049 97.0509 56.2843 97.4529 57.296 97.756L58.496 100.016H65.392L66.592 97.756C67.6036 97.4529 68.583 97.0509 69.516 96.556L71.984 97.312L76.86 92.436L76.104 89.968C76.6005 89.0358 77.0025 88.0562 77.304 87.044L79.58 85.844V78.96L77.328 77.748ZM61.944 92.2C60.0065 92.2 58.1125 91.6255 56.5016 90.5491C54.8906 89.4727 53.6351 87.9427 52.8936 86.1527C52.1522 84.3628 51.9582 82.3931 52.3362 80.4929C52.7142 78.5926 53.6471 76.8471 55.0171 75.4772C56.3871 74.1072 58.1326 73.1742 60.0329 72.7962C61.9331 72.4182 63.9027 72.6122 65.6927 73.3537C67.4827 74.0951 69.0126 75.3507 70.089 76.9616C71.1654 78.5726 71.74 80.4665 71.74 82.404C71.7389 85.0017 70.7065 87.4927 68.8696 89.3296C67.0327 91.1665 64.5417 92.1989 61.944 92.2Z" fill="#0038FF"/>
<path id="Vector_36" d="M61.944 79.1601C61.3016 79.1601 60.6736 79.3505 60.1395 79.7074C59.6054 80.0643 59.1891 80.5716 58.9432 81.1651C58.6974 81.7586 58.6331 82.4117 58.7584 83.0417C58.8837 83.6718 59.1931 84.2505 59.6473 84.7047C60.1015 85.159 60.6803 85.4683 61.3103 85.5937C61.9404 85.719 62.5934 85.6547 63.1869 85.4088C63.7804 85.163 64.2877 84.7467 64.6446 84.2126C65.0015 83.6784 65.192 83.0505 65.192 82.4081C65.192 81.5466 64.8498 80.7205 64.2407 80.1114C63.6315 79.5023 62.8054 79.1601 61.944 79.1601Z" fill="#263238"/>
<path id="Vector_37" opacity="0.4" d="M77.328 77.748C77.0265 76.7357 76.6245 75.7562 76.128 74.824L76.884 72.356L72 67.48L69.532 68.236C68.5998 67.7393 67.6202 67.3373 66.608 67.036L65.408 64.772H58.496L57.296 67.036C56.2837 67.3373 55.3041 67.7393 54.372 68.236L51.904 67.48L47.032 72.356L47.784 74.824C47.2889 75.7569 46.887 76.7363 46.584 77.748L44.304 78.948V85.844L46.584 87.044C46.8852 88.0563 47.2872 89.0359 47.784 89.968L47.032 92.436L51.904 97.312L54.372 96.556C55.3049 97.0509 56.2843 97.4529 57.296 97.756L58.496 100.016H65.392L66.592 97.756C67.6036 97.4529 68.583 97.0509 69.516 96.556L71.984 97.312L76.86 92.436L76.104 89.968C76.6005 89.0358 77.0025 88.0562 77.304 87.044L79.58 85.844V78.96L77.328 77.748ZM61.944 92.2C60.0065 92.2 58.1125 91.6255 56.5016 90.5491C54.8906 89.4727 53.6351 87.9427 52.8936 86.1527C52.1522 84.3628 51.9582 82.3931 52.3362 80.4929C52.7142 78.5926 53.6471 76.8471 55.0171 75.4772C56.3871 74.1072 58.1326 73.1742 60.0329 72.7962C61.9331 72.4182 63.9027 72.6122 65.6927 73.3537C67.4827 74.0951 69.0126 75.3507 70.089 76.9616C71.1654 78.5726 71.74 80.4665 71.74 82.404C71.7389 85.0017 70.7065 87.4927 68.8696 89.3296C67.0327 91.1665 64.5417 92.1989 61.944 92.2Z" fill="white"/>
<path id="Vector_38" opacity="0.2" d="M61.944 79.1601C61.3016 79.1601 60.6736 79.3505 60.1395 79.7074C59.6054 80.0643 59.1891 80.5716 58.9432 81.1651C58.6974 81.7586 58.6331 82.4117 58.7584 83.0417C58.8837 83.6718 59.1931 84.2505 59.6473 84.7047C60.1015 85.159 60.6803 85.4683 61.3103 85.5937C61.9404 85.719 62.5934 85.6547 63.1869 85.4088C63.7804 85.163 64.2877 84.7467 64.6446 84.2126C65.0015 83.6784 65.192 83.0505 65.192 82.4081C65.192 81.5466 64.8498 80.7205 64.2407 80.1114C63.6315 79.5023 62.8054 79.1601 61.944 79.1601Z" fill="white"/>
<path id="Vector_39" d="M83.6 71.496L80.96 70.408L80.864 69.416C80.6171 69.2078 80.3871 68.9804 80.176 68.736L79.192 68.636L78.1 66L78.736 65.244C78.708 64.9206 78.708 64.5954 78.736 64.272L78.1 63.52L79.2 60.9L80.184 60.804C80.3978 60.5521 80.6305 60.3168 80.88 60.1L80.976 59.112L83.616 58.024L84.368 58.656C84.6915 58.632 85.0164 58.632 85.34 58.656L86.092 58.024L88.732 59.112L88.824 60.1C89.069 60.3117 89.2989 60.5403 89.512 60.784L90.496 60.88L91.584 63.516L90.952 64.268C90.98 64.5914 90.98 64.9166 90.952 65.24L91.584 65.996L90.496 68.632L89.512 68.732C89.3009 68.9777 89.0709 69.2064 88.824 69.416L88.732 70.404L86.092 71.492L85.34 70.86C85.0178 70.884 84.6942 70.884 84.372 70.86L83.6 71.496ZM85.512 70.296L86.196 70.86L88.196 70.032L88.276 69.148L88.372 69.076C88.6525 68.8488 88.911 68.5957 89.144 68.32L89.216 68.228L90.1 68.144L90.928 66.144L90.4 65.44V65.324C90.436 64.9609 90.436 64.5951 90.4 64.232V64.1L90.964 63.412L90.136 61.412L89.256 61.332L89.18 61.236C88.9446 60.9658 88.6834 60.7193 88.4 60.5L88.304 60.424L88.224 59.544L86.224 58.712L85.528 59.3H85.412C85.0491 59.26 84.6829 59.26 84.32 59.3H84.2L83.516 58.732L81.516 59.564L81.432 60.444L81.344 60.52C81.0604 60.7436 80.8004 60.9956 80.568 61.272L80.492 61.368L79.608 61.448L78.772 63.448L79.34 64.132V64.248C79.3 64.6109 79.3 64.9771 79.34 65.34V65.46L78.772 66.1L79.604 68.1L80.484 68.184L80.56 68.272C80.7895 68.5569 81.0483 68.817 81.332 69.048L81.424 69.12L81.508 70.008L83.508 70.836L84.196 70.272H84.312C84.6751 70.308 85.0409 70.308 85.404 70.272L85.512 70.296Z" fill="#263238"/>
<path id="Vector_40" d="M86.036 67.588C85.4762 67.8206 84.8599 67.8819 84.2652 67.7642C83.6705 67.6464 83.1241 67.3549 82.6952 66.9265C82.2662 66.4981 81.974 65.9521 81.8555 65.3575C81.737 64.763 81.7975 64.1466 82.0294 63.5865C82.2613 63.0264 82.6542 62.5476 83.1582 62.2108C83.6623 61.8741 84.255 61.6944 84.8612 61.6945C85.4674 61.6947 86.06 61.8747 86.5639 62.2118C87.0678 62.5488 87.4604 63.0278 87.692 63.588C87.8462 63.9591 87.9258 64.357 87.9262 64.7589C87.9266 65.1607 87.8479 65.5588 87.6945 65.9302C87.5411 66.3016 87.316 66.6392 87.0321 66.9237C86.7483 67.2081 86.4111 67.4339 86.04 67.588H86.036Z" fill="#263238"/>
<path id="Vector_41" d="M64 65.244C63.9502 65.244 63.9023 65.2242 63.8671 65.1889C63.8318 65.1537 63.812 65.1059 63.812 65.056V64.1C63.812 64.0501 63.8318 64.0023 63.8671 63.9671C63.9023 63.9318 63.9502 63.912 64 63.912C64.0499 63.912 64.0977 63.9318 64.1329 63.9671C64.1682 64.0023 64.188 64.0501 64.188 64.1V65.04C64.1902 65.066 64.187 65.0922 64.1786 65.1169C64.1701 65.1416 64.1566 65.1642 64.1389 65.1834C64.1213 65.2026 64.0998 65.2179 64.0759 65.2283C64.0519 65.2388 64.0261 65.2441 64 65.244Z" fill="#0038FF"/>
<path id="Vector_42" d="M64 62.416C63.9502 62.416 63.9023 62.3962 63.8671 62.361C63.8318 62.3257 63.812 62.2779 63.812 62.228V60.34C63.812 60.2902 63.8318 60.2424 63.8671 60.2071C63.9023 60.1718 63.9502 60.152 64 60.152C64.0499 60.152 64.0977 60.1718 64.1329 60.2071C64.1682 60.2424 64.188 60.2902 64.188 60.34V62.228C64.188 62.2779 64.1682 62.3257 64.1329 62.361C64.0977 62.3962 64.0499 62.416 64 62.416ZM64 58.64C63.9502 58.64 63.9023 58.6202 63.8671 58.585C63.8318 58.5497 63.812 58.5019 63.812 58.452V56.564C63.812 56.5142 63.8318 56.4664 63.8671 56.4311C63.9023 56.3958 63.9502 56.376 64 56.376C64.0499 56.376 64.0977 56.3958 64.1329 56.4311C64.1682 56.4664 64.188 56.5142 64.188 56.564V58.452C64.188 58.5019 64.1682 58.5497 64.1329 58.585C64.0977 58.6202 64.0499 58.64 64 58.64ZM64 54.868C63.9498 54.867 63.902 54.8463 63.8668 54.8104C63.8317 54.7745 63.812 54.7263 63.812 54.676V52.792C63.812 52.7422 63.8318 52.6944 63.8671 52.6591C63.9023 52.6238 63.9502 52.604 64 52.604C64.0499 52.604 64.0977 52.6238 64.1329 52.6591C64.1682 52.6944 64.188 52.7422 64.188 52.792V54.676C64.188 54.7263 64.1683 54.7745 64.1332 54.8104C64.0981 54.8463 64.0502 54.867 64 54.868ZM64 51.08C63.9759 51.0817 63.9517 51.0784 63.929 51.0702C63.9062 51.0621 63.8854 51.0494 63.8677 51.0329C63.8501 51.0164 63.836 50.9965 63.8265 50.9743C63.8169 50.9521 63.812 50.9282 63.812 50.904V50.876C63.8119 50.2335 63.9187 49.5955 64.128 48.988C64.1452 48.9414 64.1798 48.9032 64.2246 48.8816C64.2694 48.86 64.3208 48.8565 64.368 48.872C64.3917 48.8797 64.4137 48.892 64.4325 48.9084C64.4513 48.9247 64.4666 48.9447 64.4775 48.9672C64.4883 48.9896 64.4945 49.014 64.4956 49.0389C64.4967 49.0638 64.4928 49.0887 64.484 49.112C64.2875 49.6794 64.1874 50.2756 64.188 50.876C64.1882 50.9275 64.1689 50.9771 64.134 51.0149C64.0992 51.0527 64.0513 51.076 64 51.08ZM65.2 47.592C65.1579 47.5927 65.1168 47.5785 65.084 47.552C65.0646 47.5368 65.0483 47.5179 65.0362 47.4964C65.0241 47.4749 65.0163 47.4512 65.0133 47.4267C65.0103 47.4022 65.0122 47.3773 65.0189 47.3535C65.0255 47.3297 65.0368 47.3075 65.052 47.288C65.4586 46.779 65.9481 46.3422 66.5 45.996C66.521 45.9829 66.5444 45.974 66.5689 45.9699C66.5933 45.9659 66.6183 45.9666 66.6424 45.9722C66.6666 45.9778 66.6894 45.988 66.7096 46.0024C66.7297 46.0168 66.7469 46.035 66.76 46.056C66.7731 46.077 66.782 46.1004 66.7861 46.1249C66.7902 46.1493 66.7894 46.1743 66.7839 46.1985C66.7783 46.2226 66.768 46.2454 66.7536 46.2656C66.7392 46.2858 66.721 46.3029 66.7 46.316C66.1843 46.6362 65.7271 47.042 65.348 47.516C65.3196 47.5544 65.2785 47.5814 65.232 47.592H65.2ZM68.34 45.632C68.2934 45.6324 68.2483 45.6154 68.2135 45.5844C68.1787 45.5534 68.1566 45.5105 68.1516 45.4641C68.1467 45.4178 68.1591 45.3712 68.1865 45.3335C68.2139 45.2958 68.2544 45.2696 68.3 45.26C68.7097 45.1687 69.1283 45.1231 69.548 45.124H70.216C70.2407 45.124 70.2651 45.1289 70.288 45.1383C70.3108 45.1478 70.3315 45.1616 70.349 45.1791C70.3664 45.1966 70.3803 45.2173 70.3897 45.2401C70.3992 45.2629 70.404 45.2873 70.404 45.312C70.404 45.3367 70.3992 45.3612 70.3897 45.384C70.3803 45.4068 70.3664 45.4275 70.349 45.445C70.3315 45.4624 70.3108 45.4763 70.288 45.4857C70.2651 45.4952 70.2407 45.5 70.216 45.5H69.6C69.2072 45.5004 68.8156 45.5434 68.432 45.628L68.34 45.632ZM100.416 45.5H98.56C98.5101 45.5 98.4623 45.4802 98.4271 45.445C98.3918 45.4097 98.372 45.3619 98.372 45.312C98.372 45.2622 98.3918 45.2144 98.4271 45.1791C98.4623 45.1438 98.5101 45.124 98.56 45.124H100.448C100.473 45.124 100.497 45.1289 100.52 45.1383C100.543 45.1478 100.563 45.1616 100.581 45.1791C100.598 45.1966 100.612 45.2173 100.622 45.2401C100.631 45.2629 100.636 45.2873 100.636 45.312C100.636 45.3367 100.631 45.3612 100.622 45.384C100.612 45.4068 100.598 45.4275 100.581 45.445C100.563 45.4624 100.543 45.4763 100.52 45.4857C100.497 45.4952 100.473 45.5 100.448 45.5H100.416ZM96.64 45.5H94.8C94.7753 45.5 94.7509 45.4952 94.7281 45.4857C94.7053 45.4763 94.6845 45.4624 94.6671 45.445C94.6496 45.4275 94.6358 45.4068 94.6263 45.384C94.6169 45.3612 94.612 45.3367 94.612 45.312C94.612 45.2873 94.6169 45.2629 94.6263 45.2401C94.6358 45.2173 94.6496 45.1966 94.6671 45.1791C94.6845 45.1616 94.7053 45.1478 94.7281 45.1383C94.7509 45.1289 94.7753 45.124 94.8 45.124H96.684C96.7087 45.124 96.7331 45.1289 96.756 45.1383C96.7788 45.1478 96.7995 45.1616 96.8169 45.1791C96.8344 45.1966 96.8483 45.2173 96.8577 45.2401C96.8671 45.2629 96.872 45.2873 96.872 45.312C96.872 45.3367 96.8671 45.3612 96.8577 45.384C96.8483 45.4068 96.8344 45.4275 96.8169 45.445C96.7995 45.4624 96.7788 45.4763 96.756 45.4857C96.7331 45.4952 96.7087 45.5 96.684 45.5H96.64ZM92.868 45.5H90.98C90.9301 45.5 90.8823 45.4802 90.8471 45.445C90.8118 45.4097 90.792 45.3619 90.792 45.312C90.792 45.2622 90.8118 45.2144 90.8471 45.1791C90.8823 45.1438 90.9301 45.124 90.98 45.124H92.868C92.8927 45.124 92.9171 45.1289 92.94 45.1383C92.9628 45.1478 92.9835 45.1616 93.0009 45.1791C93.0184 45.1966 93.0322 45.2173 93.0417 45.2401C93.0511 45.2629 93.056 45.2873 93.056 45.312C93.056 45.3367 93.0511 45.3612 93.0417 45.384C93.0322 45.4068 93.0184 45.4275 93.0009 45.445C92.9835 45.4624 92.9628 45.4763 92.94 45.4857C92.9171 45.4952 92.8927 45.5 92.868 45.5ZM89.092 45.5H87.204C87.1541 45.5 87.1063 45.4802 87.0711 45.445C87.0358 45.4097 87.016 45.3619 87.016 45.312C87.016 45.2622 87.0358 45.2144 87.0711 45.1791C87.1063 45.1438 87.1541 45.124 87.204 45.124H89.092C89.1167 45.124 89.1411 45.1289 89.164 45.1383C89.1868 45.1478 89.2075 45.1616 89.2249 45.1791C89.2424 45.1966 89.2563 45.2173 89.2657 45.2401C89.2752 45.2629 89.28 45.2873 89.28 45.312C89.28 45.3367 89.2752 45.3612 89.2657 45.384C89.2563 45.4068 89.2424 45.4275 89.2249 45.445C89.2075 45.4624 89.1868 45.4763 89.164 45.4857C89.1411 45.4952 89.1167 45.5 89.092 45.5ZM85.316 45.5H83.428C83.3782 45.5 83.3303 45.4802 83.2951 45.445C83.2598 45.4097 83.24 45.3619 83.24 45.312C83.24 45.2622 83.2598 45.2144 83.2951 45.1791C83.3303 45.1438 83.3782 45.124 83.428 45.124H85.316C85.3407 45.124 85.3651 45.1289 85.388 45.1383C85.4108 45.1478 85.4315 45.1616 85.4489 45.1791C85.4664 45.1966 85.4803 45.2173 85.4897 45.2401C85.4991 45.2629 85.504 45.2873 85.504 45.312C85.504 45.3367 85.4991 45.3612 85.4897 45.384C85.4803 45.4068 85.4664 45.4275 85.4489 45.445C85.4315 45.4624 85.4108 45.4763 85.388 45.4857C85.3651 45.4952 85.3407 45.5 85.316 45.5ZM81.54 45.5H79.656C79.6313 45.5 79.6069 45.4952 79.5841 45.4857C79.5613 45.4763 79.5405 45.4624 79.5231 45.445C79.5056 45.4275 79.4918 45.4068 79.4823 45.384C79.4729 45.3612 79.468 45.3367 79.468 45.312C79.468 45.2873 79.4729 45.2629 79.4823 45.2401C79.4918 45.2173 79.5056 45.1966 79.5231 45.1791C79.5405 45.1616 79.5613 45.1478 79.5841 45.1383C79.6069 45.1289 79.6313 45.124 79.656 45.124H81.54C81.5647 45.124 81.5891 45.1289 81.612 45.1383C81.6348 45.1478 81.6555 45.1616 81.6729 45.1791C81.6904 45.1966 81.7043 45.2173 81.7137 45.2401C81.7231 45.2629 81.728 45.2873 81.728 45.312C81.728 45.3367 81.7231 45.3612 81.7137 45.384C81.7043 45.4068 81.6904 45.4275 81.6729 45.445C81.6555 45.4624 81.6348 45.4763 81.612 45.4857C81.5891 45.4952 81.5647 45.5 81.54 45.5ZM77.768 45.5H75.88C75.8302 45.5 75.7823 45.4802 75.7471 45.445C75.7118 45.4097 75.692 45.3619 75.692 45.312C75.692 45.2622 75.7118 45.2144 75.7471 45.1791C75.7823 45.1438 75.8302 45.124 75.88 45.124H77.768C77.7927 45.124 77.8172 45.1289 77.84 45.1383C77.8628 45.1478 77.8835 45.1616 77.9009 45.1791C77.9184 45.1966 77.9323 45.2173 77.9417 45.2401C77.9511 45.2629 77.956 45.2873 77.956 45.312C77.956 45.3367 77.9511 45.3612 77.9417 45.384C77.9323 45.4068 77.9184 45.4275 77.9009 45.445C77.8835 45.4624 77.8628 45.4763 77.84 45.4857C77.8172 45.4952 77.7927 45.5 77.768 45.5ZM73.992 45.5H72.104C72.0541 45.5 72.0063 45.4802 71.9711 45.445C71.9358 45.4097 71.916 45.3619 71.916 45.312C71.916 45.2622 71.9358 45.2144 71.9711 45.1791C72.0063 45.1438 72.0541 45.124 72.104 45.124H73.992C74.0167 45.124 74.0412 45.1289 74.064 45.1383C74.0868 45.1478 74.1075 45.1616 74.125 45.1791C74.1424 45.1966 74.1563 45.2173 74.1657 45.2401C74.1752 45.2629 74.18 45.2873 74.18 45.312C74.18 45.3367 74.1752 45.3612 74.1657 45.384C74.1563 45.4068 74.1424 45.4275 74.125 45.445C74.1075 45.4624 74.0868 45.4763 74.064 45.4857C74.0412 45.4952 74.0167 45.5 73.992 45.5Z" fill="#0038FF"/>
<path id="Vector_43" d="M103.284 45.5H102.34C102.29 45.5 102.242 45.4802 102.207 45.445C102.172 45.4097 102.152 45.3619 102.152 45.312C102.152 45.2622 102.172 45.2143 102.207 45.1791C102.242 45.1438 102.29 45.124 102.34 45.124H103.284C103.334 45.124 103.382 45.1438 103.417 45.1791C103.452 45.2143 103.472 45.2622 103.472 45.312C103.472 45.3619 103.452 45.4097 103.417 45.445C103.382 45.4802 103.334 45.5 103.284 45.5Z" fill="#0038FF"/>
</g>
<g id="freepik--Character--inject-3">
<path id="Vector_44" d="M63.904 173.208H65.876L65.876 111.58H63.904L63.904 173.208Z" fill="#263238"/>
<path id="Vector_45" d="M145.148 139.22H112.58V134.704H145.148C145.542 134.704 145.919 134.86 146.197 135.139C146.476 135.417 146.632 135.794 146.632 136.188V137.736C146.632 137.931 146.594 138.124 146.519 138.304C146.444 138.484 146.335 138.648 146.197 138.785C146.06 138.923 145.896 139.032 145.716 139.107C145.536 139.182 145.343 139.22 145.148 139.22Z" fill="#0038FF"/>
<path id="Vector_46" d="M143.896 173.548L141.536 136.248" stroke="#0038FF" stroke-width="1.1302" stroke-linecap="round" stroke-linejoin="round"/>
<path id="Vector_47" d="M134.86 175.396L132.5 138.096" stroke="#0038FF" stroke-width="1.1302" stroke-linecap="round" stroke-linejoin="round"/>
<path id="Vector_48" d="M111.176 173.548L113.536 136.248" stroke="#0038FF" stroke-width="1.1302" stroke-linecap="round" stroke-linejoin="round"/>
<path id="Vector_49" d="M120.212 175.396L122.572 138.096" stroke="#0038FF" stroke-width="1.1302" stroke-linecap="round" stroke-linejoin="round"/>
<path id="Vector_50" d="M148.04 136.248H115.472V131.732H148.04C148.434 131.732 148.811 131.888 149.089 132.167C149.368 132.445 149.524 132.822 149.524 133.216V134.764C149.524 135.157 149.368 135.535 149.089 135.813C148.811 136.092 148.434 136.248 148.04 136.248Z" fill="#0038FF"/>
<path id="Vector_51" opacity="0.2" d="M148.04 136.248H115.472V131.732H148.04C148.434 131.732 148.811 131.888 149.089 132.167C149.368 132.445 149.524 132.822 149.524 133.216V134.764C149.524 135.157 149.368 135.535 149.089 135.813C148.811 136.092 148.434 136.248 148.04 136.248Z" fill="black"/>
<path id="Vector_52" d="M115.24 174.68H117.212L117.212 113.052H115.24L115.24 174.68Z" fill="#263238"/>
<path id="Vector_53" d="M121.96 117.74C121.96 117.74 99.42 118.588 95.676 127.636C95.676 127.636 96.196 154.584 99.212 163.428L105.664 162.696L104.632 136.5L127.948 117.748L121.96 117.74Z" fill="#263238"/>
<path id="Vector_54" opacity="0.2" d="M121.96 117.74C121.96 117.74 99.42 118.588 95.676 127.636C95.676 127.636 96.196 154.584 99.212 163.428L105.664 162.696L104.632 136.5L127.948 117.748L121.96 117.74Z" fill="black"/>
<path id="Vector_55" d="M104.596 169.44H100.568L100.512 166.756L100.472 164.652L104.408 164.892L104.484 166.756L104.596 169.44Z" fill="#B55B52"/>
<path id="Vector_56" opacity="0.2" d="M104.484 166.756H100.512L100.472 164.652L104.408 164.892L104.484 166.756Z" fill="black"/>
<path id="Vector_57" d="M106.396 165.508L97.7719 165.768L96.2 162.568L106.156 162.476L106.396 165.508Z" fill="#0038FF"/>
<path id="Vector_58" d="M99.536 170.048C99.536 170.048 99.744 167.684 98.92 168.012C98.096 168.34 99.016 169.548 99.536 170.048Z" stroke="#0038FF" stroke-width="0.376733" stroke-miterlimit="10"/>
<path id="Vector_59" d="M99.5359 170.048C99.5359 170.048 97.7639 168.808 97.3119 169.44C96.8599 170.072 99.5359 170.048 99.5359 170.048Z" stroke="#0038FF" stroke-width="0.376733" stroke-miterlimit="10"/>
<path id="Vector_60" d="M100.94 168.9L104.14 168.932C104.366 168.937 104.581 169.026 104.746 169.181C104.91 169.336 105.01 169.547 105.028 169.772L105.252 172.6C105.263 172.723 105.247 172.846 105.207 172.962C105.167 173.079 105.103 173.185 105.019 173.275C104.934 173.365 104.832 173.436 104.719 173.484C104.605 173.531 104.483 173.555 104.36 173.552C102.628 173.5 99.064 173.408 97.8 173.444C96.108 173.492 93.704 173.52 93.36 172.876C93.2621 172.703 93.2289 172.501 93.2663 172.306C93.3037 172.112 93.4092 171.936 93.564 171.812C93.564 171.812 98.176 171.384 100.296 169.192C100.378 169.103 100.478 169.031 100.588 168.981C100.699 168.931 100.819 168.903 100.94 168.9Z" fill="#263238"/>
<path id="Vector_61" d="M142.184 117.74C142.184 117.74 142.612 122.992 142.452 127.052C142.268 131.732 132.192 135.852 117.524 133.452C117.524 133.452 116.38 141.36 112.324 148.652C108.268 155.944 101.924 166.756 101.924 166.756L95.684 162.696C95.684 162.696 103.9 139.896 105.464 133.568C107.028 127.24 107.648 124.204 112.12 122.228C116.592 120.252 126.372 117.74 126.372 117.74H142.184Z" fill="#263238"/>
<path id="Vector_62" d="M99.536 165.564L98.796 166.7L97.168 169.208L94.044 167.388L95.68 164.844L96.316 163.86L99.536 165.564Z" fill="#B55B52"/>
<path id="Vector_63" opacity="0.2" d="M99.5359 165.564L98.7959 166.7L95.6799 164.844L96.3159 163.86L99.5359 165.564Z" fill="black"/>
<path id="Vector_64" d="M103.548 164.652L95.368 159.756L94.044 163.024L101.808 167.508L103.548 164.652Z" fill="#0038FF"/>
<path id="Vector_65" d="M91.904 167.508C91.904 167.508 92.5 165.46 91.832 165.42C91.164 165.38 91.904 167.508 91.904 167.508Z" stroke="#0038FF" stroke-width="0.376733" stroke-miterlimit="10"/>
<path id="Vector_66" d="M91.748 167.432C91.748 167.432 90.824 165.208 90.08 165.704C89.336 166.2 91.748 167.432 91.748 167.432Z" stroke="#0038FF" stroke-width="0.376733" stroke-miterlimit="10"/>
<path id="Vector_67" d="M94.4481 167.164L97.1761 168.764C97.3678 168.876 97.5097 169.058 97.5728 169.271C97.6359 169.484 97.6157 169.713 97.5161 169.912L96.2801 172.42C96.2254 172.53 96.1486 172.627 96.0545 172.705C95.9603 172.783 95.8509 172.841 95.7332 172.875C95.6155 172.909 95.492 172.918 95.3706 172.902C95.2492 172.885 95.1326 172.844 95.0281 172.78C93.5601 171.876 90.5321 170.024 89.4281 169.428C87.9401 168.628 85.8561 167.46 85.8841 166.744C85.8897 166.547 85.9647 166.359 86.0958 166.213C86.2268 166.067 86.4055 165.971 86.6001 165.944C86.6001 165.944 90.7921 167.872 93.7321 167.072C93.8515 167.039 93.9764 167.03 94.0993 167.046C94.2223 167.062 94.3408 167.102 94.4481 167.164Z" fill="#263238"/>
<path id="Vector_68" d="M116.864 94.788C116.864 94.788 116.024 103.964 116.36 106.324C116.36 106.324 107.592 107.608 103.16 107L100.192 106.256L96.48 107.164L97.492 110.104H100.46C100.46 110.104 102.62 110.712 103.564 110.104C103.564 110.104 110.984 111.588 115.368 111.116C119.752 110.644 121.112 108.976 121.308 105.652C121.492 102.452 123.6 95.324 121.916 93.704L116.864 94.788Z" fill="#B55B52"/>
<path id="Vector_69" d="M146.976 95.8199C146.976 95.8199 143.612 87.2759 140.34 85.3479C137.068 83.4199 121.916 87.1079 121.916 87.1079C121.916 87.1079 115.416 89.1999 115.044 99.3559L121.016 101.888L121.96 117.74H142.184L142.076 97.2079L146.976 95.8199Z" fill="#0038FF"/>
<path id="Vector_70" d="M122.192 70.3639C122.192 70.3639 120.192 70.1119 119.648 68.6119C119.104 67.1119 121.192 67.8679 121.016 65.1559C120.84 62.4439 123.956 61.7959 126.216 62.9879C128.476 64.1799 132.064 62.8799 133.416 64.5079C134.768 66.1359 134.176 67.6519 134.176 67.6519C134.176 67.6519 138.064 72.0519 133.136 75.0559C128.208 78.0599 122.192 70.3639 122.192 70.3639Z" fill="#263238"/>
<path id="Vector_71" d="M133.952 84.984C131.792 88.276 129.848 88.616 127.244 88.612C124.32 88.612 125.3 86.536 125.3 86.536C126.524 85.924 127.416 85.268 127.556 83.76C127.584 83.4675 127.591 83.1734 127.576 82.88C127.547 82.201 127.43 81.5287 127.228 80.88C123.088 81.256 121.628 79.236 121.112 75.424C120.824 73.0792 121.251 70.7022 122.336 68.604C124.736 71.428 129.252 69.216 129.252 69.216C127.984 72.884 131.088 74.2 131.088 74.2C132.288 73.448 133.248 74.104 133.156 75.564C133.138 75.9713 132.999 76.3638 132.755 76.6911C132.512 77.0184 132.177 77.2653 131.792 77.4C131.556 83.9 133.952 84.984 133.952 84.984Z" fill="#B55B52"/>
<path id="Vector_72" d="M123.476 76.924C123.443 76.924 123.412 76.9116 123.388 76.8893C123.364 76.867 123.35 76.8365 123.348 76.804C123.347 76.7871 123.349 76.7703 123.355 76.7543C123.36 76.7384 123.369 76.7237 123.38 76.711C123.391 76.6984 123.404 76.6881 123.42 76.6807C123.435 76.6733 123.451 76.669 123.468 76.668C124.916 76.592 125.468 75.896 125.488 75.888C125.498 75.8749 125.511 75.8641 125.525 75.856C125.54 75.848 125.555 75.8428 125.572 75.841C125.588 75.8391 125.605 75.8405 125.621 75.8452C125.636 75.8498 125.651 75.8575 125.664 75.868C125.677 75.8782 125.689 75.8909 125.697 75.9055C125.706 75.9201 125.711 75.9362 125.713 75.953C125.716 75.9697 125.715 75.9867 125.71 76.003C125.706 76.0193 125.698 76.0346 125.688 76.048C125.664 76.08 125.056 76.848 123.484 76.924H123.476Z" fill="#263238"/>
<path id="Vector_73" d="M123.476 75.3479L123.24 72.9199L122.192 75.1279C122.368 75.2732 122.58 75.3699 122.805 75.4085C123.03 75.4471 123.261 75.4262 123.476 75.3479Z" fill="#A02724"/>
<path id="Vector_74" d="M125.092 72.9199C125.092 73.2239 125.232 73.4719 125.408 73.4719C125.584 73.4719 125.724 73.2239 125.724 72.9199C125.724 72.6159 125.584 72.3679 125.408 72.3679C125.232 72.3679 125.092 72.6159 125.092 72.9199Z" fill="#263238"/>
<path id="Vector_75" d="M121.876 73.4719C122.051 73.4719 122.192 73.2248 122.192 72.9199C122.192 72.6151 122.051 72.3679 121.876 72.3679C121.702 72.3679 121.56 72.6151 121.56 72.9199C121.56 73.2248 121.702 73.4719 121.876 73.4719Z" fill="#263238"/>
<path id="Vector_76" d="M127.2 71.6999C127.172 71.7006 127.145 71.6944 127.121 71.6818C127.096 71.6692 127.075 71.6507 127.06 71.6279C127.04 71.5959 126.516 70.8919 125.3 71.1159C125.278 71.1206 125.255 71.1207 125.233 71.1163C125.211 71.1119 125.19 71.1031 125.171 71.0904C125.152 71.0777 125.136 71.0614 125.124 71.0424C125.112 71.0234 125.104 71.0022 125.1 70.9799C125.093 70.9355 125.103 70.8901 125.128 70.8529C125.153 70.8157 125.192 70.7896 125.236 70.7799C126.676 70.5159 127.312 71.3919 127.34 71.4319C127.357 71.4576 127.367 71.4875 127.369 71.5184C127.371 71.5493 127.364 71.5801 127.35 71.6076C127.335 71.635 127.314 71.6581 127.288 71.6744C127.261 71.6906 127.231 71.6994 127.2 71.6999Z" fill="#263238"/>
<path id="Vector_77" d="M121.34 71.4759C121.312 71.4754 121.285 71.4685 121.26 71.4559C121.24 71.4458 121.223 71.4318 121.208 71.4148C121.194 71.3978 121.183 71.3782 121.176 71.3569C121.17 71.3357 121.167 71.3134 121.169 71.2913C121.171 71.2691 121.178 71.2476 121.188 71.2279C121.323 71.0031 121.521 70.8234 121.759 70.7116C121.996 70.5998 122.261 70.5609 122.52 70.5999C122.542 70.6028 122.563 70.6102 122.583 70.6215C122.602 70.6327 122.619 70.6478 122.632 70.6657C122.646 70.6835 122.655 70.7039 122.661 70.7256C122.666 70.7473 122.667 70.7698 122.664 70.7919C122.662 70.8139 122.655 70.8352 122.644 70.8544C122.633 70.8737 122.618 70.8906 122.601 70.904C122.583 70.9175 122.563 70.9272 122.542 70.9327C122.52 70.9382 122.498 70.9393 122.476 70.9359C122.286 70.9074 122.092 70.9345 121.918 71.0141C121.743 71.0936 121.595 71.2221 121.492 71.3839C121.477 71.4111 121.455 71.4338 121.428 71.45C121.401 71.4661 121.371 71.475 121.34 71.4759Z" fill="#263238"/>
<path id="Vector_78" d="M121.068 74.8119C120.694 74.8111 120.328 74.6995 120.018 74.4911C119.707 74.2827 119.465 73.9869 119.323 73.6412C119.18 73.2954 119.143 72.9151 119.217 72.5483C119.29 72.1816 119.471 71.8448 119.736 71.5806C120 71.3164 120.337 71.1366 120.704 71.0639C121.071 70.9913 121.451 71.029 121.797 71.1723C122.142 71.3156 122.438 71.5581 122.645 71.8692C122.853 72.1802 122.964 72.5459 122.964 72.9199C122.964 73.1687 122.915 73.415 122.82 73.6448C122.724 73.8747 122.584 74.0834 122.408 74.2591C122.232 74.4349 122.023 74.5742 121.793 74.669C121.563 74.7639 121.317 74.8124 121.068 74.8119ZM121.068 71.2799C120.744 71.2799 120.426 71.3761 120.157 71.5563C119.887 71.7365 119.677 71.9926 119.553 72.2923C119.429 72.592 119.396 72.9217 119.459 73.2398C119.523 73.558 119.679 73.8502 119.908 74.0795C120.138 74.3089 120.43 74.4651 120.748 74.5284C121.066 74.5916 121.396 74.5592 121.696 74.435C121.995 74.3109 122.251 74.1007 122.432 73.831C122.612 73.5613 122.708 73.2442 122.708 72.9199C122.703 72.4884 122.528 72.0764 122.221 71.7731C121.914 71.4699 121.499 71.2998 121.068 71.2999V71.2799Z" fill="white"/>
<path id="Vector_79" d="M125.6 74.8119C125.226 74.8119 124.86 74.7009 124.549 74.493C124.238 74.2851 123.995 73.9896 123.852 73.6439C123.709 73.2982 123.671 72.9178 123.744 72.5508C123.817 72.1838 123.998 71.8466 124.262 71.582C124.527 71.3174 124.864 71.1372 125.231 71.0642C125.598 70.9912 125.978 71.0287 126.324 71.1719C126.67 71.3151 126.965 71.5576 127.173 71.8687C127.381 72.1799 127.492 72.5457 127.492 72.9199C127.491 73.4214 127.291 73.902 126.937 74.2566C126.582 74.6112 126.101 74.8108 125.6 74.8119ZM125.6 71.2799C125.275 71.2791 124.958 71.3746 124.688 71.5543C124.418 71.7341 124.207 71.9899 124.082 72.2895C123.957 72.5891 123.924 72.919 123.987 73.2374C124.05 73.5558 124.206 73.8484 124.435 74.0781C124.664 74.3079 124.956 74.4645 125.275 74.5281C125.593 74.5917 125.923 74.5594 126.223 74.4354C126.523 74.3114 126.779 74.1012 126.959 73.8314C127.14 73.5617 127.236 73.2444 127.236 72.9199C127.23 72.4894 127.055 72.0786 126.749 71.7757C126.443 71.4728 126.031 71.3019 125.6 71.2999V71.2799Z" fill="white"/>
<path id="Vector_80" d="M122.964 72.9199H123.692" stroke="white" stroke-width="0.376733" stroke-miterlimit="10"/>
<path id="Vector_81" d="M127.356 73.2679L130.904 74.1199" stroke="white" stroke-width="0.376733" stroke-linecap="round" stroke-linejoin="round"/>
<path id="Vector_82" opacity="0.2" d="M128.6 80.5C128.373 81.3328 128.028 82.1289 127.576 82.864C127.547 82.185 127.43 81.5127 127.228 80.864L128.6 80.5Z" fill="black"/>
<path id="Vector_83" opacity="0.2" d="M121.016 101.888V99.3559L119.992 101.456L121.016 101.888Z" fill="black"/>
<path id="Vector_84" opacity="0.2" d="M137.708 98.5079L136.928 93.9519L136.708 98.9119L137.708 98.5079Z" fill="black"/>
<path id="Vector_85" d="M143.288 108.068C143.24 111.4 141.74 113.06 137.352 113.532C132.964 114.004 125.548 112.52 125.548 112.52C124.604 113.128 122.444 112.52 122.444 112.52H119.476L118.468 109.58L122.176 108.676L125.144 109.416C129.596 110.024 138.364 108.744 138.364 108.744C138.112 106.976 137.828 101.204 137.708 98.5079L142.94 96.9599C143.456 100.5 143.332 105.196 143.288 108.068Z" fill="#B55B52"/>
<path id="Vector_86" d="M65.908 90.6679L69.448 108.712C69.5265 109.103 69.7378 109.455 70.0462 109.708C70.3546 109.961 70.7411 110.099 71.14 110.1H101.112C101.364 110.1 101.612 110.044 101.84 109.938C102.068 109.831 102.269 109.676 102.431 109.483C102.592 109.29 102.709 109.064 102.774 108.821C102.838 108.578 102.848 108.323 102.804 108.076L99.604 90.0319C99.5334 89.6346 99.3251 89.2749 99.0157 89.0159C98.7063 88.757 98.3155 88.6153 97.912 88.6159H67.6C67.3454 88.6145 67.0936 88.6698 66.863 88.7778C66.6324 88.8858 66.4288 89.0437 66.2668 89.2402C66.1048 89.4366 65.9886 89.6667 65.9265 89.9136C65.8644 90.1606 65.8581 90.4182 65.908 90.6679Z" fill="#0038FF"/>
<path id="Vector_87" opacity="0.2" d="M98.348 88.6159L102.092 110.1C102.223 110.1 102.353 110.072 102.472 110.016C102.592 109.961 102.697 109.88 102.781 109.779C102.866 109.678 102.927 109.56 102.961 109.433C102.994 109.306 102.999 109.173 102.976 109.044L99.468 89.3519C99.4312 89.1446 99.3223 88.9571 99.1605 88.8224C98.9987 88.6877 98.7945 88.6145 98.584 88.6159H98.348Z" fill="black"/>
<path id="Vector_88" d="M69.8 111.824H115.896C115.897 111.597 115.852 111.373 115.766 111.164C115.679 110.954 115.552 110.764 115.392 110.604C115.232 110.444 115.042 110.317 114.832 110.23C114.623 110.144 114.399 110.099 114.172 110.1H71.532C71.3051 110.099 71.0803 110.144 70.8704 110.23C70.6606 110.316 70.4698 110.443 70.3089 110.603C70.1481 110.763 70.0204 110.954 69.9331 111.163C69.8457 111.372 69.8005 111.597 69.8 111.824Z" fill="#0038FF"/>
<path id="Vector_89" opacity="0.2" d="M100.668 111.824H115.896C115.896 111.597 115.852 111.373 115.766 111.164C115.679 110.954 115.552 110.764 115.392 110.604C115.232 110.444 115.042 110.317 114.832 110.23C114.623 110.144 114.399 110.099 114.172 110.1H102.4C102.173 110.099 101.948 110.144 101.738 110.23C101.529 110.316 101.338 110.443 101.177 110.603C101.016 110.763 100.888 110.954 100.801 111.163C100.714 111.372 100.668 111.597 100.668 111.824Z" fill="black"/>
<path id="Vector_90" opacity="0.4" d="M80.692 100.028C81.016 102.272 82.568 103.908 84.16 103.68C85.752 103.452 86.78 101.444 86.46 99.1999C86.14 96.9559 84.584 95.3199 82.992 95.5479C81.4 95.7759 80.368 97.7799 80.692 100.028Z" fill="white"/>
<path id="Vector_91" opacity="0.2" d="M69.8 111.824H115.896C115.897 111.597 115.852 111.373 115.766 111.164C115.679 110.954 115.552 110.764 115.392 110.604C115.232 110.444 115.042 110.317 114.832 110.23C114.623 110.144 114.399 110.099 114.172 110.1H71.532C71.3051 110.099 71.0803 110.144 70.8704 110.23C70.6606 110.316 70.4698 110.443 70.3089 110.603C70.1481 110.763 70.0204 110.954 69.9331 111.163C69.8457 111.372 69.8005 111.597 69.8 111.824Z" fill="black"/>
<path id="Vector_92" d="M50.92 114.056H130.52C130.52 113.301 130.22 112.576 129.686 112.042C129.152 111.508 128.427 111.208 127.672 111.208H53.772C53.0163 111.208 52.2915 111.508 51.7567 112.042C51.222 112.576 50.921 113.3 50.92 114.056Z" fill="#263238"/>
</g>
</g>
<defs>
<clipPath id="clip0_350_1219">
<rect width="200" height="200" fill="white" transform="translate(0 0.5)"/>
</clipPath>
</defs>
</svg>
