<svg width="200" height="200" viewBox="0 0 200 200" fill="none" xmlns="http://www.w3.org/2000/svg">
<g id="Programming-rafiki">
<g id="freepik--background-complete--inject-33">
<path id="Vector" d="M200 152.96H0V153.06H200V152.96Z" fill="#EBEBEB"/>
<path id="Vector_2" d="M94.7999 135.12H17.5639C16.9589 135.119 16.379 134.878 15.9515 134.45C15.524 134.021 15.2839 133.441 15.2839 132.836V24.264C15.2892 23.6624 15.5316 23.0872 15.9585 22.6633C16.3854 22.2394 16.9623 22.001 17.5639 22H94.7999C95.4057 22 95.9866 22.2406 96.415 22.669C96.8433 23.0973 97.0839 23.6782 97.0839 24.284V132.836C97.0839 133.442 96.8433 134.023 96.415 134.451C95.9866 134.879 95.4057 135.12 94.7999 135.12ZM17.5639 22.08C16.9854 22.0811 16.4309 22.3116 16.0222 22.7211C15.6135 23.1306 15.3839 23.6855 15.3839 24.264V132.836C15.3839 133.415 15.6135 133.969 16.0222 134.379C16.4309 134.788 16.9854 135.019 17.5639 135.02H94.7999C95.3788 135.019 95.9337 134.789 96.3431 134.379C96.7524 133.97 96.9829 133.415 96.9839 132.836V24.264C96.9829 23.6851 96.7524 23.1302 96.3431 22.7208C95.9337 22.3115 95.3788 22.0811 94.7999 22.08H17.5639Z" fill="#EBEBEB"/>
<path id="Vector_3" d="M181.324 135.12H104.084C103.479 135.119 102.898 134.878 102.47 134.45C102.042 134.022 101.801 133.441 101.8 132.836V24.264C101.806 23.662 102.05 23.0868 102.477 22.663C102.905 22.2392 103.482 22.001 104.084 22H181.324C181.925 22.0021 182.501 22.2409 182.927 22.6647C183.353 23.0885 183.595 23.6631 183.6 24.264V132.836C183.6 133.44 183.361 134.02 182.934 134.448C182.507 134.876 181.928 135.118 181.324 135.12ZM104.084 22.08C103.505 22.0811 102.95 22.3115 102.541 22.7208C102.132 23.1302 101.901 23.6851 101.9 24.264V132.836C101.901 133.415 102.132 133.97 102.541 134.379C102.95 134.789 103.505 135.019 104.084 135.02H181.324C181.903 135.019 182.458 134.789 182.867 134.379C183.277 133.97 183.507 133.415 183.508 132.836V24.264C183.507 23.6851 183.277 23.1302 182.867 22.7208C182.458 22.3115 181.903 22.0811 181.324 22.08H104.084Z" fill="#EBEBEB"/>
<path id="Vector_4" d="M80.1759 156.768H69.7759V156.868H80.1759V156.768Z" fill="#EBEBEB"/>
<path id="Vector_5" d="M42.6239 155.684H20.9839V155.784H42.6239V155.684Z" fill="#EBEBEB"/>
<path id="Vector_6" d="M69.3759 160.484H58.8479V160.584H69.3759V160.484Z" fill="#EBEBEB"/>
<path id="Vector_7" d="M118.824 159.812H103.292V159.912H118.824V159.812Z" fill="#EBEBEB"/>
<path id="Vector_8" d="M126.66 159.812H122.384V159.912H126.66V159.812Z" fill="#EBEBEB"/>
<path id="Vector_9" d="M179.964 158.124H158.14V158.224H179.964V158.124Z" fill="#EBEBEB"/>
<path id="Vector_10" d="M152.424 149.412H170.684V99.224H152.424V149.412Z" fill="#F0F0F0"/>
<path id="Vector_11" d="M72.692 152.956H167.176V149.408H72.692V152.956Z" fill="#F0F0F0"/>
<path id="Vector_12" d="M152.424 99.22H69.188V149.408H152.424V99.22Z" fill="#F5F5F5"/>
<path id="Vector_13" d="M152.744 102.62H69.188V120.992H152.744V102.62Z" fill="#F0F0F0"/>
<path id="Vector_14" d="M152.744 124.34H69.188V142.712H152.744V124.34Z" fill="#F0F0F0"/>
<path id="Vector_15" d="M152.424 120.988H155.584V102.616H152.424V120.988Z" fill="#E6E6E6"/>
<path id="Vector_16" d="M152.424 142.708H155.584V124.336H152.424V142.708Z" fill="#E6E6E6"/>
<path id="Vector_17" d="M66.7561 99.22L152.424 99.22V96.132L66.7561 96.132V99.22Z" fill="#F0F0F0"/>
<path id="Vector_18" d="M173.236 96.132H152.424V99.22H173.236V96.132Z" fill="#E6E6E6"/>
<path id="Vector_19" d="M131.26 86.692H174.232V32.676L131.26 32.676V86.692Z" fill="#F0F0F0"/>
<path id="Vector_20" d="M121.772 86.692H172.584V32.676L121.772 32.676V86.692Z" fill="#F5F5F5"/>
<path id="Vector_21" d="M126.028 36.932V82.436H168.328V36.932H126.028Z" fill="white"/>
<path id="Vector_22" d="M151.86 64.608L159.944 60.86V58.504L151.86 54.748V57.572L156.772 59.688L151.86 61.804V64.608Z" fill="#E6E6E6"/>
<path id="Vector_23" d="M146.588 53.66H145.112L147.728 65.704H149.2L146.588 53.66Z" fill="#E6E6E6"/>
<path id="Vector_24" d="M142.492 61.804L137.6 59.688L142.512 57.572V54.748L134.4 58.504V60.86L142.484 64.608L142.492 61.804Z" fill="#E6E6E6"/>
<path id="Vector_25" d="M46.8881 152.96H49.7041L49.7041 61.288H46.8881L46.8881 152.96Z" fill="#F0F0F0"/>
<path id="Vector_26" d="M46.3 152.32L46.224 151.92C46.5136 151.827 46.7812 151.676 47.0103 151.476C47.2393 151.275 47.425 151.031 47.556 150.756C48.288 149.46 48.732 146.696 46.696 140.904C43.56 131.976 45.432 124.776 49.164 110.424C49.812 107.924 50.548 105.092 51.312 102.024C54.18 90.556 51.528 83.444 49.396 77.728C47.744 73.292 46.436 69.788 48.108 65.728L48.48 65.88C46.88 69.792 48.148 73.232 49.772 77.588C51.924 83.352 54.6 90.532 51.7 102.116C50.936 105.18 50.2 108.012 49.552 110.516C45.84 124.8 43.976 131.968 47.076 140.8C49.168 146.756 48.676 149.636 47.876 151C47.7172 151.316 47.4955 151.596 47.2245 151.823C46.9535 152.05 46.6389 152.219 46.3 152.32Z" fill="#F0F0F0"/>
<path id="Vector_27" d="M43.196 152.96H53.392L50.556 151.288H46.032L43.196 152.96Z" fill="#F0F0F0"/>
<path id="Vector_28" d="M28.124 72.964H68.464L64.024 39.068H32.564L28.124 72.964Z" fill="#F5F5F5"/>
<path id="Vector_29" d="M87.9519 78.552H109.488L106.652 96.132H90.7879L87.9519 78.552Z" fill="#F0F0F0"/>
<path id="Vector_30" d="M96.6041 84.272C102.476 82.148 106.972 78.956 101.94 72.496C96.9081 66.036 89.1121 66.068 83.8561 68.928C77.1601 72.568 78.5041 83.108 78.5041 83.108C78.5041 83.108 90.7321 86.4 96.6041 84.272Z" fill="#E0E0E0"/>
<path id="Vector_31" d="M102.312 78.4C97.8201 75.34 94.6361 71.8 99.8481 68.064C105.06 64.328 111.488 66.244 115.352 69.712C120.276 74.136 117.432 81.9 117.432 81.9C117.432 81.9 106.8 81.444 102.312 78.4Z" fill="#E6E6E6"/>
<path id="Vector_32" d="M94.3999 70.636C99.6559 70.32 104.064 68.948 101.576 63.256C99.0879 57.564 92.7759 55.968 87.8519 56.944C81.5599 58.188 80.0759 66.06 80.0759 66.06C80.0759 66.06 89.1479 70.956 94.3999 70.636Z" fill="#F0F0F0"/>
<path id="Vector_33" d="M101 67.28C96.6279 65.872 93.1999 63.764 96.5319 59.488C99.8639 55.212 105.532 55.236 109.492 57.124C114.54 59.524 114.092 66.508 114.092 66.508C114.092 66.508 105.372 68.684 101 67.28Z" fill="#EBEBEB"/>
<path id="Vector_34" d="M92.8 60C97.164 61.44 101.176 61.752 100.996 56.336C100.816 50.92 96.232 47.6 91.92 46.776C86.42 45.752 82.676 51.652 82.676 51.652C82.676 51.652 88.444 58.548 92.8 60Z" fill="#F5F5F5"/>
<path id="Vector_35" d="M103.876 57.66C100.752 57.876 98.0521 57.404 99.0761 53.856C100.1 50.308 103.7 48.896 106.676 49.092C110.476 49.344 111.952 53.892 111.952 53.892C111.952 53.892 106.996 57.448 103.876 57.66Z" fill="#FAFAFA"/>
</g>
<g id="freepik--Shadow--inject-33">
<path id="freepik--path--inject-33" d="M100 171.024C142.833 171.024 177.556 168.997 177.556 166.496C177.556 163.995 142.833 161.968 100 161.968C57.1671 161.968 22.4441 163.995 22.4441 166.496C22.4441 168.997 57.1671 171.024 100 171.024Z" fill="#F5F5F5"/>
</g>
<g id="freepik--Desk--inject-33">
<path id="Vector_36" d="M167.704 100.436H31.804V105.312H167.704V100.436Z" fill="#0038FF"/>
<path id="Vector_37" opacity="0.3" d="M68.176 100.436H31.804V105.312H68.176V100.436Z" fill="white"/>
<path id="Vector_38" d="M68.756 105.312H65.592L67.248 166.424H68.756H70.264L71.924 105.312H68.756Z" fill="#0038FF"/>
<path id="Vector_39" opacity="0.3" d="M67.248 166.424H68.756V106.624L65.644 107.192L67.248 166.424Z" fill="white"/>
<path id="Vector_40" d="M38.768 105.312H35.604L37.26 166.424H38.768H40.276L41.932 105.312H38.768Z" fill="#0038FF"/>
<path id="Vector_41" opacity="0.3" d="M37.2599 166.424H38.7679V106.624L35.6519 107.192L37.2599 166.424Z" fill="white"/>
<path id="Vector_42" d="M160.74 105.312H157.576L159.232 166.424H160.74H162.248L163.908 105.312H160.74Z" fill="#0038FF"/>
<path id="Vector_43" opacity="0.3" d="M159.232 166.424H160.74V106.624L157.628 107.192L159.232 166.424Z" fill="white"/>
<path id="Vector_44" d="M130.752 105.312H127.588L129.244 166.424H130.752H132.26L133.916 105.312H130.752Z" fill="#0038FF"/>
<path id="Vector_45" opacity="0.3" d="M129.244 166.424H130.752V106.624L127.64 107.192L129.244 166.424Z" fill="white"/>
<path id="Vector_46" d="M96.3121 74.332H64.0001C63.7378 74.3216 63.4769 74.3734 63.2385 74.4831C63.0001 74.5929 62.7911 74.7574 62.6284 74.9634C62.4658 75.1693 62.3541 75.4108 62.3026 75.6681C62.2511 75.9254 62.2612 76.1913 62.3321 76.444L66.6361 96.984C66.7746 97.565 67.0986 98.085 67.5591 98.4653C68.0196 98.8457 68.5914 99.0657 69.1881 99.092H101.524C101.786 99.1022 102.046 99.0504 102.284 98.9409C102.522 98.8314 102.731 98.6672 102.894 98.4618C103.056 98.2563 103.168 98.0154 103.22 97.7586C103.272 97.5018 103.262 97.2364 103.192 96.984L98.8841 76.444C98.7454 75.8591 98.4187 75.3358 97.9541 74.9544C97.4896 74.5729 96.9128 74.3543 96.3121 74.332Z" fill="#263238"/>
<path id="Vector_47" d="M69.468 97.92C69.065 97.8928 68.6808 97.7389 68.3705 97.4803C68.0601 97.2216 67.8395 96.8715 67.74 96.48L63.436 75.94C63.3992 75.8041 63.3934 75.6616 63.419 75.5231C63.4446 75.3847 63.501 75.2537 63.584 75.14C63.6702 75.0426 63.777 74.9658 63.8968 74.9153C64.0166 74.8647 64.1462 74.8417 64.276 74.848H96.612C97.0151 74.8752 97.3992 75.0291 97.7096 75.2877C98.0199 75.5464 98.2406 75.8964 98.34 76.288L102.644 96.828C102.681 96.9639 102.687 97.1064 102.661 97.2448C102.635 97.3833 102.579 97.5142 102.496 97.628C102.41 97.7261 102.304 97.8033 102.184 97.8539C102.064 97.9045 101.934 97.9271 101.804 97.92H69.468Z" fill="white"/>
<path id="Vector_48" opacity="0.4" d="M93.8639 96.276L89.7839 76.8C89.761 76.6847 89.7638 76.5657 89.792 76.4516C89.8203 76.3375 89.8733 76.231 89.9474 76.1398C90.0215 76.0485 90.1148 75.9747 90.2207 75.9235C90.3265 75.8724 90.4424 75.8453 90.5599 75.844H95.8079C95.9899 75.8454 96.1659 75.9088 96.307 76.0237C96.448 76.1386 96.5457 76.2981 96.5839 76.476L100.664 95.936C100.687 96.0513 100.684 96.1702 100.656 96.2844C100.628 96.3985 100.575 96.5049 100.5 96.5962C100.426 96.6875 100.333 96.7613 100.227 96.8124C100.121 96.8636 100.005 96.8907 99.8879 96.892H94.6399C94.4602 96.8914 94.2859 96.8303 94.1451 96.7186C94.0043 96.6068 93.9053 96.4509 93.8639 96.276Z" fill="#0038FF"/>
<path id="Vector_49" d="M66.1279 77.548L65.9519 76.704H72.4319L72.6079 77.548H66.1279Z" fill="#0038FF"/>
<path id="Vector_50" d="M69.1198 79.644L68.9438 78.8H80.2998L80.4798 79.644H69.1198Z" fill="#EBEBEB"/>
<path id="Vector_51" d="M69.72 81.736L69.54 80.892H82.272L82.448 81.736H69.72Z" fill="#EBEBEB"/>
<path id="Vector_52" d="M70.3159 83.832L70.1399 82.988H80.3879L80.5679 83.832H70.3159Z" fill="#EBEBEB"/>
<path id="Vector_53" d="M68.0999 87.228L67.9199 86.384H72.0199L72.1959 87.228H68.0999Z" fill="#0038FF"/>
<path id="Vector_54" d="M71.0879 89.32L70.9119 88.476H75.9039L76.0839 89.32H71.0879Z" fill="#EBEBEB"/>
<path id="Vector_55" d="M77.2799 89.32L77.0999 88.476H82.0959L82.2719 89.32H77.2799Z" fill="#EBEBEB"/>
<path id="Vector_56" d="M71.688 91.416L71.512 90.572H88.392L88.568 91.416H71.688Z" fill="#EBEBEB"/>
<path id="Vector_57" d="M72.2839 93.508L72.1079 92.664H84.9799L85.1559 93.508H72.2839Z" fill="#EBEBEB"/>
<path id="Vector_58" d="M111.408 98.968H68.8639C67.7039 98.968 66.9519 99.628 67.1959 100.436H113.96C113.72 99.628 112.568 98.968 111.408 98.968Z" fill="#263238"/>
<path id="Vector_59" opacity="0.1" d="M54.884 69.14L50.8 49.676C50.7777 49.561 50.781 49.4425 50.8096 49.3289C50.8381 49.2153 50.8913 49.1093 50.9653 49.0185C51.0393 48.9277 51.1324 48.8542 51.2379 48.8034C51.3434 48.7525 51.4588 48.7254 51.576 48.724H84.616C84.7974 48.7252 84.973 48.788 85.114 48.9021C85.255 49.0162 85.353 49.1749 85.392 49.352L89.476 68.8C89.4989 68.9153 89.4962 69.0342 89.4679 69.1484C89.4396 69.2625 89.3866 69.369 89.3125 69.4602C89.2384 69.5515 89.1451 69.6253 89.0392 69.6764C88.9334 69.7276 88.8175 69.7547 88.7 69.756H55.66C55.4802 69.7554 55.3059 69.6943 55.1652 69.5826C55.0244 69.4708 54.9253 69.3149 54.884 69.14Z" fill="#0038FF"/>
<path id="Vector_60" d="M66.6279 49.364H59.6919L59.5359 48.616H66.4719L66.6279 49.364Z" fill="#0038FF"/>
<path id="Vector_61" opacity="0.4" d="M65.5001 50.556H62.7161L62.5601 49.808H65.3441L65.5001 50.556Z" fill="#0038FF"/>
<path id="Vector_62" opacity="0.4" d="M70.132 50.556H65.844L65.688 49.808H69.976L70.132 50.556Z" fill="#0038FF"/>
<path id="Vector_63" opacity="0.4" d="M71.9999 51.744H62.9639L62.8079 50.996H71.8479L71.9999 51.744Z" fill="#0038FF"/>
<path id="Vector_64" opacity="0.4" d="M70.8519 52.936H63.2119L63.0559 52.188H70.6959L70.8519 52.936Z" fill="#0038FF"/>
<path id="Vector_65" opacity="0.4" d="M75.9199 65.58H71.0559L71.2119 66.324H76.0759L75.9199 65.58Z" fill="#0038FF"/>
<path id="Vector_66" d="M69.8559 63.948H62.7319L62.5759 63.2H69.6999L69.8559 63.948Z" fill="#0038FF"/>
<path id="Vector_67" opacity="0.4" d="M72.7199 66.768H66.0959L66.2519 67.516H72.8759L72.7199 66.768Z" fill="#0038FF"/>
<path id="Vector_68" opacity="0.4" d="M70.7119 65.58H65.8479L66.0039 66.324H70.8679L70.7119 65.58Z" fill="#0038FF"/>
<path id="Vector_69" opacity="0.4" d="M75.3279 64.388H65.5999L65.7559 65.136H75.4839L75.3279 64.388Z" fill="#0038FF"/>
<path id="Vector_70" d="M66.3839 43.812H58.5359L58.3799 43.068H66.2279L66.3839 43.812Z" fill="#0038FF"/>
<path id="Vector_71" opacity="0.4" d="M70.26 46.636H61.604L61.76 47.384H70.412L70.26 46.636Z" fill="#0038FF"/>
<path id="Vector_72" opacity="0.4" d="M68.528 45.448H61.356L61.512 46.192H68.684L68.528 45.448Z" fill="#0038FF"/>
<path id="Vector_73" opacity="0.4" d="M69.0039 44.256H61.1079L61.2639 45.004H69.1599L69.0039 44.256Z" fill="#0038FF"/>
<path id="Vector_74" d="M66.2961 54.872H60.8401L60.6841 54.124H66.1401L66.2961 54.872Z" fill="#0038FF"/>
<path id="Vector_75" opacity="0.4" d="M74.8639 57.692H64.2039L64.3599 58.44H75.0159L74.8639 57.692Z" fill="#0038FF"/>
<path id="Vector_76" opacity="0.4" d="M68.3721 56.504H63.9561L64.1121 57.252H68.5281L68.3721 56.504Z" fill="#0038FF"/>
<path id="Vector_77" opacity="0.4" d="M73.1641 56.504H68.748L68.904 57.252H73.3201L73.1641 56.504Z" fill="#0038FF"/>
<path id="Vector_78" opacity="0.4" d="M73.436 55.312H63.708L63.864 56.06H73.588L73.436 55.312Z" fill="#0038FF"/>
<path id="Vector_79" opacity="0.4" d="M73.416 61.264H64.948L65.104 62.008H73.572L73.416 61.264Z" fill="#0038FF"/>
<path id="Vector_80" opacity="0.4" d="M67.164 60.072H64.7L64.856 60.82H67.3159L67.164 60.072Z" fill="#0038FF"/>
<path id="Vector_81" opacity="0.4" d="M71.016 60.072H67.5L67.656 60.82H71.172L71.016 60.072Z" fill="#0038FF"/>
<path id="Vector_82" opacity="0.4" d="M74.1799 58.884H64.4519L64.6079 59.628H74.3359L74.1799 58.884Z" fill="#0038FF"/>
<path id="Vector_83" opacity="0.4" d="M81.84 58.684H78.356L78.2 57.936H81.688L81.84 58.684Z" fill="#0038FF"/>
<path id="Vector_84" opacity="0.4" d="M87.64 58.684H82.272L82.116 57.936H87.484L87.64 58.684Z" fill="#0038FF"/>
<path id="Vector_85" opacity="0.4" d="M89.92 59.876H78.604L78.448 59.128H89.764L89.92 59.876Z" fill="#0038FF"/>
<path id="Vector_86" opacity="0.4" d="M88.416 61.064H78.852L78.696 60.316H88.26L88.416 61.064Z" fill="#0038FF"/>
<path id="Vector_87" opacity="0.4" d="M92.7 53.952H81.864L82.02 54.696H92.856L92.7 53.952Z" fill="#0038FF"/>
<path id="Vector_88" opacity="0.4" d="M90.596 52.76H81.616L81.772 53.508H90.748L90.596 52.76Z" fill="#0038FF"/>
<path id="Vector_89" d="M88.972 51.572H79.084L79.24 52.316H89.128L88.972 51.572Z" fill="#0038FF"/>
<path id="Vector_90" opacity="0.4" d="M93.188 65.824H79.844L80 66.572H93.344L93.188 65.824Z" fill="#0038FF"/>
<path id="Vector_91" opacity="0.4" d="M85.1239 64.636H79.5959L79.7519 65.38H85.2799L85.1239 64.636Z" fill="#0038FF"/>
<path id="Vector_92" opacity="0.4" d="M91.1239 64.636H85.5959L85.7519 65.38H91.2799L91.1239 64.636Z" fill="#0038FF"/>
<path id="Vector_93" opacity="0.4" d="M91.5239 63.444H79.3479L79.5039 64.192H91.6799L91.5239 63.444Z" fill="#0038FF"/>
<path id="Vector_94" opacity="0.4" d="M91.1879 69.392H80.5879L80.7439 70.14H91.3439L91.1879 69.392Z" fill="#0038FF"/>
<path id="Vector_95" opacity="0.4" d="M83.4238 68.204H80.3398L80.4958 68.952H83.5798L83.4238 68.204Z" fill="#0038FF"/>
<path id="Vector_96" opacity="0.4" d="M88.2479 68.204H83.8479L84.0039 68.952H88.4039L88.2479 68.204Z" fill="#0038FF"/>
<path id="Vector_97" opacity="0.4" d="M92.272 67.012H80.092L80.248 67.76H92.424L92.272 67.012Z" fill="#0038FF"/>
<path id="Vector_98" opacity="0.4" d="M59.8399 70.316H51.5439L51.6999 71.064H59.9959L59.8399 70.316Z" fill="#0038FF"/>
<path id="Vector_99" opacity="0.4" d="M57.3879 69.128H51.2959L51.4519 69.872H57.5399L57.3879 69.128Z" fill="#0038FF"/>
<path id="Vector_100" opacity="0.4" d="M63.9039 69.128H57.8159L57.9719 69.872H64.0639L63.9039 69.128Z" fill="#0038FF"/>
<path id="Vector_101" opacity="0.4" d="M63.2279 67.936H51.0479L51.2038 68.684H63.3798L63.2279 67.936Z" fill="#0038FF"/>
<path id="Vector_102" d="M156.38 92.664H151.244L151.844 100.436H155.78L156.38 92.664Z" fill="#0038FF"/>
<path id="Vector_103" opacity="0.4" d="M156.38 92.664H151.244L151.844 100.436H155.78L156.38 92.664Z" fill="white"/>
<path id="Vector_104" d="M44.4519 87.268H51.8359L49.3159 100.436H41.9319L44.4519 87.268Z" fill="#263238"/>
<path id="Vector_105" d="M53.856 83.74H43.428L46.348 100.436H56.776L53.856 83.74Z" fill="#0038FF"/>
<path id="Vector_106" d="M42.812 83.74H43.428L46.348 100.436H45.732L42.812 83.74Z" fill="#0038FF"/>
<path id="Vector_107" opacity="0.3" d="M42.812 83.74H43.428L46.348 100.436H45.732L42.812 83.74Z" fill="black"/>
<path id="Vector_108" d="M47.848 98.648L45.552 85.524H52.36L54.652 98.648H47.848Z" fill="white"/>
<path id="Vector_109" opacity="0.6" d="M54.3279 98.648L52.0359 85.524H52.3599L54.6519 98.648H54.3279Z" fill="#0038FF"/>
</g>
<g id="freepik--Character--inject-33">
<path id="Vector_110" d="M105.508 62.4C105.656 62.72 105.608 63.06 105.396 63.156C105.184 63.252 104.896 63.072 104.748 62.756C104.6 62.44 104.652 62.096 104.86 62C105.068 61.904 105.36 62.064 105.508 62.4Z" fill="#263238"/>
<path id="Vector_111" d="M105.636 63.032C105.636 63.032 105.764 65.216 105.372 66.48C106.172 66.748 107.036 66.08 107.036 66.08L105.636 63.032Z" fill="#FF5652"/>
<path id="Vector_112" d="M105.548 59.756C105.514 59.7841 105.472 59.8009 105.428 59.804C105.168 59.8109 104.913 59.8794 104.684 60.0038C104.455 60.1283 104.259 60.3052 104.112 60.52C104.099 60.5446 104.081 60.5663 104.059 60.5838C104.037 60.6014 104.012 60.6143 103.986 60.622C103.959 60.6297 103.931 60.6318 103.903 60.6284C103.875 60.625 103.849 60.6161 103.824 60.6021C103.8 60.5881 103.779 60.5695 103.762 60.5472C103.746 60.5249 103.733 60.4995 103.727 60.4724C103.72 60.4453 103.719 60.4172 103.723 60.3896C103.727 60.3621 103.737 60.3357 103.752 60.312C103.933 60.0369 104.178 59.8094 104.465 59.6486C104.753 59.4878 105.075 59.3984 105.404 59.388C105.448 59.3856 105.491 59.397 105.528 59.4207C105.565 59.4444 105.593 59.4791 105.609 59.5199C105.625 59.5607 105.628 59.6055 105.617 59.6478C105.606 59.6902 105.582 59.7281 105.548 59.756Z" fill="#263238"/>
<path id="Vector_113" d="M117.288 61.904C118.524 66.184 119.904 69.504 121.588 71.4C121.588 71.4 121.62 74.764 115.888 76.364C109.584 78.124 112 74.076 112 74.076C115.2 72.296 114.896 69.608 112.488 68.584L117.288 61.904Z" fill="#FF8B7B"/>
<path id="Vector_114" d="M122.924 70.58C122.812 69.016 122.664 67.232 121.7 67.184C120.636 67.136 114.476 69.888 113.16 71.828C111.844 73.768 114.416 75.668 114.416 75.668L122.924 70.58Z" fill="#263238"/>
<path id="Vector_115" d="M110.316 94.8L104.996 94.624L105.092 99.08C105.092 99.08 109.732 98.6 109.936 97.38L110.316 94.8Z" fill="#FF8B7B"/>
<path id="Vector_116" d="M102.184 96.812L101.624 99.092L105.092 99.084L104.996 94.628L102.184 96.812Z" fill="#FF8B7B"/>
<path id="Vector_117" d="M131.668 76.284L131.556 77.428C131.52 77.796 131.472 78.156 131.424 78.52C131.332 79.244 131.216 79.968 131.092 80.688C130.852 82.132 130.54 83.568 130.18 85.012C129.814 86.4837 129.371 87.935 128.852 89.36C128.576 90.092 128.288 90.824 127.944 91.568C127.597 92.3484 127.196 93.1036 126.744 93.828C126.636 94.016 126.5 94.228 126.368 94.404C126.236 94.58 126.108 94.804 125.968 94.988C125.828 95.172 125.68 95.388 125.496 95.576L125.236 95.872C125.143 95.9812 125.044 96.0854 124.94 96.184C124.138 96.9692 123.198 97.5997 122.168 98.044C120.587 98.7222 118.909 99.1474 117.196 99.304C116.416 99.396 115.644 99.432 114.888 99.452C114.132 99.472 113.376 99.452 112.632 99.412C111.888 99.372 111.152 99.308 110.42 99.22C109.688 99.132 108.976 99.016 108.2 98.86L108.328 94.68C110.882 94.2334 113.407 93.6323 115.888 92.88C116.44 92.7006 116.982 92.4923 117.512 92.256C117.963 92.0656 118.395 91.8311 118.8 91.556C119.036 91.414 119.235 91.2197 119.384 90.988L119.5 90.804C119.554 90.7254 119.603 90.644 119.648 90.56C119.705 90.4682 119.757 90.3734 119.804 90.276C119.856 90.172 119.912 90.076 119.964 89.96C120.434 88.9341 120.82 87.872 121.12 86.784C121.448 85.608 121.756 84.384 122.004 83.116C122.252 81.848 122.492 80.568 122.712 79.276L123.016 77.332L123.292 75.44L131.668 76.284Z" fill="#0038FF"/>
<path id="Vector_118" opacity="0.2" d="M131.668 76.284L131.556 77.428C131.52 77.796 131.472 78.156 131.424 78.52C131.332 79.244 131.216 79.968 131.092 80.688C130.852 82.132 130.54 83.568 130.18 85.012C129.814 86.4837 129.371 87.935 128.852 89.36C128.576 90.092 128.288 90.824 127.944 91.568C127.597 92.3484 127.196 93.1036 126.744 93.828C126.636 94.016 126.5 94.228 126.368 94.404C126.236 94.58 126.108 94.804 125.968 94.988C125.828 95.172 125.68 95.388 125.496 95.576L125.236 95.872C125.143 95.9812 125.044 96.0854 124.94 96.184C124.138 96.9692 123.198 97.5997 122.168 98.044C120.587 98.7222 118.909 99.1474 117.196 99.304C116.416 99.396 115.644 99.432 114.888 99.452C114.132 99.472 113.376 99.452 112.632 99.412C111.888 99.372 111.152 99.308 110.42 99.22C109.688 99.132 108.976 99.016 108.2 98.86L108.328 94.68C110.882 94.2334 113.407 93.6323 115.888 92.88C116.44 92.7006 116.982 92.4923 117.512 92.256C117.963 92.0656 118.395 91.8311 118.8 91.556C119.036 91.414 119.235 91.2197 119.384 90.988L119.5 90.804C119.554 90.7254 119.603 90.644 119.648 90.56C119.705 90.4682 119.757 90.3734 119.804 90.276C119.856 90.172 119.912 90.076 119.964 89.96C120.434 88.9341 120.82 87.872 121.12 86.784C121.448 85.608 121.756 84.384 122.004 83.116C122.252 81.848 122.492 80.568 122.712 79.276L123.016 77.332L123.292 75.44L131.668 76.284Z" fill="black"/>
<path id="Vector_119" d="M108.048 81.6C110.031 90.1513 111.148 98.8808 111.38 107.656H134.8C134.928 104.764 134.44 88.456 132.084 76.676C131.875 75.609 131.455 74.5946 130.848 73.6923C130.241 72.79 129.46 72.0181 128.551 71.4219C127.642 70.8256 126.622 70.4171 125.553 70.2204C124.484 70.0236 123.386 70.0425 122.324 70.276L122.212 70.304C119.288 70.968 115.092 72.04 112.612 72.98L112.512 73.02C110.853 73.6649 109.486 74.8909 108.665 76.4696C107.843 78.0482 107.624 79.8717 108.048 81.6Z" fill="#0038FF"/>
<path id="Vector_120" opacity="0.2" d="M109.572 89.08C109.756 90.204 109.944 91.396 110.116 92.644C112.032 90.644 112.64 84.516 112.64 84.516L109.572 89.08Z" fill="black"/>
<path id="Vector_121" d="M90.116 95.092L84.8 94.596L84.624 99.048C85.5026 99.2905 86.4308 99.2879 87.308 99.0404C88.1851 98.7929 88.9778 98.31 89.6 97.644L90.116 95.092Z" fill="#FF8B7B"/>
<path id="Vector_122" d="M82.2719 95.908L80.5679 98.968L84.6399 99.048L84.8159 94.596L82.2719 95.908Z" fill="#FF8B7B"/>
<path id="Vector_123" d="M116.836 79.548C116.468 80.248 116.14 80.868 115.772 81.508C115.404 82.148 115.052 82.772 114.672 83.392C113.92 84.64 113.14 85.864 112.316 87.076C110.662 89.558 108.829 91.9162 106.832 94.132C105.763 95.3249 104.6 96.431 103.356 97.44C103.2 97.572 103.016 97.7 102.844 97.84C102.672 97.98 102.52 98.092 102.264 98.24C102.008 98.388 101.792 98.536 101.56 98.664C101.328 98.792 101.088 98.908 100.852 99.012C99.9696 99.3951 99.0462 99.6756 98.0999 99.848C96.4448 100.127 94.7579 100.165 93.0919 99.96C92.3117 99.8706 91.5371 99.737 90.7719 99.56C90.3906 99.472 90.0146 99.372 89.6439 99.26C89.2439 99.148 88.9199 99.024 88.4919 98.86L89.1519 94.732C91.6639 94.392 94.3799 93.956 96.2519 93.108C96.6675 92.9373 97.0589 92.7127 97.4159 92.44C97.5597 92.3411 97.6937 92.2286 97.8159 92.104C97.8439 92.068 97.9679 91.96 98.0599 91.872C98.1519 91.784 98.2599 91.7 98.3599 91.596C99.2161 90.7476 100.018 89.8458 100.76 88.896C102.37 86.8185 103.875 84.6611 105.268 82.432C105.988 81.3 106.688 80.148 107.388 78.992L108.42 77.256L109.416 75.548L116.836 79.548Z" fill="#0038FF"/>
<path id="Vector_124" d="M110.408 163.04H106.032L103.828 152.9H108.208L110.408 163.04Z" fill="#FF8B7B"/>
<path id="Vector_125" d="M105.788 162.104H110.708C110.793 162.107 110.876 162.137 110.943 162.191C111.01 162.244 111.058 162.317 111.08 162.4L111.944 166.296C111.964 166.391 111.963 166.489 111.94 166.583C111.918 166.677 111.874 166.765 111.812 166.839C111.751 166.914 111.673 166.974 111.585 167.014C111.497 167.054 111.401 167.074 111.304 167.072C109.588 167.044 108.752 166.944 106.588 166.944C105.256 166.944 103.548 167.08 101.712 167.08C99.8758 167.08 99.6318 165.264 100.384 165.1C103.76 164.36 103.984 163.344 105.076 162.372C105.272 162.197 105.525 162.102 105.788 162.104Z" fill="#263238"/>
<g id="Group" opacity="0.2">
<path id="Vector_126" d="M108.212 152.904H103.828L105.052 158.52L109.348 158.132L108.212 152.904Z" fill="black"/>
</g>
<path id="Vector_127" d="M115.884 56.76C117.484 60.808 118.596 63.1 117.54 66.04C115.94 70.46 110.264 70.908 107.504 67.412C105.024 64.264 102.856 58.172 105.988 54.824C106.674 54.0818 107.538 53.5273 108.499 53.2134C109.459 52.8995 110.484 52.8366 111.476 53.0307C112.468 53.2247 113.393 53.6692 114.165 54.322C114.937 54.9747 115.528 55.814 115.884 56.76Z" fill="#FF8B7B"/>
<path id="Vector_128" d="M108.196 62.824C107.54 63.704 107.036 64.372 107.036 64.372C107.036 64.372 105.688 61.024 106.204 59.488C105.548 58.188 104.224 60.104 103.724 57.572C103.224 55.04 105.388 52.32 106.204 51.756C106.288 52.051 106.326 52.3574 106.316 52.664C108.521 50.8746 111.323 49.9896 114.156 50.188C113.919 50.5401 113.769 50.9429 113.716 51.364C113.716 51.364 118.464 52.164 119.544 54.852C119.162 54.6697 118.759 54.5353 118.344 54.452C119.214 55.6999 119.559 57.2401 119.304 58.74C118.96 60.9274 118.78 63.1377 118.768 65.352C118.812 66.488 115.696 68.66 113.796 66.34C111.896 64.02 108.196 62.824 108.196 62.824Z" fill="#263238"/>
<path id="Vector_129" d="M110.176 61.952C110.424 62.8949 110.353 63.8932 109.976 64.792C109.468 65.992 108.424 65.704 107.908 64.656C107.44 63.716 107.14 61.972 107.968 61.136C108.796 60.3 109.864 60.82 110.176 61.952Z" fill="#FF8B7B"/>
<path id="Vector_130" d="M118.4 107.64C118.4 107.64 98.064 115.016 97.468 124.772C96.364 142.744 103.712 156.972 103.712 156.972L110.448 156.252C110.448 156.252 109.248 150.468 108.356 134.188C107.232 113.728 141.956 134.668 134.804 107.64H118.4Z" fill="#0038FF"/>
<path id="Vector_131" opacity="0.5" d="M118.4 107.64C118.4 107.64 98.064 115.016 97.468 124.772C96.364 142.744 103.712 156.972 103.712 156.972L110.448 156.252C110.448 156.252 109.248 150.468 108.356 134.188C107.232 113.728 141.956 134.668 134.804 107.64H118.4Z" fill="white"/>
<path id="Vector_132" d="M101.848 154.492C101.816 154.492 102.92 157.484 102.92 157.484L111.32 156.66L110.9 153.94L101.848 154.492Z" fill="#0038FF"/>
<path id="Vector_133" d="M91.492 163.54H87.112L85.832 153.396H90.212L91.492 163.54Z" fill="#FF8B7B"/>
<path id="Vector_134" d="M87.0799 162.1H91.8799C91.9665 162.099 92.0509 162.128 92.1186 162.182C92.1864 162.236 92.2335 162.311 92.2519 162.396L93.1239 166.288C93.1494 166.383 93.1523 166.483 93.1325 166.58C93.1127 166.677 93.0707 166.767 93.0097 166.845C92.9488 166.922 92.8707 166.985 92.7815 167.027C92.6923 167.069 92.5946 167.09 92.4959 167.088C90.7719 167.06 88.2759 166.964 86.0959 166.968C83.5599 166.968 83.0759 167.108 80.0959 167.112C78.2959 167.112 77.7959 165.3 78.5479 165.112C81.9719 164.36 83.0679 164.276 86.0239 162.448C86.336 162.235 86.7021 162.114 87.0799 162.1Z" fill="#263238"/>
<path id="Vector_135" opacity="0.2" d="M85.8359 153.4L86.5319 158.924L90.8759 158.628L90.2159 153.4H85.8359Z" fill="black"/>
<path id="Vector_136" d="M111.38 107.64C111.38 107.64 78.0599 110.596 78.4199 127.332C78.7919 144.74 85.2959 156.48 85.2959 156.48H91.7999C91.7999 156.48 90.5679 147.448 90.7879 130.312C90.8519 125.18 101.228 123.484 111.356 122.884C120.108 122.364 128.3 117.376 131.7 109.284L132.4 107.64H111.38Z" fill="#0038FF"/>
<path id="Vector_137" opacity="0.5" d="M111.38 107.64C111.38 107.64 78.0599 110.596 78.4199 127.332C78.7919 144.74 85.2959 156.48 85.2959 156.48H91.7999C91.7999 156.48 90.5679 147.448 90.7879 130.312C90.8519 125.18 101.228 123.484 111.356 122.884C120.108 122.364 128.3 117.376 131.7 109.284L132.4 107.64H111.38Z" fill="white"/>
<path id="Vector_138" d="M83.772 154.732C83.744 154.732 84.888 157.74 84.888 157.74L92.744 157.176L92.284 154.456L83.772 154.732Z" fill="#0038FF"/>
<path id="Vector_139" d="M120.128 88.832L115.9 105.124C114.819 109.298 114.273 113.592 114.276 117.904V125.476C114.276 127.388 115.684 128.94 117.424 128.94H139.096C140.836 128.94 142.244 127.388 142.244 125.476V117.904C142.242 113.592 142.79 109.298 143.872 105.124L147.604 90.724C148.18 88.512 146.668 86.324 144.576 86.324H123.152C122.441 86.3464 121.757 86.6051 121.21 87.0593C120.662 87.5135 120.281 88.1373 120.128 88.832Z" fill="#263238"/>
<path id="Vector_140" d="M93.1718 121.052L93.8798 125.092C94.2558 127.216 96.1238 128.94 98.0558 128.94H122.148C124.08 128.94 125.348 127.216 124.972 125.092L124.264 121.052C123.836 118.632 121.712 116.672 119.512 116.672H96.3998C94.1838 116.672 92.7478 118.632 93.1718 121.052Z" fill="#263238"/>
<path id="Vector_141" d="M124.468 132.996H111.848L110.616 128.94H125.7L124.468 132.996Z" fill="#0038FF"/>
<path id="Vector_142" d="M120.412 132.996H115.904V163.16H120.412V132.996Z" fill="#0038FF"/>
<path id="Vector_143" opacity="0.7" d="M120.412 163.16H115.904V133.72L120.412 134.18V163.16Z" fill="white"/>
<path id="Vector_144" opacity="0.7" d="M119.312 163.16H118.236V133.956L119.312 134.068V163.16Z" fill="white"/>
<path id="Vector_145" d="M128.524 167.824H107.788C107.667 167.823 107.55 167.784 107.452 167.712C107.355 167.641 107.282 167.54 107.245 167.425C107.208 167.31 107.208 167.186 107.245 167.071C107.282 166.956 107.355 166.856 107.452 166.784L110.74 164.384C112.321 163.226 114.229 162.601 116.188 162.6H120.128C122.086 162.602 123.993 163.227 125.572 164.384L128.864 166.784C128.962 166.856 129.034 166.957 129.071 167.072C129.108 167.188 129.108 167.312 129.07 167.427C129.033 167.542 128.959 167.643 128.861 167.714C128.763 167.785 128.645 167.824 128.524 167.824Z" fill="#0038FF"/>
</g>
</g>
</svg>
