<svg width="200" height="200" viewBox="0 0 200 200" fill="none" xmlns="http://www.w3.org/2000/svg">
<g id="Telecommuting-rafiki">
<g id="freepik--background-complete--inject-11">
<path id="Vector" d="M200 152.96H0V153.06H200V152.96Z" fill="#EBEBEB"/>
<path id="Vector_2" d="M179.96 159.396H158.732V159.496H179.96V159.396Z" fill="#EBEBEB"/>
<path id="Vector_3" d="M132.488 158.144H109.024V158.244H132.488V158.144Z" fill="#EBEBEB"/>
<path id="Vector_4" d="M159.756 157.568H152.08V157.668H159.756V157.568Z" fill="#EBEBEB"/>
<path id="Vector_5" d="M57.464 156.356H40.188V156.456H57.464V156.356Z" fill="#EBEBEB"/>
<path id="Vector_6" d="M37.9599 156.356H31.7839V156.456H37.9599V156.356Z" fill="#EBEBEB"/>
<path id="Vector_7" d="M74.2679 158.044H52.5879V158.144H74.2679V158.044Z" fill="#EBEBEB"/>
<path id="Vector_8" d="M94.7999 135.12H17.5639C16.9589 135.119 16.379 134.878 15.9515 134.45C15.524 134.021 15.2839 133.441 15.2839 132.836V24.264C15.2892 23.6624 15.5316 23.0872 15.9585 22.6633C16.3854 22.2394 16.9623 22.001 17.5639 22H94.7999C95.4057 22 95.9866 22.2406 96.415 22.669C96.8433 23.0973 97.0839 23.6782 97.0839 24.284V132.836C97.0839 133.442 96.8433 134.023 96.415 134.451C95.9866 134.879 95.4057 135.12 94.7999 135.12ZM17.5639 22.08C16.9854 22.0811 16.4309 22.3116 16.0222 22.7211C15.6135 23.1306 15.3839 23.6855 15.3839 24.264V132.836C15.3839 133.415 15.6135 133.969 16.0222 134.379C16.4309 134.788 16.9854 135.019 17.5639 135.02H94.7999C95.3788 135.019 95.9337 134.789 96.3431 134.379C96.7524 133.97 96.9829 133.415 96.9839 132.836V24.264C96.9829 23.6851 96.7524 23.1302 96.3431 22.7208C95.9337 22.3115 95.3788 22.0811 94.7999 22.08H17.5639Z" fill="#EBEBEB"/>
<path id="Vector_9" d="M181.324 135.12H104.084C103.479 135.119 102.898 134.878 102.47 134.45C102.042 134.022 101.801 133.441 101.8 132.836V24.264C101.806 23.662 102.05 23.0868 102.477 22.663C102.905 22.2392 103.482 22.001 104.084 22H181.324C181.925 22.0021 182.501 22.2409 182.927 22.6647C183.353 23.0885 183.595 23.6631 183.6 24.264V132.836C183.6 133.44 183.361 134.02 182.934 134.448C182.507 134.876 181.928 135.118 181.324 135.12ZM104.084 22.08C103.505 22.0811 102.95 22.3115 102.541 22.7208C102.132 23.1302 101.901 23.6851 101.9 24.264V132.836C101.901 133.415 102.132 133.97 102.541 134.379C102.95 134.789 103.505 135.019 104.084 135.02H181.324C181.903 135.019 182.458 134.789 182.867 134.379C183.277 133.97 183.507 133.415 183.508 132.836V24.264C183.507 23.6851 183.277 23.1302 182.867 22.7208C182.458 22.3115 181.903 22.0811 181.324 22.08H104.084Z" fill="#EBEBEB"/>
<path id="Vector_10" d="M106.684 149.576H110.888V99.564H106.684V149.576Z" fill="#F0F0F0"/>
<path id="Vector_11" d="M25.896 152.908H109.272V149.576H25.896V152.908Z" fill="#F0F0F0"/>
<path id="Vector_12" d="M106.684 99.564H24.2839V149.576H106.684V99.564Z" fill="#F5F5F5"/>
<path id="Vector_13" d="M107.676 99.564H112.02V96.412H107.676V99.564Z" fill="#E0E0E0"/>
<path id="Vector_14" d="M107.676 96.412H23.156V99.564H107.676V96.412Z" fill="#EBEBEB"/>
<path id="Vector_15" d="M100.264 103.444H30.6999C28.9812 103.444 27.5879 104.837 27.5879 106.556V117.584C27.5879 119.303 28.9812 120.696 30.6999 120.696H100.264C101.983 120.696 103.376 119.303 103.376 117.584V106.556C103.376 104.837 101.983 103.444 100.264 103.444Z" fill="white"/>
<path id="Vector_16" d="M100.264 125.848H30.6999C28.9812 125.848 27.5879 127.241 27.5879 128.96V139.988C27.5879 141.707 28.9812 143.1 30.6999 143.1H100.264C101.983 143.1 103.376 141.707 103.376 139.988V128.96C103.376 127.241 101.983 125.848 100.264 125.848Z" fill="white"/>
<path id="Vector_17" d="M47.572 105.288H83.396C83.787 105.288 84.104 104.971 84.104 104.58V103.632C84.104 103.241 83.787 102.924 83.396 102.924H47.572C47.181 102.924 46.864 103.241 46.864 103.632V104.58C46.864 104.971 47.181 105.288 47.572 105.288Z" fill="#F5F5F5"/>
<path id="Vector_18" d="M47.572 127.692H83.396C83.787 127.692 84.104 127.375 84.104 126.984V126.036C84.104 125.645 83.787 125.328 83.396 125.328H47.572C47.181 125.328 46.864 125.645 46.864 126.036V126.984C46.864 127.375 47.181 127.692 47.572 127.692Z" fill="#F5F5F5"/>
<path id="Vector_19" d="M178.876 115.972H166.196V118.396H178.876V115.972Z" fill="#E6E6E6"/>
<path id="Vector_20" d="M156.48 152.96H158.82V70H156.48V152.96Z" fill="#E6E6E6"/>
<path id="Vector_21" d="M148.376 118.392H166.2V115.968H148.376V118.392Z" fill="#F5F5F5"/>
<path id="Vector_22" d="M178.876 138.292H166.196V140.716H178.876V138.292Z" fill="#E6E6E6"/>
<path id="Vector_23" d="M148.376 140.716H166.2V138.292H148.376V140.716Z" fill="#F5F5F5"/>
<path id="Vector_24" d="M178.876 71.328H166.196V73.752H178.876V71.328Z" fill="#E6E6E6"/>
<path id="Vector_25" d="M148.376 73.752H166.2V71.328H148.376V73.752Z" fill="#F5F5F5"/>
<path id="Vector_26" d="M178.876 93.648H166.196V96.072H178.876V93.648Z" fill="#E6E6E6"/>
<path id="Vector_27" d="M148.376 96.076H166.2V93.652H148.376V96.076Z" fill="#F5F5F5"/>
<path id="Vector_28" d="M174.304 152.96H176.644V70H174.304V152.96Z" fill="#E6E6E6"/>
<path id="Vector_29" d="M163.856 152.96H166.196V70H163.856V152.96Z" fill="#F5F5F5"/>
<path id="Vector_30" d="M148.376 152.96H150.716V70H148.376V152.96Z" fill="#F5F5F5"/>
<path id="Vector_31" d="M35.1559 89.456L140.836 89.456V33.348L35.1559 33.348V89.456Z" fill="#E0E0E0"/>
<path id="Vector_32" d="M32.4881 89.456L139.328 89.456V33.348L32.4881 33.348V89.456Z" fill="#F5F5F5"/>
<path id="Vector_33" d="M135.496 85.032V37.768L36.3121 37.768V85.032H135.496Z" fill="white"/>
</g>
<g id="freepik--Shadow--inject-11">
<path id="freepik--path--inject-11" d="M100 171.024C142.833 171.024 177.556 168.997 177.556 166.496C177.556 163.995 142.833 161.968 100 161.968C57.1671 161.968 22.4441 163.995 22.4441 166.496C22.4441 168.997 57.1671 171.024 100 171.024Z" fill="#F5F5F5"/>
</g>
<g id="freepik--Desk--inject-11">
<path id="Vector_34" d="M155.128 105.688H44.216C43.8631 105.687 43.5249 105.546 43.2753 105.297C43.0258 105.047 42.8851 104.709 42.884 104.356C42.8851 104.003 43.0258 103.665 43.2753 103.415C43.5249 103.166 43.8631 103.025 44.216 103.024H155.128C155.481 103.025 155.819 103.166 156.069 103.415C156.318 103.665 156.459 104.003 156.46 104.356C156.459 104.709 156.318 105.047 156.069 105.297C155.819 105.546 155.481 105.687 155.128 105.688Z" fill="#0038FF"/>
<path id="Vector_35" opacity="0.3" d="M155.128 105.688H129.164C128.811 105.687 128.473 105.546 128.223 105.297C127.974 105.047 127.833 104.709 127.832 104.356C127.833 104.003 127.974 103.665 128.223 103.415C128.473 103.166 128.811 103.025 129.164 103.024H155.128C155.481 103.025 155.819 103.166 156.069 103.415C156.318 103.665 156.459 104.003 156.46 104.356C156.459 104.709 156.318 105.047 156.069 105.297C155.819 105.546 155.481 105.687 155.128 105.688Z" fill="#263238"/>
<path id="Vector_36" d="M152.312 109.028H67.0122V118.312H152.312V109.028Z" fill="#263238"/>
<path id="Vector_37" opacity="0.1" d="M152.312 109.028H67.0122V118.312H152.312V109.028Z" fill="white"/>
<path id="Vector_38" d="M151.072 164.648H153.624L153.52 105.688H149.984L151.072 164.648Z" fill="#263238"/>
<path id="Vector_39" opacity="0.1" d="M151.072 164.648H153.624L153.52 105.688H149.984L151.072 164.648Z" fill="white"/>
<path id="Vector_40" d="M127.552 164.648H124.996L130.772 105.688H134.308L127.552 164.648Z" fill="#263238"/>
<path id="Vector_41" opacity="0.2" d="M127.552 164.648H124.996L130.772 105.688H134.308L127.552 164.648Z" fill="white"/>
<path id="Vector_42" d="M66.1241 164.648H68.6761L68.5721 105.688H65.0361L66.1241 164.648Z" fill="#263238"/>
<path id="Vector_43" opacity="0.1" d="M66.1241 164.648H68.6761L68.5721 105.688H65.0361L66.1241 164.648Z" fill="white"/>
<path id="Vector_44" d="M42.6041 164.648H40.0481L45.8241 105.688H49.3601L42.6041 164.648Z" fill="#263238"/>
<path id="Vector_45" opacity="0.2" d="M42.6041 164.648H40.0481L45.8241 105.688H49.3601L42.6041 164.648Z" fill="white"/>
<path id="Vector_46" d="M114.444 103.024H108.556L106.2 91.512H112.088L114.444 103.024Z" fill="#263238"/>
<path id="Vector_47" d="M122.256 100.652H96.712C96.5134 100.654 96.3164 100.615 96.1336 100.537C95.9508 100.459 95.7862 100.345 95.6501 100.2C95.514 100.055 95.4094 99.8836 95.343 99.6964C95.2765 99.5091 95.2496 99.3102 95.264 99.112L96.24 82.94C96.27 82.5257 96.4543 82.1376 96.7564 81.8525C97.0586 81.5674 97.4566 81.4059 97.872 81.4H123.42C123.619 81.3984 123.815 81.4379 123.998 81.5159C124.18 81.594 124.345 81.7089 124.481 81.8535C124.617 81.9982 124.721 82.1693 124.788 82.3563C124.855 82.5433 124.882 82.742 124.868 82.94L123.892 99.112C123.861 99.5267 123.676 99.9148 123.373 100.2C123.07 100.485 122.672 100.646 122.256 100.652Z" fill="#263238"/>
<path id="Vector_48" d="M121.856 100.652H96.3121C96.1135 100.654 95.9165 100.615 95.7337 100.537C95.5509 100.459 95.3863 100.345 95.2502 100.2C95.1141 100.055 95.0095 99.8836 94.9431 99.6964C94.8766 99.5091 94.8497 99.3102 94.8641 99.112L95.8401 82.94C95.8701 82.5257 96.0544 82.1376 96.3565 81.8525C96.6587 81.5674 97.0567 81.4059 97.4721 81.4H123.02C123.219 81.3984 123.415 81.4379 123.598 81.5159C123.78 81.594 123.945 81.7089 124.081 81.8535C124.217 81.9982 124.321 82.1693 124.388 82.3563C124.455 82.5433 124.482 82.742 124.468 82.94L123.492 99.112C123.461 99.5267 123.276 99.9148 122.973 100.2C122.67 100.485 122.272 100.646 121.856 100.652Z" fill="#0038FF"/>
<path id="Vector_49" d="M96.3081 99.852C96.2193 99.8526 96.1314 99.8352 96.0496 99.8008C95.9678 99.7664 95.8938 99.7158 95.8321 99.652C95.7719 99.5857 95.7257 99.508 95.6961 99.4235C95.6666 99.339 95.6543 99.2494 95.6601 99.16L96.6361 82.988C96.6509 82.7746 96.7448 82.5743 96.8994 82.4264C97.054 82.2785 97.2582 82.1935 97.4721 82.188H123.02C123.109 82.1866 123.198 82.2039 123.28 82.2387C123.362 82.2736 123.436 82.3253 123.497 82.3905C123.558 82.4556 123.605 82.5329 123.635 82.6172C123.664 82.7015 123.675 82.791 123.668 82.88L122.692 99.052C122.678 99.2658 122.584 99.4665 122.43 99.6147C122.275 99.7628 122.07 99.8475 121.856 99.852H96.3081Z" fill="white"/>
<path id="Vector_50" opacity="0.2" d="M107.528 81.4L109.188 87.084L114.116 81.4H107.528Z" fill="black"/>
</g>
<g id="freepik--Character--inject-11">
<path id="Vector_51" d="M67.8199 67.6C67.8599 67.908 68.0519 68.14 68.2559 68.124C68.4599 68.108 68.5879 67.844 68.5479 67.536C68.5079 67.228 68.3159 66.996 68.1159 67.012C67.9159 67.028 67.7839 67.3 67.8199 67.6Z" fill="#263238"/>
<path id="Vector_52" d="M68.156 68.06C68.5162 68.8585 68.9817 69.6051 69.54 70.28C69.1 70.724 68.296 70.544 68.296 70.544L68.156 68.06Z" fill="#A02724"/>
<path id="Vector_53" d="M66.8001 66.428C66.7697 66.4336 66.7385 66.4336 66.7081 66.428C66.6637 66.4086 66.6285 66.3728 66.6099 66.3281C66.5913 66.2834 66.5906 66.2332 66.6081 66.188C66.7121 65.9216 66.8793 65.6844 67.0953 65.4969C67.3113 65.3095 67.5697 65.1774 67.8481 65.112C67.8715 65.108 67.8954 65.1086 67.9186 65.1139C67.9417 65.1192 67.9635 65.129 67.9829 65.1427C68.0022 65.1565 68.0186 65.1739 68.0312 65.1941C68.0438 65.2142 68.0522 65.2366 68.0561 65.26C68.0643 65.3077 68.0533 65.3567 68.0256 65.3964C67.9979 65.436 67.9557 65.4632 67.9081 65.472C67.69 65.5247 67.4883 65.6304 67.3209 65.7797C67.1534 65.9291 67.0254 66.1174 66.9481 66.328C66.9334 66.3554 66.9122 66.3788 66.8864 66.3963C66.8607 66.4137 66.831 66.4246 66.8001 66.428Z" fill="#263238"/>
<path id="Vector_54" d="M58.756 72.428L61.156 74.268L64.432 76.776C64.2524 77.1529 64.1439 77.5597 64.112 77.976C63.996 78.896 63.88 79.576 65.924 80.14C66.1411 80.1918 66.3387 80.3049 66.4933 80.4659C66.6479 80.6269 66.753 80.829 66.796 81.048C66.876 81.592 66.544 82.248 64.656 82.572C62.8273 82.8452 60.9592 82.5271 59.324 81.664C58.524 81.264 58.524 80.784 58.86 79.972C59.868 77.664 59.38 74.72 58.756 72.428Z" fill="#B55B52"/>
<path id="Vector_55" d="M56 80.7C56.4609 79.8132 56.8411 78.8869 57.136 77.932C57.136 77.932 63.216 77.6 65.224 78.2C67.232 78.8 68.48 81.4 68.48 81.4L56 80.7Z" fill="#0038FF"/>
<path id="Vector_56" d="M58.5441 85.224C58.3961 85.672 58.2321 86.22 58.0761 86.724L57.6241 88.284C57.3441 89.324 57.0721 90.368 56.8601 91.408C56.6344 92.4249 56.4621 93.453 56.3441 94.488C56.2207 95.4388 56.1913 96.3994 56.2561 97.356C56.2796 97.7609 56.3413 98.1627 56.4401 98.556C56.4641 98.636 56.4841 98.724 56.5121 98.8L56.5921 99.016C56.5731 98.9773 56.5518 98.9399 56.5281 98.904C56.4872 98.8456 56.4432 98.7895 56.3961 98.736C56.3445 98.6741 56.2854 98.619 56.2201 98.572C56.1401 98.516 56.1281 98.524 56.1441 98.544C56.2612 98.6283 56.3873 98.6994 56.5201 98.756C56.7001 98.836 56.9201 98.916 57.1401 98.992C57.5921 99.144 58.0921 99.284 58.6081 99.42C60.6721 99.94 62.9241 100.344 65.1201 100.812L65.0481 103.584C63.875 103.741 62.6949 103.838 61.5121 103.876C60.3119 103.92 59.1102 103.9 57.9121 103.816C57.2776 103.774 56.646 103.696 56.0201 103.584C55.6921 103.524 55.3521 103.456 54.9921 103.356C54.578 103.249 54.176 103.1 53.7921 102.912C53.5079 102.775 53.2396 102.607 52.9921 102.412C52.8168 102.273 52.6548 102.117 52.5081 101.948C52.4164 101.84 52.3309 101.726 52.2521 101.608C52.2121 101.54 52.1681 101.472 52.1321 101.404L52.0801 101.308L51.8041 100.744C51.7201 100.556 51.6521 100.372 51.5801 100.184C51.3277 99.4838 51.1455 98.7602 51.0361 98.024C50.6361 95.244 50.9521 92.764 51.3681 90.352C51.5921 89.152 51.8561 87.952 52.1681 86.812C52.3281 86.232 52.4961 85.652 52.6761 85.08C52.8561 84.508 53.0481 83.956 53.2801 83.328L58.5441 85.224Z" fill="#B55B52"/>
<path id="Vector_57" d="M54.844 80.204C58.624 79.204 60.868 82.3 59.588 87.404C58.308 92.508 57.88 92.7 57.88 92.7L50.084 91.4C51.044 86.4 50.968 81.224 54.844 80.204Z" fill="#0038FF"/>
<path id="Vector_58" d="M67.0561 99.704L66.4681 99.652C64.7961 99.652 64.5081 100.108 63.4801 101.064L63.0801 103.168C65.7801 104.548 67.2281 103.032 67.2321 103.032H69.7321L68.8521 101.032C68.6985 100.67 68.451 100.357 68.1352 100.123C67.8193 99.8896 67.4467 99.7449 67.0561 99.704Z" fill="#B55B52"/>
<path id="Vector_59" d="M57.7239 68.448C58.4039 72.092 58.6159 74.26 60.7039 75.888C63.8399 78.332 68.16 76.008 68.584 72.216C68.964 68.804 67.7839 63.416 64.0159 62.46C63.1756 62.2524 62.2965 62.26 61.4599 62.4819C60.6232 62.7038 59.8559 63.1329 59.2289 63.7297C58.6019 64.3264 58.1353 65.0715 57.8723 65.8961C57.6093 66.7208 57.5582 67.5984 57.7239 68.448Z" fill="#B55B52"/>
<path id="Vector_60" d="M64.944 69.72C67.544 69.512 66.784 66.772 65.98 66.2C67.2 65.736 68.04 63.8 66.868 62.472C67.556 60.676 65.588 58.512 62.136 58.836C59.616 59.068 59.336 60.4 59.336 60.4C59.336 60.4 56.316 60.084 55.06 62.576C53.988 64.712 55.288 65.852 55.288 65.852C55.288 65.852 53.032 66.508 53.656 69.452C54.32 72.628 56.76 71.892 56.76 71.892C56.76 71.892 56.212 74.804 59.512 74.844C62.364 74.88 62.4 72.744 62.4 72.744C62.4 72.744 66.096 72.4 64.944 69.72Z" fill="#263238"/>
<path id="Vector_61" d="M63.008 69.932C63.2995 70.7137 63.8692 71.3603 64.608 71.748C65.56 72.236 66.288 71.224 66.12 70.184C65.968 69.252 65.156 68.056 64.152 68C63.148 67.944 62.652 68.964 63.008 69.932Z" fill="#B55B52"/>
<path id="Vector_62" d="M101.788 160.068L105.344 158.624L102.832 150.084L99.2759 151.524L101.788 160.068Z" fill="#B55B52"/>
<path id="Vector_63" opacity="0.2" d="M100.496 155.668L104.088 154.348L102.832 150.084L99.2759 151.524L100.496 155.668Z" fill="black"/>
<path id="Vector_64" d="M105.036 157.2L100.968 158.612C100.934 158.623 100.902 158.64 100.875 158.662C100.847 158.685 100.824 158.713 100.807 158.745C100.791 158.776 100.78 158.811 100.777 158.846C100.774 158.882 100.777 158.918 100.788 158.952L101.708 162.24C101.767 162.409 101.89 162.549 102.051 162.628C102.212 162.707 102.398 162.72 102.568 162.664C103.972 162.144 104.54 161.864 106.276 161.112C107.985 160.397 109.656 159.596 111.284 158.712C112.64 157.912 111.824 156.548 111.164 156.772C109.6 157.3 107.036 157.644 105.736 157.196C105.509 157.119 105.262 157.121 105.036 157.2Z" fill="#263238"/>
<path id="Vector_65" d="M73.2279 110.8C73.2279 110.8 100.104 113.2 100.8 120.932C102.2 136.664 104.348 151.832 104.348 151.832L98.8799 153.832C98.8799 153.832 92.1879 136.552 92.2759 124.232C84.5239 122.044 64.1399 125.256 60.8079 119.276C57.8639 113.996 60.4479 110.204 60.4479 110.204L73.2279 110.8Z" fill="#263238"/>
<path id="Vector_66" d="M98.4721 155.076L105.28 152.776L104.984 149.676L97.3081 152.148L98.4721 155.076Z" fill="#0038FF"/>
<path id="Vector_67" d="M106.536 157.364C106.209 157.469 105.871 157.538 105.528 157.568C105.511 157.57 105.493 157.567 105.477 157.559C105.462 157.552 105.449 157.539 105.44 157.524C105.431 157.51 105.427 157.493 105.427 157.476C105.427 157.459 105.431 157.442 105.44 157.428C105.528 157.308 106.312 156.252 106.812 156.268C106.869 156.271 106.925 156.289 106.974 156.319C107.022 156.349 107.063 156.39 107.092 156.44C107.144 156.511 107.176 156.594 107.186 156.681C107.195 156.768 107.18 156.856 107.144 156.936C107.001 157.149 106.785 157.301 106.536 157.364ZM105.736 157.364C106.428 157.268 106.9 157.084 107.008 156.856C107.031 156.804 107.038 156.746 107.031 156.69C107.023 156.633 107 156.58 106.964 156.536C106.952 156.51 106.932 156.488 106.908 156.473C106.884 156.457 106.857 156.449 106.828 156.448C106.54 156.436 106.044 156.952 105.716 157.364H105.736Z" fill="#0038FF"/>
<path id="Vector_68" d="M105.548 157.564C105.534 157.568 105.518 157.568 105.504 157.564C105.489 157.561 105.476 157.555 105.464 157.546C105.452 157.537 105.442 157.526 105.436 157.512C105.436 157.468 104.976 156.456 105.216 155.976C105.247 155.915 105.292 155.861 105.346 155.819C105.401 155.778 105.465 155.749 105.532 155.736C105.606 155.711 105.685 155.713 105.758 155.739C105.831 155.766 105.892 155.817 105.932 155.884C106.152 156.252 105.876 157.192 105.592 157.532C105.581 157.547 105.566 157.558 105.548 157.564ZM105.548 155.924C105.514 155.936 105.483 155.954 105.456 155.978C105.429 156.002 105.407 156.031 105.392 156.064C105.248 156.348 105.424 156.956 105.556 157.296C105.776 156.92 105.936 156.22 105.792 155.98C105.764 155.936 105.716 155.884 105.588 155.912L105.548 155.924Z" fill="#0038FF"/>
<path id="Vector_69" d="M82.76 162.608L86.56 162.428L87.18 153.456L83.38 153.636L82.76 162.608Z" fill="#B55B52"/>
<path id="Vector_70" d="M86.648 161.78L82.344 161.644C82.3083 161.641 82.2724 161.646 82.2383 161.657C82.2043 161.668 82.1728 161.686 82.1456 161.709C82.1185 161.733 82.0963 161.761 82.0802 161.793C82.0641 161.825 82.0546 161.86 82.052 161.896L81.736 165.292C81.7328 165.382 81.7475 165.472 81.7792 165.557C81.8109 165.641 81.859 165.718 81.9207 165.784C81.9824 165.85 82.0565 165.903 82.1388 165.94C82.2211 165.977 82.3098 165.997 82.4 166C83.9 166.02 84.616 165.956 86.508 166C87.672 166.036 89.964 166.208 91.56 166C93.156 165.792 92.912 164.228 92.216 164.168C90.572 164.036 88.368 162.9 87.316 162.016C87.127 161.863 86.8912 161.78 86.648 161.78Z" fill="#263238"/>
<path id="Vector_71" d="M87.9999 162.488C87.6562 162.468 87.3157 162.412 86.9839 162.32C86.967 162.316 86.9515 162.307 86.9396 162.295C86.9276 162.282 86.9196 162.266 86.9166 162.249C86.9136 162.232 86.9157 162.215 86.9227 162.199C86.9297 162.183 86.9413 162.169 86.9559 162.16C87.0799 162.076 88.1879 161.36 88.6519 161.568C88.7045 161.591 88.7504 161.627 88.7853 161.672C88.8203 161.718 88.8432 161.771 88.8519 161.828C88.8751 161.912 88.8754 162.001 88.8529 162.085C88.8304 162.17 88.7859 162.247 88.7239 162.308C88.5145 162.458 88.2554 162.523 87.9999 162.488ZM87.2319 162.196C87.9119 162.356 88.4319 162.352 88.6039 162.196C88.6433 162.154 88.6707 162.102 88.6834 162.046C88.696 161.99 88.6935 161.931 88.6759 161.876C88.6722 161.848 88.6614 161.822 88.6446 161.799C88.6278 161.777 88.6055 161.759 88.5799 161.748C88.3159 161.628 87.6679 161.928 87.1999 162.196H87.2319Z" fill="#0038FF"/>
<path id="Vector_72" d="M86.988 162.324C86.9735 162.328 86.9584 162.328 86.944 162.324C86.9311 162.316 86.9204 162.305 86.9128 162.291C86.9051 162.278 86.9007 162.263 86.9 162.248C86.9 162.204 86.848 161.1 87.244 160.74C87.2958 160.689 87.3597 160.652 87.4296 160.633C87.4995 160.613 87.5732 160.612 87.644 160.628C87.7205 160.632 87.7933 160.662 87.8507 160.713C87.908 160.764 87.9465 160.833 87.96 160.908C88.032 161.328 87.436 162.108 87.048 162.324C87.0287 162.332 87.0072 162.332 86.988 162.324ZM87.56 160.8C87.5241 160.798 87.4881 160.803 87.4543 160.815C87.4205 160.828 87.3897 160.847 87.364 160.872C87.128 161.084 87.076 161.716 87.076 162.072C87.416 161.8 87.816 161.204 87.768 160.928C87.768 160.876 87.728 160.816 87.6 160.796L87.56 160.8Z" fill="#0038FF"/>
<path id="Vector_73" opacity="0.2" d="M83.3799 153.636L87.1839 153.456L86.8239 158.588L83.0359 158.584L83.3799 153.636Z" fill="black"/>
<path id="Vector_74" d="M64.2999 110.372C64.2999 110.372 93.2599 114.8 92.7999 121.468C91.9719 133.468 87.9479 156.92 87.9479 156.92L82.2439 157C82.2439 157 80.8959 132.944 83.0439 124.176C75.9199 124.176 55.8239 123.928 53.0839 120.268C50.0519 116.224 53.1679 109.868 53.1679 109.868L64.2999 110.372Z" fill="#263238"/>
<path id="Vector_75" d="M81.572 157.448L88.476 157.34L88.816 153.692L81.24 153.988L81.572 157.448Z" fill="#0038FF"/>
<path id="Vector_76" d="M69.4 79.8C67.068 79.344 56.552 79.476 56.552 79.476C55.5008 79.4472 54.4771 79.8138 53.6831 80.5034C52.8892 81.1929 52.3827 82.1552 52.264 83.2C51.896 86.444 53.956 93.692 54.028 97.388C54.116 101.928 53.248 103.768 53.16 109.88L73.228 110.8C73.228 98.508 72.692 88.332 72.208 83.452C72.036 81.736 71.732 80.252 69.4 79.8Z" fill="#0038FF"/>
<path id="Vector_77" opacity="0.3" d="M69.4 79.8C67.068 79.344 56.552 79.476 56.552 79.476C55.5008 79.4472 54.4771 79.8138 53.6831 80.5034C52.8892 81.1929 52.3827 82.1552 52.264 83.2C51.896 86.444 53.956 93.692 54.028 97.388C54.116 101.928 53.248 103.768 53.16 109.88L73.228 110.8C73.228 98.508 72.692 88.332 72.208 83.452C72.036 81.736 71.732 80.252 69.4 79.8Z" fill="white"/>
<path id="Vector_78" d="M72.1479 83.672C72.7759 85.832 73.4079 88.052 74.0599 90.22C74.7119 92.388 75.3799 94.568 76.1319 96.62C76.3159 97.144 76.5319 97.632 76.7079 98.136L77.0159 98.844L77.0559 98.932V98.976V99V98.972C76.9867 98.8486 76.9006 98.7355 76.7999 98.636C76.6639 98.504 76.6119 98.492 76.5999 98.492C76.6891 98.5725 76.7921 98.6362 76.9039 98.68C77.0997 98.7744 77.3015 98.856 77.5079 98.924C77.9599 99.08 78.4679 99.22 78.9839 99.36C81.0759 99.892 83.3599 100.3 85.5839 100.776L85.5119 103.548C84.318 103.709 83.1163 103.807 81.9119 103.84C80.693 103.887 79.4723 103.864 78.2559 103.772C77.6091 103.726 76.9654 103.643 76.3279 103.524C75.9919 103.46 75.6439 103.38 75.2679 103.272C74.822 103.147 74.3923 102.97 73.9879 102.744C73.6656 102.559 73.3697 102.332 73.1079 102.068C72.9081 101.862 72.7359 101.631 72.5959 101.38L72.4599 101.128L72.0079 100.272C71.7439 99.712 71.4559 99.148 71.2079 98.592C70.7159 97.468 70.2839 96.356 69.8519 95.24C69.4199 94.124 69.0519 93.008 68.6799 91.888C67.9399 89.636 67.2719 87.408 66.6799 85.088L72.1479 83.672Z" fill="#B55B52"/>
<path id="Vector_79" d="M66.4481 81.444C69.1921 78.644 72.7001 80.172 74.2081 85.228C75.7161 90.284 75.4441 90.652 75.4441 90.652L68.0721 93.512C66.3321 88.696 63.6401 84.296 66.4481 81.444Z" fill="#0038FF"/>
<path id="Vector_80" d="M87.544 99.704L86.956 99.652C85.284 99.652 85 100.108 83.972 101.064L83.572 103.168C86.272 104.548 87.72 103.032 87.72 103.032H90.224L89.34 101.032C89.1872 100.67 88.9398 100.356 88.6239 100.122C88.3079 99.8884 87.9349 99.744 87.544 99.704Z" fill="#B55B52"/>
<path id="Vector_81" d="M54.0399 125.64H79.6719C80.2352 125.64 80.6919 125.183 80.6919 124.62V122.972C80.6919 122.409 80.2352 121.952 79.6719 121.952H54.0399C53.4766 121.952 53.0199 122.409 53.0199 122.972V124.62C53.0199 125.183 53.4766 125.64 54.0399 125.64Z" fill="#0038FF"/>
<path id="Vector_82" d="M54.156 166.7H53.02L54.328 125.636H55.9L54.156 166.7Z" fill="#0038FF"/>
<path id="Vector_83" opacity="0.4" d="M54.156 166.7H53.02L54.328 125.636H55.9L54.156 166.7Z" fill="white"/>
<path id="Vector_84" d="M64.604 166.7H65.74L64.436 125.636H62.864L64.604 166.7Z" fill="#0038FF"/>
<path id="Vector_85" opacity="0.4" d="M64.604 166.7H65.74L64.436 125.636H62.864L64.604 166.7Z" fill="white"/>
<path id="Vector_86" d="M69.1079 166.7H67.9719L69.2799 125.636H70.8519L69.1079 166.7Z" fill="#0038FF"/>
<path id="Vector_87" opacity="0.4" d="M69.1079 166.7H67.9719L69.2799 125.636H70.8519L69.1079 166.7Z" fill="white"/>
<path id="Vector_88" d="M79.5559 166.7H80.6919L79.3879 125.636H77.8159L79.5559 166.7Z" fill="#0038FF"/>
<path id="Vector_89" opacity="0.4" d="M79.5559 166.7H80.6919L79.3879 125.636H77.8159L79.5559 166.7Z" fill="white"/>
<g id="Group" opacity="0.3">
<path id="Vector_90" d="M54.328 125.636H55.9L55.824 127.38H54.272L54.328 125.636Z" fill="#0038FF"/>
<path id="Vector_91" d="M64.488 127.38H62.936L62.864 125.636H64.432L64.488 127.38Z" fill="#0038FF"/>
<path id="Vector_92" d="M70.8479 125.636L70.7759 127.38H69.2239L69.2799 125.636H70.8479Z" fill="#0038FF"/>
<path id="Vector_93" d="M79.4439 127.38H77.8879L77.8159 125.636H79.3879L79.4439 127.38Z" fill="#0038FF"/>
</g>
</g>
<g id="freepik--Telecommuting--inject-11">
<path id="Vector_94" d="M155.6 75.444H91.5322C91.0344 75.4492 90.5409 75.3511 90.083 75.1558C89.625 74.9606 89.2125 74.6725 88.8716 74.3097C88.5306 73.947 88.2686 73.5175 88.1021 73.0483C87.9356 72.5791 87.8682 72.0805 87.9042 71.584L90.3482 31.036C90.4251 29.9971 90.8882 29.0247 91.6463 28.3103C92.4044 27.5958 93.4026 27.1912 94.4442 27.176H158.496C158.994 27.1708 159.487 27.269 159.945 27.4642C160.403 27.6594 160.816 27.9475 161.157 28.3103C161.498 28.673 161.76 29.1026 161.926 29.5717C162.093 30.0409 162.16 30.5395 162.124 31.036L159.676 71.6C159.597 72.633 159.135 73.5992 158.381 74.31C157.628 75.0209 156.636 75.4252 155.6 75.444Z" fill="#0038FF"/>
<path id="Vector_95" d="M100.104 66.872L106.012 87.084L123.54 66.872H100.104Z" fill="#0038FF"/>
<path id="Vector_96" opacity="0.1" d="M152.476 59.128H116.572C116.293 59.1309 116.016 59.0759 115.759 58.9665C115.503 58.8571 115.271 58.6956 115.08 58.4923C114.888 58.289 114.741 58.0482 114.648 57.7851C114.554 57.5221 114.516 57.2425 114.536 56.964L115.908 34.236C115.951 33.6536 116.211 33.1084 116.636 32.7078C117.061 32.3073 117.62 32.0804 118.204 32.072H154.108C154.388 32.066 154.666 32.1189 154.925 32.2273C155.183 32.3356 155.416 32.4971 155.608 32.7011C155.8 32.9051 155.946 33.1471 156.039 33.4115C156.131 33.676 156.167 33.9568 156.144 34.236L154.772 56.964C154.729 57.5464 154.47 58.0916 154.045 58.4922C153.62 58.8927 153.06 59.1196 152.476 59.128Z" fill="white"/>
<path id="Vector_97" opacity="0.1" d="M133.268 68.932H97.3601C97.0813 68.9344 96.805 68.879 96.5486 68.7693C96.2922 68.6596 96.0613 68.4981 95.8704 68.2948C95.6796 68.0915 95.5328 67.8509 95.4395 67.5882C95.3462 67.3254 95.3083 67.0461 95.3281 66.768L96.7001 44.04C96.743 43.4583 97.002 42.9136 97.4261 42.5131C97.8503 42.1127 98.4089 41.8854 98.9921 41.876H134.9C135.18 41.8706 135.458 41.9239 135.715 42.0325C135.973 42.1411 136.205 42.3026 136.397 42.5066C136.588 42.7105 136.735 42.9524 136.827 43.2165C136.919 43.4806 136.955 43.7612 136.932 44.04L135.56 66.768C135.517 67.3497 135.258 67.8944 134.834 68.2949C134.41 68.6953 133.851 68.9226 133.268 68.932Z" fill="white"/>
<g id="Group_2" opacity="0.5">
<path id="Vector_98" d="M96.8841 30.704C96.8769 31.0111 96.7551 31.3045 96.5427 31.5265C96.3303 31.7485 96.0427 31.8831 95.7361 31.904C95.5904 31.8968 95.4479 31.859 95.3177 31.7931C95.1876 31.7272 95.0728 31.6347 94.9807 31.5215C94.8887 31.4083 94.8215 31.277 94.7835 31.1362C94.7455 30.9954 94.7375 30.8481 94.7601 30.704C94.7692 30.3974 94.8916 30.1051 95.1036 29.8834C95.3156 29.6618 95.6023 29.5266 95.9081 29.504C96.0538 29.5112 96.1964 29.549 96.3265 29.6149C96.4567 29.6808 96.5715 29.7733 96.6636 29.8865C96.7556 29.9997 96.8228 30.1309 96.8608 30.2718C96.8988 30.4126 96.9068 30.5599 96.8841 30.704Z" fill="white"/>
<path id="Vector_99" d="M100.8 30.704C100.792 31.0109 100.67 31.3037 100.458 31.5255C100.246 31.7473 99.9584 31.8823 99.6522 31.904C99.5062 31.8973 99.3632 31.8599 99.2326 31.7943C99.1019 31.7286 98.9866 31.6361 98.8942 31.5229C98.8017 31.4097 98.7341 31.2782 98.6959 31.1371C98.6576 30.996 98.6496 30.8484 98.6722 30.704C98.6813 30.3974 98.8036 30.1051 99.0157 29.8834C99.2277 29.6618 99.5143 29.5266 99.8202 29.504C99.966 29.5113 100.109 29.5491 100.239 29.6149C100.369 29.6808 100.484 29.7732 100.577 29.8863C100.669 29.9994 100.737 30.1306 100.775 30.2715C100.814 30.4123 100.822 30.5597 100.8 30.704Z" fill="white"/>
<path id="Vector_100" d="M104.744 30.704C104.737 31.0111 104.615 31.3045 104.403 31.5265C104.19 31.7485 103.903 31.8831 103.596 31.904C103.45 31.8968 103.308 31.859 103.178 31.7931C103.047 31.7272 102.933 31.6347 102.841 31.5215C102.749 31.4083 102.681 31.277 102.643 31.1362C102.605 30.9954 102.597 30.8481 102.62 30.704C102.629 30.3974 102.751 30.1051 102.963 29.8834C103.175 29.6618 103.462 29.5266 103.768 29.504C103.914 29.5112 104.056 29.549 104.186 29.6149C104.317 29.6808 104.431 29.7733 104.523 29.8865C104.615 29.9997 104.683 30.1309 104.721 30.2718C104.759 30.4126 104.767 30.5599 104.744 30.704Z" fill="white"/>
</g>
<path id="Vector_101" opacity="0.3" d="M155.104 75.068H91.0521C90.5408 75.072 90.0342 74.9703 89.5641 74.7691C89.094 74.5679 88.6706 74.2717 88.3205 73.8991C87.9704 73.5264 87.7012 73.0854 87.5297 72.6037C87.3582 72.122 87.2882 71.6101 87.3241 71.1L89.7721 30.552C89.849 29.4876 90.3223 28.4908 91.0984 27.7584C91.8745 27.026 92.8971 26.6112 93.9641 26.596H158C158.511 26.592 159.018 26.6938 159.488 26.8949C159.958 27.0961 160.382 27.3923 160.732 27.7649C161.082 28.1376 161.351 28.5786 161.522 29.0603C161.694 29.542 161.764 30.054 161.728 30.564L159.284 71.112C159.206 72.174 158.735 73.1686 157.961 73.9005C157.188 74.6325 156.169 75.0489 155.104 75.068ZM93.9641 26.8C92.9464 26.8124 91.9705 27.2066 91.2297 27.9044C90.4889 28.6023 90.0372 29.5529 89.9641 30.568L87.5161 71.116C87.4806 71.5991 87.5458 72.0842 87.7075 72.5408C87.8693 72.9974 88.124 73.4154 88.4556 73.7684C88.7872 74.1215 89.1885 74.4018 89.634 74.5918C90.0796 74.7818 90.5597 74.8772 91.0441 74.872H155.104C156.121 74.8587 157.097 74.4642 157.837 73.7665C158.578 73.0689 159.03 72.1188 159.104 71.104L161.548 30.556C161.582 30.0715 161.516 29.5852 161.353 29.1277C161.189 28.6703 160.933 28.2518 160.599 27.8987C160.265 27.5457 159.862 27.2657 159.415 27.0765C158.968 26.8874 158.486 26.7932 158 26.8H93.9641Z" fill="#263238"/>
<path id="Vector_102" d="M120.42 51.364C120.148 51.94 119.9 52.432 119.62 52.964C119.34 53.496 119.06 53.976 118.772 54.476C118.184 55.472 117.572 56.476 116.916 57.412C116.585 57.892 116.247 58.368 115.9 58.84C115.536 59.304 115.192 59.776 114.804 60.228C114.047 61.1648 113.231 62.052 112.36 62.884C112.14 63.1 111.9 63.284 111.668 63.512C111.438 63.7279 111.195 63.9296 110.94 64.116L110.172 64.696L109.936 64.86C109.832 64.9262 109.724 64.9863 109.612 65.04C109.392 65.1454 109.162 65.2259 108.924 65.28C108.455 65.3897 107.967 65.3935 107.495 65.2911C107.024 65.1887 106.582 64.9827 106.2 64.688C106.011 64.5387 105.838 64.3698 105.684 64.184L105.576 64.04L105.524 63.968L105.504 63.936L105.432 63.808L105.144 63.288C105.056 63.12 104.996 62.96 104.924 62.796C104.672 62.1925 104.466 61.5707 104.308 60.936C104.03 59.7795 103.834 58.6045 103.724 57.42C103.607 56.2665 103.556 55.1073 103.572 53.948C103.581 53.6191 103.706 53.304 103.927 53.0596C104.147 52.8152 104.447 52.6576 104.774 52.6151C105.1 52.5727 105.43 52.6482 105.706 52.828C105.982 53.0079 106.184 53.2802 106.276 53.596V53.644C106.806 55.6827 107.462 57.6865 108.24 59.644C108.418 60.0582 108.625 60.4592 108.86 60.844C108.912 60.924 108.964 61.02 109.016 61.088L109.168 61.272L109.204 61.32L109.184 61.288L109.14 61.228C109.077 61.146 109.005 61.0721 108.924 61.008C108.764 60.8792 108.579 60.7864 108.38 60.736C108.181 60.6939 107.975 60.6939 107.776 60.736C107.673 60.7578 107.572 60.7914 107.476 60.836C107.424 60.836 107.38 60.888 107.332 60.912C107.284 60.936 107.212 60.996 107.264 60.952L107.764 60.464C107.932 60.312 108.096 60.128 108.26 59.952C108.424 59.776 108.592 59.604 108.752 59.416C110.071 57.8344 111.271 56.1579 112.344 54.4C112.892 53.508 113.432 52.6 113.944 51.68L114.716 50.296L115.448 48.944L115.488 48.872C115.835 48.2506 116.409 47.7873 117.09 47.579C117.77 47.3706 118.505 47.4333 119.141 47.7539C119.776 48.0745 120.263 48.6282 120.5 49.2995C120.737 49.9707 120.706 50.7075 120.412 51.356L120.42 51.364Z" fill="#263238"/>
<path id="Vector_103" d="M103.948 53.772L102 52.656L104.096 50.516C104.71 50.9712 105.28 51.4842 105.796 52.048C105.918 52.177 106.007 52.3327 106.058 52.5026C106.109 52.6725 106.119 52.8519 106.088 53.0265C106.057 53.2011 105.985 53.3659 105.879 53.5079C105.773 53.6498 105.635 53.7649 105.476 53.844C105.234 53.9561 104.969 54.0081 104.703 53.9955C104.437 53.983 104.178 53.9063 103.948 53.772Z" fill="#FFC3BD"/>
<path id="Vector_104" d="M101.556 50.364L102.616 49.608C102.754 49.5078 102.926 49.4659 103.094 49.4914C103.262 49.5168 103.414 49.6076 103.516 49.744L104.096 50.516L102 52.656L101.34 51.152C101.28 51.0158 101.269 50.8632 101.308 50.7197C101.348 50.5762 101.435 50.4506 101.556 50.364Z" fill="#FFC3BD"/>
<path id="Vector_105" d="M116.224 49.572C116.383 49.0493 116.683 48.5805 117.091 48.2171C117.499 47.8537 117.999 47.6097 118.536 47.512C119.313 47.3404 120.1 47.2202 120.892 47.152C123.278 47.0589 125.667 47.1016 128.048 47.28C129.296 47.364 130.572 47.54 131.588 47.708H131.624C132.162 47.7973 132.643 48.0962 132.961 48.5394C133.279 48.9826 133.408 49.5337 133.32 50.072C132.82 52.96 131.352 57.984 131.192 62.724C130.98 68.948 131.076 72.532 130.968 74.032L114.948 73.724C113.832 58.512 115.22 53.016 116.224 49.572Z" fill="white"/>
<path id="Vector_106" d="M132.052 47.472H132C130.928 47.296 129.6 47.108 128.268 47.02L127.556 46.98C126.856 49.876 122.684 54.748 121.42 62.132C120.932 55.96 120.556 49.508 121.272 46.992C120.14 47.0264 119.01 47.1212 117.888 47.276C117.295 47.4103 116.747 47.6994 116.302 48.1139C115.856 48.5285 115.529 49.0537 115.352 49.636C114.368 52.532 112.488 59.02 113.644 74.972H131.448C131.564 73.372 131.148 70.012 131.792 64.84C132.412 59.832 133.304 53.016 133.828 49.972C133.922 49.4053 133.788 48.8243 133.455 48.356C133.123 47.8877 132.618 47.5699 132.052 47.472Z" fill="#263238"/>
<path id="Vector_107" opacity="0.2" d="M121.04 74.14C121.013 74.1411 120.987 74.1317 120.967 74.1138C120.946 74.0959 120.934 74.0709 120.932 74.044C120.556 69.544 121.26 63.084 121.268 63.016C121.269 63.0023 121.274 62.989 121.28 62.977C121.287 62.9649 121.296 62.9543 121.307 62.9458C121.318 62.9372 121.33 62.9309 121.343 62.9271C121.356 62.9234 121.37 62.9223 121.384 62.924C121.412 62.927 121.438 62.9409 121.456 62.9625C121.473 62.9842 121.482 63.012 121.48 63.04C121.48 63.104 120.768 69.548 121.144 74.024C121.146 74.038 121.144 74.0522 121.14 74.0657C121.136 74.0792 121.13 74.0917 121.121 74.1026C121.112 74.1134 121.101 74.1223 121.088 74.1288C121.076 74.1352 121.062 74.139 121.048 74.14H121.04Z" fill="white"/>
<path id="Vector_108" opacity="0.3" d="M131.424 53.804C130.764 56.796 131.116 60.94 131.824 64.72C132.348 60.476 133.064 54.968 133.588 51.56C132.856 51.072 131.948 51.416 131.424 53.804Z" fill="black"/>
<path id="Vector_109" d="M121.232 47.132C123.308 46.676 123.668 45.396 123.52 43.98C123.484 43.6263 123.426 43.275 123.348 42.928L125.94 40.808L127.848 39.256C127.328 41.552 126.756 45.74 128.324 47.304C128.324 47.304 127.044 49.404 123.484 49.148C120.476 48.932 121.232 47.132 121.232 47.132Z" fill="#FFC3BD"/>
<path id="Vector_110" d="M124.388 48.62L123.812 49.164L125.652 49.856L125.412 49.156L124.388 48.62Z" fill="#E0E0E0"/>
<path id="Vector_111" d="M125.796 50.832C125.796 50.832 125.072 49.004 124.388 48.616C125.733 48.2952 126.966 47.6134 127.952 46.644L129.044 47.08C129.044 47.08 129.388 49.2 125.796 50.832Z" fill="#F5F5F5"/>
<path id="Vector_112" d="M123.38 48.476L123.812 49.164L121.876 49.332L122.264 48.72L123.38 48.476Z" fill="#E0E0E0"/>
<path id="Vector_113" d="M120.904 50.316C121.614 49.5603 122.452 48.9372 123.38 48.476C122.328 48.164 122.264 46.716 122.264 46.716L121.244 46.912C121.244 46.912 119.372 48.732 120.904 50.316Z" fill="#F5F5F5"/>
<path id="Vector_114" opacity="0.2" d="M123.348 42.924C123.426 43.2724 123.483 43.625 123.52 43.98C124.488 43.804 125.784 42.78 125.92 41.8C125.966 41.4714 125.976 41.1387 125.948 40.808L123.348 42.924Z" fill="black"/>
<path id="Vector_115" d="M120.2 32.456C119.272 33.596 119.36 37.72 121.324 37.768C123.288 37.816 121.888 30.376 120.2 32.456Z" fill="#263238"/>
<path id="Vector_116" d="M128.66 35.456C128.464 38.58 128.504 40.416 126.928 42.032C124.56 44.46 120.72 43.064 119.98 39.956C119.32 37.156 119.752 32.52 122.804 31.252C123.471 30.9668 124.199 30.8584 124.92 30.9374C125.641 31.0164 126.329 31.28 126.918 31.7027C127.506 32.1255 127.976 32.6931 128.282 33.3506C128.587 34.0081 128.717 34.7333 128.66 35.456Z" fill="#FFC3BD"/>
<path id="Vector_117" d="M127.124 32.856C125.16 34.804 127.712 36.232 126.724 37.28C128.576 38.248 127.896 38.96 127.896 38.96C127.704 39.4926 127.704 40.0754 127.896 40.608C129.984 40.072 133.86 33.136 129.628 32.072C127.096 33.2 127.124 32.856 127.124 32.856Z" fill="#263238"/>
<path id="Vector_118" d="M127.928 34.256C126.068 34.544 123.728 33.656 122.276 32.904C120.824 32.152 120.612 33.572 121.148 34.004C120.216 34.036 119.036 33.3 119.328 31.656C119.596 30.156 121.56 28.736 124.356 30.004C126.336 30.9 128.776 29.72 129.728 30.756C130.68 31.792 129.168 34.06 127.928 34.256Z" fill="#263238"/>
<path id="Vector_119" d="M129.2 32.22C130.448 32.056 130.5 31.268 130.152 29.888C131.5 31.804 130.952 32.392 130.152 32.856C129.26 32.556 129.2 32.22 129.2 32.22Z" fill="#263238"/>
<path id="Vector_120" d="M129.5 37.852C129.223 38.4631 128.741 38.9573 128.136 39.248C127.364 39.596 126.972 38.884 127.18 38.048C127.368 37.292 127.98 36.204 128.78 36.212C129.58 36.22 129.848 37.08 129.5 37.852Z" fill="#FFC3BD"/>
<path id="Vector_121" d="M123.784 36.4C123.784 36.652 123.648 36.86 123.484 36.864C123.32 36.868 123.2 36.66 123.2 36.4C123.2 36.14 123.336 35.94 123.5 35.94C123.664 35.94 123.784 36.144 123.784 36.4Z" fill="#263238"/>
<path id="Vector_122" d="M120.92 36.424C120.92 36.68 120.784 36.884 120.616 36.888C120.448 36.892 120.316 36.684 120.32 36.428C120.324 36.172 120.452 35.968 120.62 35.968C120.788 35.968 120.92 36.172 120.92 36.424Z" fill="#263238"/>
<path id="Vector_123" d="M122 36.512C121.701 37.291 121.297 38.0258 120.8 38.696C120.972 38.817 121.169 38.8994 121.376 38.9373C121.583 38.9753 121.796 38.968 122 38.916V36.512Z" fill="#ED847E"/>
<path id="Vector_124" d="M123.008 39.6C123.298 39.5675 123.579 39.4749 123.832 39.3283C124.084 39.1816 124.304 38.984 124.476 38.748C124.487 38.7316 124.49 38.7116 124.486 38.6924C124.482 38.6733 124.47 38.6566 124.454 38.646C124.438 38.6354 124.418 38.6317 124.398 38.6359C124.379 38.64 124.363 38.6516 124.352 38.668C124.16 38.9195 123.911 39.1227 123.626 39.2616C123.342 39.4004 123.029 39.4711 122.712 39.468C122.702 39.468 122.693 39.47 122.683 39.4738C122.674 39.4777 122.666 39.4834 122.66 39.4905C122.653 39.4976 122.648 39.506 122.644 39.5152C122.641 39.5244 122.639 39.5342 122.64 39.544C122.64 39.5538 122.642 39.5635 122.646 39.5725C122.65 39.5815 122.655 39.5896 122.662 39.5964C122.67 39.6031 122.678 39.6083 122.687 39.6117C122.696 39.6151 122.706 39.6165 122.716 39.616C122.82 39.6 122.916 39.6 123.008 39.6Z" fill="#263238"/>
<path id="Vector_125" d="M125.172 35.388C125.197 35.3866 125.221 35.3767 125.24 35.36C125.256 35.3486 125.269 35.334 125.28 35.3171C125.29 35.3003 125.296 35.2815 125.299 35.2621C125.302 35.2426 125.3 35.2227 125.295 35.2038C125.29 35.1849 125.28 35.1673 125.268 35.152C125.131 34.9626 124.95 34.8086 124.742 34.7029C124.533 34.5972 124.302 34.5427 124.068 34.544C124.049 34.5455 124.03 34.5509 124.013 34.5598C123.996 34.5687 123.98 34.581 123.968 34.5959C123.956 34.6109 123.946 34.6281 123.941 34.6467C123.935 34.6653 123.934 34.6848 123.936 34.704C123.94 34.744 123.959 34.7808 123.99 34.8069C124.02 34.833 124.06 34.8463 124.1 34.844C124.286 34.8423 124.469 34.8858 124.634 34.9708C124.799 35.0558 124.941 35.1798 125.048 35.332C125.063 35.3506 125.082 35.3653 125.103 35.3751C125.125 35.3848 125.148 35.3893 125.172 35.388Z" fill="#263238"/>
<path id="Vector_126" d="M119.76 35.512C119.784 35.5087 119.806 35.4998 119.826 35.4858C119.845 35.4719 119.861 35.4534 119.872 35.432C119.948 35.2589 120.065 35.1063 120.211 34.9868C120.358 34.8672 120.531 34.784 120.716 34.744C120.736 34.7422 120.755 34.7362 120.772 34.7265C120.789 34.7168 120.804 34.7036 120.816 34.6878C120.827 34.6719 120.835 34.6537 120.84 34.6345C120.844 34.6152 120.844 34.5953 120.84 34.576C120.833 34.5375 120.812 34.503 120.781 34.4793C120.75 34.4555 120.711 34.4444 120.672 34.448C120.439 34.494 120.22 34.5949 120.033 34.7424C119.847 34.8899 119.698 35.0797 119.6 35.296C119.583 35.3317 119.581 35.3724 119.594 35.4098C119.606 35.4471 119.633 35.478 119.668 35.496C119.697 35.5093 119.728 35.5149 119.76 35.512Z" fill="#263238"/>
<path id="Vector_127" d="M134.304 49.28C134.792 50.308 135.2 51.28 135.6 52.28C136 53.28 136.356 54.3 136.712 55.32C137.41 57.3989 137.974 59.5206 138.4 61.672C138.492 62.228 138.596 62.772 138.664 63.344L138.716 63.768L138.744 63.98V64.088V64.236C138.784 64.6497 138.784 65.0663 138.744 65.48C138.651 66.3852 138.34 67.2543 137.836 68.012C137.364 68.706 136.744 69.2866 136.02 69.712C135.417 70.0661 134.768 70.3353 134.092 70.512C133.49 70.6769 132.874 70.7867 132.252 70.84C131.079 70.9509 129.896 70.9039 128.736 70.7C128.421 70.6472 128.135 70.4866 127.925 70.2457C127.716 70.0049 127.597 69.6987 127.588 69.3797C127.58 69.0606 127.682 68.7485 127.879 68.4968C128.075 68.2452 128.352 68.0695 128.664 68L128.808 67.968C129.208 67.876 129.732 67.764 130.18 67.644C130.628 67.524 131.084 67.384 131.508 67.244C132.248 67.0069 132.935 66.6263 133.528 66.124C133.685 65.9786 133.804 65.7975 133.876 65.596C133.904 65.4548 133.904 65.3093 133.876 65.168C133.862 65.0602 133.842 64.9534 133.816 64.848L133.672 64.196C133.58 63.74 133.448 63.268 133.328 62.804C133.08 61.864 132.8 60.924 132.48 59.98C132.16 59.036 131.832 58.096 131.484 57.156C131.136 56.216 130.768 55.276 130.396 54.356C130.024 53.436 129.632 52.468 129.26 51.592V51.552C128.961 50.8847 128.939 50.1259 129.199 49.4425C129.46 48.7592 129.981 48.2072 130.648 47.908C131.315 47.6088 132.074 47.587 132.757 47.8473C133.441 48.1076 133.993 48.6287 134.292 49.296L134.304 49.28Z" fill="#263238"/>
<path id="Vector_128" d="M127.472 69.152L125.708 70L128.756 71.084C128.756 71.084 130.788 70.436 129.804 69.308L129.256 69.136C128.376 68.848 127.944 68.88 127.472 69.152Z" fill="#FFC3BD"/>
<path id="Vector_129" d="M125.944 72.152L127.284 72.408C127.476 72.4432 127.673 72.4178 127.85 72.3353C128.026 72.2529 128.172 72.1175 128.268 71.948L128.756 71.072L125.708 70L125.308 70.836C125.246 70.9624 125.214 71.1013 125.213 71.2422C125.213 71.383 125.244 71.5221 125.306 71.6489C125.367 71.7758 125.456 71.887 125.567 71.9741C125.678 72.0613 125.807 72.1221 125.944 72.152Z" fill="#FFC3BD"/>
</g>
</g>
</svg>
